<svg width="100" height="93" viewBox="0 0 100 93" fill="none" xmlns="http://www.w3.org/2000/svg">
<g opacity="0.1">
<path d="M0 67.0681C0 60.7699 1.09395 54.1432 3.28185 47.1888C5.59845 40.1033 9.13772 32.3613 13.8996 23.9634C17.7606 16.8777 21.5573 11.4322 25.2896 7.62694C29.1506 3.69043 32.5611 1.72217 35.5214 1.72217C37.3231 1.72217 38.8031 2.24704 39.9614 3.29677C41.2483 4.34649 41.8917 5.59307 41.8917 7.03646C41.8917 7.82376 39.3179 12.2851 34.1699 20.4206C29.0219 28.4248 26.4479 34.8543 26.4479 39.7096C26.4479 41.0216 29.1506 43.7771 34.5559 47.9762C39.9614 52.0438 42.6641 57.3582 42.6641 63.9188C42.6641 71.5297 40.4117 78.0249 35.9072 83.4048C31.5315 88.6534 26.1261 91.2777 19.6911 91.2777C13.5135 91.2777 8.68724 89.1783 5.21234 84.9792C1.73745 80.7804 0 74.8098 0 67.0681ZM57.3359 67.0681C57.3359 60.9012 58.43 54.4056 60.6179 47.5825C62.9345 40.6279 66.6024 32.755 71.6217 23.9634C75.4828 16.8777 79.2793 11.4322 83.0117 7.62694C86.8728 3.69043 90.2831 1.72217 93.2431 1.72217C94.9162 1.72217 96.3965 2.31265 97.6834 3.49361C98.9703 4.54334 99.6138 5.72427 99.6138 7.03646C99.6138 7.95496 96.9755 12.4163 91.699 20.4206C86.4221 28.4248 83.7838 34.8543 83.7838 39.7096C83.7838 41.0216 86.4865 43.7771 91.8917 47.9762C97.2972 52.0438 100 57.3582 100 63.9188C100 71.5297 97.8121 78.0249 93.4362 83.4048C89.1893 88.6534 83.8483 91.2777 77.4131 91.2777C71.1069 91.2777 66.1517 89.1783 62.5483 84.9792C59.0734 80.6492 57.3359 74.6789 57.3359 67.0681Z" fill="white"/>
</g>
</svg>
