<svg width="236" height="42" viewBox="0 0 236 42" fill="none" xmlns="http://www.w3.org/2000/svg">
<path d="M16.9022 12.8115H12.9971V31.1866H16.9022V12.8115Z" fill="white"/>
<path d="M35.5054 12.8115V31.1866H31.6003L22.8641 19.2745V31.1866H18.9551V12.8115H22.8641V12.8657L22.935 12.8115L31.6003 24.623V12.8115H35.5054Z" fill="white"/>
<path d="M37.7712 16.6468L38.1062 12.8115H51.9573L51.6499 16.6468H37.7712Z" fill="white"/>
<path d="M190.015 16.8016L190.243 12.9625H204.098L203.787 16.8016H190.015Z" fill="white"/>
<path d="M51.9536 20.1492L51.6462 23.9844H41.6766V31.1866H37.7676V20.1492H51.9536Z" fill="white"/>
<path d="M97.0846 17.773V19.143C97.0846 19.7002 97.5417 20.153 98.1092 20.153H105.025C107.31 20.153 109.182 21.8636 109.399 24.0502C109.411 24.1856 109.419 24.3288 109.419 24.4682V27.0882C109.419 29.4721 107.452 31.4033 105.025 31.4033H92.9194V27.4404H105.088C105.379 27.4404 105.616 27.2082 105.616 26.9218V24.5688C105.616 24.2824 105.379 24.0502 105.088 24.0502H97.057C94.8267 24.0502 93.0101 22.3203 92.9234 20.153C92.9194 20.0989 92.9194 20.0408 92.9194 19.9866V16.79C92.9194 14.5453 94.7715 12.7264 97.057 12.7264H126.071L125.87 16.7629H98.1092C97.5417 16.7629 97.0846 17.2157 97.0846 17.773Z" fill="white"/>
<path d="M210.731 17.773V19.143C210.731 19.7002 211.188 20.153 211.755 20.153H218.671C220.956 20.153 222.828 21.8636 223.045 24.0502C223.057 24.1856 223.065 24.3288 223.065 24.4682V27.0882C223.065 29.4721 221.098 31.4033 218.671 31.4033H206.565V27.4404H218.734C219.025 27.4404 219.262 27.2082 219.262 26.9218V24.5688C219.262 24.2824 219.025 24.0502 218.734 24.0502H210.703C208.473 24.0502 206.656 22.3203 206.569 20.153C206.565 20.0989 206.565 20.0408 206.565 19.9866V16.79C206.565 14.5453 208.417 12.7264 210.703 12.7264H222.596L222.395 16.7629H211.755C211.188 16.7629 210.731 17.2157 210.731 17.773Z" fill="white"/>
<path d="M115.688 24.0502V27.4404H126.071L125.933 31.3685H111.424V20.153H126.071L125.894 24.0502H115.688Z" fill="white"/>
<path d="M194.022 24.0502V27.4404H204.406L204.264 31.3685H189.759V20.153H204.406L204.225 24.0502H194.022Z" fill="white"/>
<path d="M140.541 24.0502H139.595C139.962 25.2576 140.431 26.0394 140.872 26.5425C141.384 27.123 142.137 27.4404 142.917 27.4249L144.509 27.4017L144.202 31.3685C143.611 31.4265 143.067 31.442 142.571 31.4226C140.301 31.3414 138.267 30.0217 137.207 28.0518C135.836 25.5015 134.682 24.0502 134.682 24.0502H132.341V31.3685H128.077V20.153H139.28C139.848 20.153 140.309 19.7002 140.309 19.143V17.773C140.309 17.2157 139.848 16.7629 139.28 16.7629H128.128L128.302 12.7264H140.541C142.827 12.7264 144.679 14.5453 144.679 16.79V19.9866C144.679 22.2313 142.827 24.0502 140.541 24.0502Z" fill="white"/>
<path d="M169.453 12.9625H165.548V31.3685H169.453V12.9625Z" fill="white"/>
<path d="M163.286 12.9625V22.2661C163.286 25.3312 161.741 28.0441 159.377 29.6889C157.864 30.7493 156.016 31.3685 154.018 31.3685H146.941V12.9625H150.846V27.4017H153.313C156.662 27.4017 159.377 24.7313 159.377 21.4418V12.9625H163.286Z" fill="white"/>
<path d="M175.415 17.8349V26.4187C175.415 26.9914 175.884 27.452 176.467 27.452H187.186L186.981 31.3723H175.738C173.516 31.3723 171.715 29.6037 171.715 27.421V16.9177C171.715 14.735 173.516 12.9625 175.738 12.9625H187.288L187.032 16.7977H176.467C175.884 16.8016 175.415 17.266 175.415 17.8349Z" fill="white"/>
<path d="M77.1194 24.9L78.8998 27.4335L77.1553 29.4604L74.5239 28.1494C73.9586 28.6193 73.348 29.025 72.6935 29.3591L72.7604 32.3072L70.1789 33.0178L68.7141 30.4307C68.3058 30.4549 67.8915 30.452 67.4758 30.4223C67.1126 30.3964 66.7511 30.3516 66.4025 30.2848L64.9132 32.5698L62.3873 31.6966L62.6324 28.7441C61.987 28.3096 61.3964 27.7992 60.8708 27.2286L58.241 28.1337L56.7821 25.8898L58.7676 23.7354C58.5421 23.1139 58.3792 22.4664 58.2827 21.7969L58.2601 21.9514L55.3366 20.7414L55.7235 18.0922L58.4683 17.8083C58.6513 17.056 58.9153 16.34 59.2481 15.6669L57.5543 13.2538L59.2991 11.2231L61.7575 12.4533C62.3489 11.9433 62.9996 11.5062 63.6941 11.1483L63.6247 8.07056L66.2025 7.35966L67.7349 10.0658C68.1279 10.0406 68.5266 10.0462 68.9275 10.0748C69.1695 10.092 69.4072 10.1166 69.64 10.1523L71.1771 7.78693L73.7029 8.66014L73.4621 11.552C74.2444 12.0381 74.9508 12.633 75.5675 13.3129L78.3415 12.3571L79.8 14.6011L77.6831 16.8946C77.9062 17.5502 78.0666 18.2318 78.153 18.9386L80.7267 19.7238L80.5929 22.3987L77.8668 22.9505C77.6849 23.6343 77.433 24.2865 77.1194 24.9Z" fill="url(#paint0_linear_644_2063)"/>
<path d="M67.5041 28.0264C71.8377 28.3356 75.6015 25.0732 75.9107 20.7395C76.2199 16.4059 72.9574 12.6422 68.6238 12.333C64.2902 12.0238 60.5265 15.2863 60.2173 19.6199C59.9081 23.9535 63.1706 27.7172 67.5041 28.0264Z" fill="url(#paint1_linear_644_2063)"/>
<path d="M64.6794 19.6959C64.6794 19.6959 64.5354 18.3477 65.5989 17.5311C66.0472 17.1864 66.6221 17.0471 67.1879 17.1045C67.8293 17.1738 68.6688 17.4793 69.0909 18.5459C69.0909 18.5459 70.1422 17.8503 70.8229 18.1697C70.8229 18.1697 72.2728 18.6502 72.3215 20.1793C72.3215 20.1793 73.8564 20.3994 73.8399 22.0415C73.8399 22.0415 73.9554 23.6544 72.2919 23.9744L63.7407 23.9078C63.7407 23.9078 62.6067 23.6038 62.2912 22.3866C62.1227 21.7383 62.2303 21.0277 62.6421 20.4974C62.9892 20.0574 63.6002 19.6308 64.6794 19.6959Z" fill="white"/>
<defs>
<linearGradient id="paint0_linear_644_2063" x1="69.7314" y1="8.78707" x2="66.4857" y2="32.2162" gradientUnits="userSpaceOnUse">
<stop stop-color="#186DBF"/>
<stop offset="1" stop-color="#2E3192"/>
</linearGradient>
<linearGradient id="paint1_linear_644_2063" x1="68.6984" y1="12.339" x2="67.4311" y2="28.0205" gradientUnits="userSpaceOnUse">
<stop stop-color="#2E3192"/>
<stop offset="1" stop-color="#196BBD"/>
</linearGradient>
</defs>
</svg>
