<svg width="50" height="50" viewBox="0 0 50 50" fill="none" xmlns="http://www.w3.org/2000/svg">
<path d="M42.6758 26.1867H37.7814C37.1153 26.1867 36.4704 26.2777 35.8566 26.4451C34.6459 24.065 32.174 22.4297 29.3257 22.4297H20.6743C17.826 22.4297 15.3541 24.065 14.1434 26.4451C13.5296 26.2777 12.8847 26.1867 12.2186 26.1867H7.32422C3.28564 26.1867 0 29.4724 0 33.5109V41.335C0 43.7581 1.97139 45.7295 4.39453 45.7295H45.6055C48.0286 45.7295 50 43.7581 50 41.335V33.5109C50 29.4724 46.7144 26.1867 42.6758 26.1867ZM13.3501 29.7541V42.7999H4.39453C3.58682 42.7999 2.92969 42.1428 2.92969 41.3351V33.511C2.92969 31.0879 4.90107 29.1165 7.32422 29.1165H12.2186C12.6162 29.1165 13.0013 29.1705 13.3679 29.27C13.3573 29.4303 13.3501 29.5914 13.3501 29.7541ZM33.7202 42.7999H16.2798V29.754C16.2798 27.3309 18.2512 25.3595 20.6743 25.3595H29.3257C31.7488 25.3595 33.7202 27.3309 33.7202 29.754V42.7999ZM47.0703 41.3351C47.0703 42.1428 46.4132 42.7999 45.6055 42.7999H36.6499V29.754C36.6499 29.5912 36.6427 29.4301 36.6321 29.2699C36.9987 29.1705 37.3838 29.1164 37.7814 29.1164H42.6758C45.0989 29.1164 47.0703 31.0878 47.0703 33.5109V41.3351Z" fill="white"/>
<path d="M9.77158 12.3539C6.18281 12.3539 3.26318 15.2735 3.26318 18.8623C3.26309 22.451 6.18281 25.3707 9.77158 25.3707C13.3603 25.3707 16.28 22.451 16.28 18.8623C16.28 15.2735 13.3604 12.3539 9.77158 12.3539ZM9.77148 22.441C7.79814 22.441 6.19277 20.8356 6.19277 18.8623C6.19277 16.8889 7.79814 15.2836 9.77148 15.2836C11.7448 15.2836 13.3502 16.8889 13.3502 18.8623C13.3502 20.8356 11.7448 22.441 9.77148 22.441Z" fill="white"/>
<path d="M24.9998 4.27039C20.2053 4.27039 16.3047 8.17097 16.3047 12.9655C16.3047 17.76 20.2053 21.6606 24.9998 21.6606C29.7943 21.6606 33.6949 17.76 33.6949 12.9655C33.6949 8.17107 29.7943 4.27039 24.9998 4.27039ZM24.9998 18.7309C21.8207 18.7309 19.2344 16.1446 19.2344 12.9655C19.2344 9.7865 21.8207 7.20007 24.9998 7.20007C28.1789 7.20007 30.7652 9.7864 30.7652 12.9655C30.7652 16.1446 28.1789 18.7309 24.9998 18.7309Z" fill="white"/>
<path d="M40.2286 12.3539C36.6399 12.3539 33.7202 15.2735 33.7202 18.8623C33.7203 22.451 36.6399 25.3707 40.2286 25.3707C43.8174 25.3707 46.737 22.451 46.737 18.8623C46.737 15.2735 43.8174 12.3539 40.2286 12.3539ZM40.2286 22.441C38.2554 22.441 36.6499 20.8356 36.6499 18.8623C36.65 16.8889 38.2554 15.2836 40.2286 15.2836C42.202 15.2836 43.8073 16.8889 43.8073 18.8623C43.8073 20.8356 42.202 22.441 40.2286 22.441Z" fill="white"/>
</svg>
