<svg width="50" height="50" viewBox="0 0 50 50" fill="none" xmlns="http://www.w3.org/2000/svg">
<path d="M44.3609 25.2548L38.9211 16.8545C38.4995 16.2035 37.7847 15.8147 37.009 15.8147H13.0083C12.2338 15.8147 11.5197 16.2025 11.0979 16.8519L5.64124 25.2533C5.08362 26.1117 5.16975 27.2451 5.85071 28.0093L23.2982 47.5972C23.73 48.082 24.3499 48.3601 24.9991 48.3601C24.9991 48.3601 24.9992 48.3601 24.9991 48.3601C25.6483 48.3601 26.2685 48.0821 26.7003 47.5973L44.1497 28.0082C44.8297 27.2449 44.9165 26.1126 44.3609 25.2548ZM35.9071 17.7677L31.3323 24.8419L26.7547 17.7677H35.9071ZM29.5374 25.6634H20.4609L24.9991 18.6499L29.5374 25.6634ZM23.2436 17.7679L18.6786 24.8227L14.1153 17.7679H23.2436ZM12.3095 18.5721L16.8964 25.6634H7.70374L12.3095 18.5721ZM8.11624 27.6166H17.9448L23.1417 44.4852L8.11624 27.6166ZM24.9991 43.8805L19.9885 27.6166H30.0098L24.9991 43.8805ZM26.8565 44.4858L32.0535 27.6166H41.883L26.8565 44.4858ZM33.1271 25.6634L37.7098 18.577L42.2986 25.6634H33.1271Z" fill="white"/>
<path d="M2.96221 25.6633H0.976562C0.437305 25.6633 0 26.1005 0 26.6399C0 27.1792 0.437305 27.6165 0.976562 27.6165H2.96221C3.50146 27.6165 3.93877 27.1792 3.93877 26.6399C3.93877 26.1005 3.50146 25.6633 2.96221 25.6633Z" fill="white"/>
<path d="M49.0232 25.6633H47.0376C46.4983 25.6633 46.061 26.1005 46.061 26.6399C46.061 27.1792 46.4983 27.6165 47.0376 27.6165H49.0232C49.5625 27.6165 49.9998 27.1792 49.9998 26.6399C49.9998 26.1005 49.5625 25.6633 49.0232 25.6633Z" fill="white"/>
<path d="M42.6898 8.96741C42.3084 8.58606 41.6902 8.58606 41.3087 8.96741L38.0648 12.2113C37.6835 12.5926 37.6835 13.211 38.0648 13.5923C38.2556 13.783 38.5055 13.8783 38.7554 13.8783C39.0054 13.8783 39.2552 13.7829 39.446 13.5923L42.6898 10.3485C43.0712 9.96711 43.0712 9.34885 42.6898 8.96741Z" fill="white"/>
<path d="M11.9773 12.1939L8.73357 8.94995C8.35232 8.5686 7.73416 8.5686 7.35242 8.94995C6.97107 9.3313 6.97107 9.94966 7.35242 10.331L10.5963 13.5749C10.787 13.7656 11.0369 13.8609 11.2868 13.8609C11.5367 13.8609 11.7866 13.7655 11.9773 13.5749C12.3587 13.1936 12.3587 12.5751 11.9773 12.1939Z" fill="white"/>
<path d="M25.0249 1.63989C24.4856 1.63989 24.0483 2.0771 24.0483 2.61646V8.98052C24.0483 9.51987 24.4855 9.95708 25.0249 9.95708C25.5642 9.95708 26.0015 9.51987 26.0015 8.98052V2.61646C26.0015 2.0772 25.5642 1.63989 25.0249 1.63989Z" fill="white"/>
<path d="M25.7147 11.5938C25.5332 11.4121 25.2812 11.3076 25.0244 11.3076C24.7676 11.3076 24.5156 11.4121 24.334 11.5938C24.1523 11.7754 24.0479 12.0273 24.0479 12.2842C24.0479 12.542 24.1522 12.793 24.334 12.9746C24.5156 13.1572 24.7676 13.2607 25.0244 13.2607C25.2812 13.2607 25.5332 13.1572 25.7147 12.9746C25.8974 12.793 26.001 12.541 26.001 12.2842C26.001 12.0273 25.8974 11.7755 25.7147 11.5938Z" fill="white"/>
</svg>
