<svg width="50" height="50" viewBox="0 0 50 50" fill="none" xmlns="http://www.w3.org/2000/svg">
<g clip-path="url(#clip0_1_7320)">
<path d="M25.8603 1.72072C21.9977 1.72072 18.1899 2.65132 14.7774 4.41993L10.7873 0.42959C10.4344 0.0764948 9.9259 -0.0727225 9.43815 0.0334702C8.95041 0.139663 8.55008 0.486696 8.37574 0.954491L6.36082 6.36083L0.954574 8.37565C0.486779 8.55 0.139746 8.95033 0.0335536 9.43807C-0.0725413 9.92581 0.0765782 10.4342 0.429674 10.7872L4.41991 14.7775C2.65131 18.19 1.72071 21.9977 1.72071 25.8603C1.72071 39.1709 12.5496 49.9999 25.8603 49.9999C39.1709 49.9999 50 39.1709 50 25.8603C50 12.5496 39.1709 1.72072 25.8603 1.72072ZM25.8603 33.805C30.2411 33.805 33.8051 30.2411 33.8051 25.8603C33.8051 21.4795 30.2411 17.9156 25.8603 17.9156C24.1987 17.9156 22.6554 18.4291 21.3789 19.3046L17.6908 15.6165C19.933 13.8247 22.7735 12.7516 25.8603 12.7516C33.0884 12.7516 38.969 18.6321 38.969 25.8603C38.969 33.0884 33.0884 38.969 25.8603 38.969C18.6321 38.969 12.7516 33.0884 12.7516 25.8603C12.7516 22.7736 13.8247 19.933 15.6165 17.6908L19.3046 21.3789C18.4291 22.6554 17.9156 24.1987 17.9156 25.8603C17.9156 30.241 21.4796 33.805 25.8603 33.805ZM26.8975 24.8231L23.5102 21.4359C24.2116 21.0619 25.0115 20.849 25.8603 20.849C28.6235 20.849 30.8716 23.097 30.8716 25.8602C30.8716 28.6233 28.6235 30.8714 25.8603 30.8714C23.0971 30.8714 20.8491 28.6233 20.8491 25.8602C20.8491 25.0113 21.0619 24.2117 21.436 23.5102L24.8232 26.8974C25.1096 27.1838 25.485 27.3269 25.8603 27.3269C26.2357 27.3269 26.611 27.1837 26.8974 26.8974C27.4703 26.3246 27.4703 25.3959 26.8975 24.8231ZM10.3273 4.11817L15.263 9.05398L14.6285 12.5541L9.20465 7.13038L10.3273 4.11817ZM4.11825 10.3272L7.13047 9.20466L12.5543 14.6284L9.05406 15.263L4.11825 10.3272ZM25.8603 47.0664C14.1672 47.0664 4.6542 37.5534 4.6542 25.8603C4.6542 22.7822 5.32715 19.7442 6.61192 16.9694L7.52277 17.8803C7.80028 18.1579 8.1744 18.3099 8.55986 18.3099C8.64679 18.3099 8.73431 18.3022 8.82153 18.2865L12.0538 17.7006C10.6345 20.0928 9.81824 22.8828 9.81824 25.8603C9.81824 34.7059 17.0147 41.9025 25.8604 41.9025C34.706 41.9025 41.9026 34.7059 41.9026 25.8603C41.9026 17.0146 34.706 9.81805 25.8604 9.81805C22.8829 9.81805 20.0929 10.6344 17.7006 12.0537L18.2866 8.82145C18.3723 8.34818 18.2206 7.86278 17.8805 7.52269L16.9696 6.61184C19.7443 5.32706 22.7822 4.65412 25.8605 4.65412C37.5536 4.65412 47.0666 14.1672 47.0666 25.8602C47.0665 37.5534 37.5534 47.0664 25.8603 47.0664Z" fill="white"/>
</g>
<defs>
<clipPath id="clip0_1_7320">
<rect width="50" height="50" fill="white"/>
</clipPath>
</defs>
</svg>
