<svg width="47" height="56" viewBox="0 0 47 56" fill="none" xmlns="http://www.w3.org/2000/svg">
<path d="M23.7691 55.6762L7.818 40.5551C3.15245 36.4255 0.168175 30.4254 0.0315715 23.7003C-0.210113 10.9331 9.94062 0.383058 22.7078 0.141374C35.4751 -0.10031 46.0146 10.0504 46.2563 22.8176C46.3929 29.8265 43.3876 36.1628 38.5329 40.4921L23.7481 55.6657L23.7691 55.6762Z" fill="white"/>
<g style="mix-blend-mode:multiply">
<path d="M36.2924 34.2295C41.8766 29.3132 42.4181 20.8009 37.5019 15.2167C32.5856 9.63244 24.0733 9.09092 18.4891 14.0072C12.9048 18.9234 12.3633 27.4357 17.2796 33.02C22.1958 38.6042 30.7081 39.1457 36.2924 34.2295Z" fill="white"/>
<path d="M36.2291 34.2125C41.809 29.3001 42.3501 20.7944 37.4377 15.2146C32.5253 9.63468 24.0196 9.09359 18.4397 14.006C12.8598 18.9184 12.3187 27.4241 17.2311 33.004C22.1435 38.5838 30.6492 39.1249 36.2291 34.2125Z" fill="#FEFEFE"/>
<path d="M36.1859 34.1851C41.7605 29.2756 42.2997 20.7764 37.3902 15.2018C32.4806 9.62708 23.9815 9.08789 18.4068 13.9974C12.8322 18.907 12.293 27.4061 17.2025 32.9808C22.1121 38.5555 30.6112 39.0947 36.1859 34.1851Z" fill="#FDFDFD"/>
<path d="M36.135 34.1604C41.7001 29.2576 42.237 20.7716 37.3341 15.2065C32.4313 9.6414 23.9453 9.10453 18.3802 14.0074C12.8151 18.9102 12.2783 27.3962 17.1811 32.9613C22.0839 38.5264 30.5699 39.0632 36.135 34.1604Z" fill="#FCFCFC"/>
<path d="M36.0918 34.133C41.6516 29.233 42.1866 20.7536 37.2866 15.1937C32.3866 9.63382 23.9072 9.09885 18.3474 13.9988C12.7875 18.8988 12.2525 27.3782 17.1525 32.9381C22.0525 38.498 30.5319 39.033 36.0918 34.133Z" fill="#FBFBFB"/>
<path d="M36.0373 34.1161C41.592 29.219 42.125 20.7461 37.2279 15.1914C32.3308 9.63674 23.8579 9.10368 18.3033 14.0008C12.7486 18.8979 12.2155 27.3708 17.1126 32.9254C22.0097 38.4801 30.4826 39.0132 36.0373 34.1161Z" fill="#FAFAFA"/>
<path d="M35.9935 34.0887C41.543 29.1945 42.0742 20.7282 37.1799 15.1787C32.2857 9.62924 23.8194 9.09807 18.2699 13.9923C12.7204 18.8866 12.1892 27.3529 17.0835 32.9023C21.9777 38.4518 30.444 38.983 35.9935 34.0887Z" fill="#F9F9F9"/>
<path d="M35.9429 34.0641C41.4872 29.1727 42.0165 20.713 37.1251 15.1687C32.2337 9.62443 23.774 9.09515 18.2297 13.9865C12.6854 18.8779 12.1562 27.3377 17.0475 32.8819C21.9389 38.4262 30.3987 38.9555 35.9429 34.0641Z" fill="#F8F8F8"/>
<path d="M35.8997 34.0368C41.4387 29.1483 41.9661 20.6951 37.0776 15.156C32.1891 9.61694 23.7359 9.08955 18.1968 13.9781C12.6578 18.8666 12.1304 27.3198 17.0189 32.8588C21.9074 38.3979 30.3606 38.9253 35.8997 34.0368Z" fill="#F7F7F7"/>
<path d="M35.8432 34.0278C41.3779 29.1431 41.9049 20.6966 37.0202 15.1619C32.1356 9.62714 23.689 9.10016 18.1543 13.9848C12.6196 18.8695 12.0926 27.3161 16.9773 32.8508C21.8619 38.3855 30.3085 38.9125 35.8432 34.0278Z" fill="#F6F6F6"/>
<path d="M35.8 34.011C41.3295 29.1292 41.8546 20.6892 36.9728 15.1597C32.091 9.63016 23.651 9.10507 18.1214 13.9869C12.5919 18.8686 12.0668 27.3087 16.9486 32.8382C21.8304 38.3677 30.2704 38.8928 35.8 34.011Z" fill="#F5F5F5"/>
<path d="M35.7577 33.9759C41.2811 29.0961 41.8028 20.6625 36.923 15.139C32.0431 9.61557 23.6095 9.09384 18.0861 13.9737C12.5626 18.8536 12.0409 27.2872 16.9208 32.8106C21.8006 38.3341 30.2342 38.8558 35.7577 33.9759Z" fill="#F4F4F4"/>
<path d="M35.7144 33.9592C41.2326 29.0822 41.7525 20.6552 36.8755 15.1369C31.9985 9.61867 23.5715 9.09882 18.0532 13.9758C12.535 18.8528 12.0151 27.2798 16.8921 32.7981C21.7691 38.3163 30.1961 38.8362 35.7144 33.9592Z" fill="#F3F3F3"/>
<path d="M35.652 33.9494C41.1651 29.0753 41.6831 20.6549 36.809 15.1418C31.9348 9.62873 23.5144 9.11076 18.0013 13.9849C12.4883 18.859 11.9703 27.2795 16.8444 32.7925C21.7185 38.3056 30.139 38.8235 35.652 33.9494Z" fill="#F2F2F2"/>
<path d="M35.6014 33.9143C41.1093 29.0431 41.6254 20.6292 36.7542 15.1213C31.8829 9.61348 23.469 9.09738 17.9611 13.9686C12.4533 18.8398 11.9372 27.2538 16.8084 32.7616C21.6797 38.2695 30.0936 38.7856 35.6014 33.9143Z" fill="#F1F1F1"/>
<path d="M35.5581 33.8976C41.0608 29.0293 41.575 20.6219 36.7067 15.1193C31.8383 9.61659 23.431 9.10238 17.9283 13.9707C12.4256 18.8391 11.9114 27.2464 16.7798 32.7491C21.6481 38.2518 30.0555 38.766 35.5581 33.8976Z" fill="#F0F0F0"/>
<path d="M35.5144 33.881C41.0118 29.0155 41.5242 20.6147 36.6587 15.1172C31.7932 9.61978 23.3924 9.10744 17.895 13.9729C12.3975 18.8384 11.8852 27.2392 16.7506 32.7366C21.6161 38.2341 30.0169 38.7465 35.5144 33.881Z" fill="#EFEFEF"/>
<path d="M35.4622 33.8566C40.9537 28.993 41.4627 20.5987 36.5992 15.1073C31.7356 9.61583 23.3413 9.10682 17.8498 13.9703C12.3584 18.8339 11.8494 27.2282 16.7129 32.7197C21.5765 38.2111 29.9708 38.7201 35.4622 33.8566Z" fill="#EEEEEE"/>
<path d="M35.418 33.8294C40.9042 28.9687 41.4113 20.5809 36.5507 15.0947C31.6901 9.60847 23.3023 9.10133 17.816 13.962C12.3298 18.8226 11.8227 27.2104 16.6833 32.6966C21.5439 38.1829 29.9317 38.69 35.418 33.8294Z" fill="#EDEDED"/>
<path d="M35.3747 33.8128C40.8557 28.955 41.361 20.5738 36.5032 15.0927C31.6455 9.61168 23.2642 9.1064 17.7832 13.9642C12.3021 18.8219 11.7969 27.2032 16.6546 32.6842C21.5124 38.1652 29.8936 38.6705 35.3747 33.8128Z" fill="#ECECEC"/>
<path d="M35.3259 33.7805C40.8009 28.9247 41.3029 20.55 36.4471 15.075C31.5913 9.59995 23.2165 9.098 17.7415 13.9538C12.2665 18.8096 11.7645 27.1844 16.6203 32.6594C21.4762 38.1344 29.8509 38.6364 35.3259 33.7805Z" fill="#EBEBEB"/>
<path d="M35.2719 33.764C40.7417 28.911 41.2418 20.5428 36.3889 15.073C31.536 9.60318 23.1677 9.10308 17.6979 13.956C12.2281 18.8089 11.728 27.1771 16.5809 32.647C21.4338 38.1168 29.8021 38.6169 35.2719 33.764Z" fill="#EAEAEA"/>
<path d="M35.2295 33.7397C40.6933 28.8887 41.1901 20.527 36.3391 15.0632C31.4881 9.59941 23.1264 9.10263 17.6626 13.9536C12.1988 18.8046 11.702 27.1663 16.553 32.6301C21.404 38.0939 29.7657 38.5907 35.2295 33.7397Z" fill="#E9E9E9"/>
<path d="M35.1881 33.7154C40.6458 28.8664 41.1393 20.5111 36.2903 15.0533C31.4413 9.59559 23.086 9.10212 17.6282 13.9511C12.1705 18.8002 11.677 27.1555 16.526 32.6132C21.3751 38.071 29.7303 38.5644 35.1881 33.7154Z" fill="#E8E8E8"/>
<path d="M35.1448 33.6989C40.5973 28.8528 41.0889 20.504 36.2428 15.0515C31.3967 9.59891 23.048 9.10729 17.5954 13.9534C12.1428 18.7995 11.6512 27.1483 16.4973 32.6008C21.3435 38.0534 29.6922 38.545 35.1448 33.6989Z" fill="#E7E7E7"/>
<path d="M35.0921 33.6747C40.5386 28.8305 41.027 20.4882 36.1828 15.0417C31.3386 9.59517 22.9964 9.10686 17.5498 13.951C12.1033 18.7952 11.615 27.1375 16.4591 32.584C21.3033 38.0305 29.6456 38.5188 35.0921 33.6747Z" fill="#E6E6E6"/>
<path d="M35.0502 33.6505C40.4907 28.8083 40.9757 20.4725 36.1335 15.032C31.2913 9.59146 22.9555 9.10644 17.515 13.9487C12.0745 18.7909 11.5894 27.1267 16.4317 32.5672C21.2739 38.0077 29.6097 38.4927 35.0502 33.6505Z" fill="#E5E5E5"/>
<path d="M34.9936 33.6255C40.4281 28.7853 40.9098 20.4559 36.0695 15.0214C31.2293 9.58696 22.9 9.10524 17.4655 13.9455C12.031 18.7857 11.5493 27.1151 16.3895 32.5495C21.2298 37.984 29.5591 38.4658 34.9936 33.6255Z" fill="#E4E4E4"/>
<path d="M34.9414 33.6013C40.3699 28.763 40.8483 20.4402 36.01 15.0117C31.1717 9.58328 22.8489 9.10484 17.4204 13.9431C11.9919 18.7814 11.5135 27.1043 16.3518 32.5327C21.1901 37.9612 29.5129 38.4396 34.9414 33.6013Z" fill="#E3E3E3"/>
<path d="M34.8923 33.58C40.3104 28.7475 40.7851 20.4378 35.9527 15.0197C31.1202 9.60155 22.8105 9.12678 17.3924 13.9592C11.9743 18.7917 11.4995 27.1014 16.332 32.5195C21.1644 37.9376 29.4741 38.4124 34.8923 33.58Z" fill="#E2E2E2"/>
<path d="M34.8503 33.5559C40.2624 28.7254 40.7339 20.4222 35.9034 15.0101C31.0729 9.59796 22.7697 9.12647 17.3576 13.957C11.9455 18.7874 11.474 27.0907 16.3045 32.5028C21.1349 37.9149 29.4382 38.3864 34.8503 33.5559Z" fill="#E1E1E1"/>
<path d="M34.8102 33.5242C40.2154 28.6947 40.6822 20.3979 35.8528 14.9927C31.0233 9.58742 22.7265 9.12065 17.3212 13.9501C11.916 18.7795 11.4492 27.0764 16.2787 32.4816C21.1081 37.8869 29.405 38.3536 34.8102 33.5242Z" fill="#E0E0E0"/>
<path d="M34.758 33.5108C40.1572 28.6833 40.6207 20.3929 35.7932 14.9937C30.9658 9.59448 22.6754 9.13098 17.2762 13.9584C11.8769 18.7859 11.4134 27.0763 16.2409 32.4755C21.0684 37.8747 29.3587 38.3382 34.758 33.5108Z" fill="#DFDFDF"/>
<path d="M34.7105 33.4713C40.1029 28.6449 40.5617 20.3609 35.7353 14.9685C30.9088 9.57617 22.6249 9.11737 17.2325 13.9438C11.8401 18.7702 11.3813 27.0542 16.2078 32.4466C21.0342 37.8389 29.3181 38.2977 34.7105 33.4713Z" fill="#DFDFDF"/>
<path d="M34.6709 33.4502C40.0564 28.6249 40.5105 20.3473 35.6851 14.9618C30.8598 9.57625 22.5822 9.12215 17.1967 13.9475C11.8111 18.7729 11.357 27.0505 16.1824 32.436C21.0078 37.8215 29.2854 38.2756 34.6709 33.4502Z" fill="#DEDEDE"/>
<path d="M34.6307 33.4293C40.0094 28.605 40.4588 20.3338 35.6345 14.9551C30.8102 9.57647 22.539 9.12707 17.1603 13.9514C11.7817 18.7757 11.3323 27.0469 16.1566 32.4255C20.9809 37.8042 29.2521 38.2536 34.6307 33.4293Z" fill="#DDDDDD"/>
<path d="M34.5798 33.3978C39.9517 28.5746 40.3964 20.3098 35.5731 14.938C30.7499 9.56616 22.4851 9.12145 17.1133 13.9447C11.7414 18.768 11.2967 27.0327 16.12 32.4045C20.9432 37.7764 29.208 38.2211 34.5798 33.3978Z" fill="#DCDCDC"/>
<path d="M34.5401 33.3769C39.9051 28.5547 40.3451 20.2963 35.523 14.9314C30.7008 9.56637 22.4424 9.12634 17.0775 13.9485C11.7125 18.7707 11.2724 27.0291 16.0946 32.394C20.9168 37.759 29.1751 38.1991 34.5401 33.3769Z" fill="#DBDBDB"/>
<path d="M34.4999 33.3561C39.8581 28.5349 40.2934 20.283 35.4723 14.9249C30.6512 9.56673 22.3993 9.13138 17.0411 13.9525C11.683 18.7736 11.2476 27.0255 16.0688 32.3837C20.8899 37.7418 29.1418 38.1772 34.4999 33.3561Z" fill="#DADADA"/>
<path d="M34.4508 33.3276C39.8013 28.5066 40.2306 20.2611 35.4096 14.9106C30.5886 9.56012 22.343 9.13087 16.9926 13.9518C11.6421 18.7728 11.2129 27.0184 16.0338 32.3689C20.8548 37.7193 29.1004 38.1486 34.4508 33.3276Z" fill="#D9D9D9"/>
<path d="M34.4056 33.302C39.7484 28.4812 40.1716 20.2419 35.3508 14.8991C30.5299 9.55634 22.2907 9.13319 16.9479 13.954C11.6051 18.7748 11.182 27.0141 16.0028 32.3568C20.8236 37.6996 29.0628 38.1228 34.4056 33.302Z" fill="#D8D8D8"/>
<path d="M34.3672 33.2737C39.7023 28.453 40.1194 20.2202 35.2987 14.885C30.4781 9.54991 22.2452 9.13285 16.9101 13.9535C11.575 18.7742 11.1579 27.007 15.9786 32.3422C20.7992 37.6773 29.0321 38.0943 34.3672 33.2737Z" fill="#D7D7D7"/>
<path d="M34.3233 33.2554C39.6499 28.434 40.0595 20.2074 35.238 14.8808C30.4166 9.55418 22.19 9.14464 16.8634 13.966C11.5368 18.7875 11.1273 27.0141 15.9487 32.3407C20.7701 37.6673 28.9967 38.0768 34.3233 33.2554Z" fill="#D6D6D6"/>
<path d="M34.2755 33.2196C39.5936 28.3975 39.9956 20.1772 35.1734 14.8591C30.3513 9.54097 22.131 9.13893 16.8129 13.9611C11.4948 18.7832 11.0927 27.0036 15.9149 32.3217C20.737 37.6398 28.9573 38.0418 34.2755 33.2196Z" fill="#D5D5D5"/>
<path d="M34.2393 33.1945C39.5489 28.3716 39.9434 20.1576 35.1205 14.848C30.2976 9.53843 22.0836 9.14388 16.774 13.9668C11.4644 18.7897 11.0699 27.0037 15.8928 32.3133C20.7157 37.6229 28.9297 38.0174 34.2393 33.1945Z" fill="#D4D4D4"/>
<path d="M34.2026 33.1799C39.5037 28.3563 39.8907 20.1486 35.0671 14.8475C30.2435 9.54642 22.0358 9.15936 16.7347 13.983C11.4336 18.8066 11.0465 27.0143 15.8702 32.3154C20.6938 37.6165 28.9015 38.0036 34.2026 33.1799Z" fill="#D3D3D3"/>
<path d="M34.1514 33.1321C39.4423 28.3059 39.8191 20.1044 34.9929 14.8134C30.1667 9.52254 21.9652 9.14581 16.6743 13.972C11.3834 18.7982 11.0066 26.9997 15.8328 32.2906C20.659 37.5815 28.8605 37.9582 34.1514 33.1321Z" fill="#D2D2D2"/>
<path d="M34.1165 33.1101C39.398 28.2823 39.7659 20.087 34.9381 14.8054C30.1103 9.52386 21.915 9.15602 16.6334 13.9838C11.3519 18.8116 10.984 27.0069 15.8118 32.2885C20.6396 37.57 28.8349 37.9379 34.1165 33.1101Z" fill="#D1D1D1"/>
<path d="M34.0833 33.0806C39.3547 28.2503 39.7122 20.0612 34.8819 14.7899C30.0515 9.51848 21.8625 9.16093 16.5911 13.9913C11.3197 18.8216 10.9621 27.0107 15.7925 32.2821C20.6228 37.5534 28.8119 37.911 34.0833 33.0806Z" fill="#D0D0D0"/>
<path d="M34.0411 33.0438C39.3014 28.21 39.6472 20.0271 34.8135 14.7668C29.9797 9.5064 21.7968 9.16057 16.5364 13.9943C11.2761 18.8281 10.9303 27.011 15.764 32.2714C20.5978 37.5317 28.7807 37.8776 34.0411 33.0438Z" fill="#CFCFCF"/>
<path d="M34.0113 33.01C39.2598 28.1719 39.5925 19.9951 34.7544 14.7467C29.9163 9.49816 21.7395 9.16545 16.491 14.0035C11.2425 18.8416 10.9098 27.0184 15.7479 32.2669C20.586 37.5154 28.7628 37.8481 34.0113 33.01Z" fill="#CECECE"/>
<path d="M33.981 32.9869C39.2176 28.1445 39.5372 19.9738 34.6948 14.7372C29.8524 9.50056 21.6818 9.18096 16.4451 14.0233C11.2085 18.8657 10.8889 27.0364 15.7313 32.273C20.5737 37.5096 28.7443 37.8292 33.981 32.9869Z" fill="#CDCDCD"/>
<path d="M33.9365 32.9411C39.1596 28.0926 39.4632 19.928 34.6147 14.7049C29.7663 9.48183 21.6017 9.17817 16.3786 14.0267C11.1555 18.8751 10.8519 27.0397 15.7003 32.2628C20.5488 37.4859 28.7134 37.7895 33.9365 32.9411Z" fill="#CCCCCC"/>
<path d="M33.9112 32.8957C39.1199 28.0402 39.4062 19.8816 34.5508 14.673C29.6953 9.46431 21.5367 9.17798 16.3281 14.0334C11.1194 18.8889 10.8331 27.0475 15.6885 32.2561C20.544 37.4648 28.7026 37.7511 33.9112 32.8957Z" fill="#CBCBCB"/>
<path d="M33.8871 32.8638C39.0805 28.0005 39.3481 19.848 34.4848 14.6546C29.6215 9.46121 21.4689 9.19361 16.2755 14.0569C11.0821 18.9202 10.8145 27.0727 15.6778 32.2661C20.5411 37.4595 28.6937 37.7271 33.8871 32.8638Z" fill="#CACACA"/>
<path d="M33.8588 32.8096C39.031 27.9407 39.2768 19.8008 34.4079 14.6286C29.539 9.45637 21.3991 9.21052 16.2269 14.0794C11.0547 18.9484 10.8089 27.0883 15.6778 32.2605C20.5467 37.4327 28.6866 37.6785 33.8588 32.8096Z" fill="#C9C9C9"/>
<path d="M33.8231 32.7764C38.9766 27.8962 39.1981 19.7622 34.3178 14.6087C29.4376 9.45517 21.3036 9.23365 16.1501 14.1139C10.9966 18.9942 10.7751 27.1281 15.6553 32.2816C20.5356 37.4351 28.6695 37.6567 33.8231 32.7764Z" fill="#C8C8C8"/>
<path d="M34.0309 32.5111C39.0455 27.4965 39.0455 19.3662 34.0309 14.3515C29.0163 9.3369 20.8859 9.3369 15.8713 14.3515C10.8567 19.3662 10.8567 27.4965 15.8713 32.5111C20.8859 37.5258 29.0163 37.5258 34.0309 32.5111Z" fill="#C7C7C7"/>
<path d="M33.9759 32.4944C38.9864 27.4839 38.9864 19.3602 33.9759 14.3497C28.9654 9.33915 20.8417 9.33915 15.8312 14.3497C10.8206 19.3602 10.8206 27.4839 15.8312 32.4944C20.8417 37.505 28.9654 37.505 33.9759 32.4944Z" fill="#C6C6C6"/>
<path d="M33.9238 32.4598C38.9303 27.4534 38.9303 19.3364 33.9238 14.33C28.9174 9.32353 20.8004 9.32353 15.7939 14.33C10.7875 19.3364 10.7875 27.4534 15.7939 32.4598C20.8004 37.4663 28.9174 37.4663 33.9238 32.4598Z" fill="#C5C5C5"/>
<path d="M25.0617 36.1943C32.1336 36.0577 37.7658 30.2153 37.6292 23.1434C37.4926 16.0715 31.6502 10.4392 24.5783 10.5758C17.5064 10.7124 11.8741 16.5549 12.0107 23.6267C12.1473 30.6986 17.9898 36.3309 25.0617 36.1943Z" fill="#C4C4C4"/>
<path d="M25.0194 36.1733C32.0913 36.0367 37.7131 30.2047 37.5765 23.1329C37.4399 16.061 31.6079 10.4392 24.5361 10.5758C17.4642 10.7124 11.8424 16.5443 11.979 23.6162C12.1156 30.6881 17.9475 36.3099 25.0194 36.1733Z" fill="#C3C3C3"/>
<path d="M24.9777 36.1523C32.039 36.0157 37.6608 30.1837 37.5242 23.1224C37.3876 16.061 31.5557 10.4392 24.4943 10.5758C17.4329 10.7124 11.8111 16.5443 11.9478 23.6057C12.0844 30.6671 17.9163 36.2889 24.9777 36.1523Z" fill="#C2C2C2"/>
<path d="M24.9359 36.1313C31.9973 35.9947 37.6086 30.1732 37.472 23.1119C37.3354 16.0505 31.5139 10.4392 24.4526 10.5758C17.3912 10.7124 11.7799 16.5338 11.9165 23.5952C12.0531 30.6566 17.8745 36.2679 24.9359 36.1313Z" fill="#C1C1C1"/>
<path d="M24.8932 36.1103C31.9441 35.9736 37.5553 30.1522 37.4187 23.1013C37.2821 16.0505 31.4607 10.4392 24.4098 10.5758C17.3589 10.7124 11.7477 16.5338 11.8843 23.5847C12.0209 30.6356 17.8423 36.2469 24.8932 36.1103Z" fill="#C0C0C0"/>
<path d="M24.8514 36.0787C31.8918 35.9421 37.5031 30.1207 37.3665 23.0803C37.2299 16.04 31.4189 10.4287 24.3681 10.5653C17.3277 10.7019 11.7164 16.5128 11.853 23.5637C11.9896 30.6041 17.8111 36.2153 24.8514 36.0787Z" fill="#BFBFBF"/>
</g>
<g filter="url(#filter0_d_369_716)">
<g filter="url(#filter1_d_369_716)">
<path d="M23.2121 36.415C30.6518 36.2784 36.5573 30.1313 36.4207 22.6916C36.2841 15.2519 30.1369 9.34643 22.6972 9.48304C15.2575 9.61964 9.35205 15.7668 9.48865 23.2065C9.62526 30.6462 15.7724 36.5516 23.2121 36.415Z" fill="white"/>
</g>
</g>
<g filter="url(#filter2_d_369_716)">
<path d="M23.2125 36.415C19.7869 36.4781 16.645 35.2592 14.2281 33.1996C11.6116 30.7933 9.95137 27.3677 9.87781 23.5427C9.74121 16.1031 15.6467 9.9664 23.0864 9.81929C26.512 9.75624 29.6539 10.9752 32.0707 13.0347C34.6872 15.4411 36.3475 18.8667 36.421 22.6916C36.5576 30.1313 30.6521 36.2679 23.2125 36.415Z" fill="url(#paint0_radial_369_716)"/>
</g>
<g filter="url(#filter3_d_369_716)">
<path d="M17.2749 35.1645C18.9562 35.8791 20.8161 36.2574 22.7706 36.2153C30.2103 36.0787 36.1157 29.9316 35.9791 22.4919C35.8951 18.026 33.6464 14.1065 30.2418 11.7212C30.8828 12.11 31.4922 12.5408 32.0597 13.0242C34.6762 15.4305 36.3364 18.8561 36.41 22.681C36.5466 30.1207 30.6411 36.2574 23.2014 36.4045C21.0788 36.4465 19.0718 35.9947 17.2749 35.154V35.1645Z" fill="#E7ECEE"/>
</g>
<defs>
<filter id="filter0_d_369_716" x="8.33045" y="8.32483" width="33.8718" height="33.8719" filterUnits="userSpaceOnUse" color-interpolation-filters="sRGB">
<feFlood flood-opacity="0" result="BackgroundImageFix"/>
<feColorMatrix in="SourceAlpha" type="matrix" values="0 0 0 0 0 0 0 0 0 0 0 0 0 0 0 0 0 0 127 0" result="hardAlpha"/>
<feOffset dx="2.31176" dy="2.31176"/>
<feGaussianBlur stdDeviation="1.73382"/>
<feColorMatrix type="matrix" values="0 0 0 0 0 0 0 0 0 0 0 0 0 0 0 0 0 0 0.2 0"/>
<feBlend mode="normal" in2="BackgroundImageFix" result="effect1_dropShadow_369_716"/>
<feBlend mode="normal" in="SourceGraphic" in2="effect1_dropShadow_369_716" result="shape"/>
</filter>
<filter id="filter1_d_369_716" x="8.33045" y="9.13395" width="29.2483" height="29.2484" filterUnits="userSpaceOnUse" color-interpolation-filters="sRGB">
<feFlood flood-opacity="0" result="BackgroundImageFix"/>
<feColorMatrix in="SourceAlpha" type="matrix" values="0 0 0 0 0 0 0 0 0 0 0 0 0 0 0 0 0 0 127 0" result="hardAlpha"/>
<feOffset dy="0.809116"/>
<feGaussianBlur stdDeviation="0.57794"/>
<feColorMatrix type="matrix" values="0 0 0 0 0 0 0 0 0 0 0 0 0 0 0 0 0 0 0.1 0"/>
<feBlend mode="normal" in2="BackgroundImageFix" result="effect1_dropShadow_369_716"/>
<feBlend mode="normal" in="SourceGraphic" in2="effect1_dropShadow_369_716" result="shape"/>
</filter>
<filter id="filter2_d_369_716" x="8.71961" y="9.47019" width="28.8596" height="28.9122" filterUnits="userSpaceOnUse" color-interpolation-filters="sRGB">
<feFlood flood-opacity="0" result="BackgroundImageFix"/>
<feColorMatrix in="SourceAlpha" type="matrix" values="0 0 0 0 0 0 0 0 0 0 0 0 0 0 0 0 0 0 127 0" result="hardAlpha"/>
<feOffset dy="0.809116"/>
<feGaussianBlur stdDeviation="0.57794"/>
<feColorMatrix type="matrix" values="0 0 0 0 0 0 0 0 0 0 0 0 0 0 0 0 0 0 0.1 0"/>
<feBlend mode="normal" in2="BackgroundImageFix" result="effect1_dropShadow_369_716"/>
<feBlend mode="normal" in="SourceGraphic" in2="effect1_dropShadow_369_716" result="shape"/>
</filter>
<filter id="filter3_d_369_716" x="16.119" y="11.3744" width="21.449" height="26.9977" filterUnits="userSpaceOnUse" color-interpolation-filters="sRGB">
<feFlood flood-opacity="0" result="BackgroundImageFix"/>
<feColorMatrix in="SourceAlpha" type="matrix" values="0 0 0 0 0 0 0 0 0 0 0 0 0 0 0 0 0 0 127 0" result="hardAlpha"/>
<feOffset dy="0.809116"/>
<feGaussianBlur stdDeviation="0.57794"/>
<feColorMatrix type="matrix" values="0 0 0 0 0 0 0 0 0 0 0 0 0 0 0 0 0 0 0.1 0"/>
<feBlend mode="normal" in2="BackgroundImageFix" result="effect1_dropShadow_369_716"/>
<feBlend mode="normal" in="SourceGraphic" in2="effect1_dropShadow_369_716" result="shape"/>
</filter>
<radialGradient id="paint0_radial_369_716" cx="0" cy="0" r="1" gradientUnits="userSpaceOnUse" gradientTransform="translate(10.1536 12.0772) rotate(88.91) scale(38.9216 38.9216)">
<stop stop-color="#F2F2F3"/>
<stop offset="0.4" stop-color="#F5F5F6"/>
<stop offset="0.72" stop-color="white"/>
</radialGradient>
</defs>
</svg>
