<svg width="611" height="479" viewBox="0 0 611 479" fill="none" xmlns="http://www.w3.org/2000/svg">
<g clip-path="url(#clip0_157_11363)">
<rect y="0.28949" width="610.515" height="476.012" fill="black"/>
<path d="M357.543 488.023C358.091 487.85 363.898 487.908 364.475 486.492C365.053 485.076 360.171 482.591 360.749 482.215C361.298 481.84 361.587 478.459 362.482 478.343C363.378 478.228 371.553 477.505 372.015 477.245C372.477 476.985 374.095 474.067 375.424 473.836C376.03 473.72 376.983 474.327 377.85 474.991C379.381 473.518 379.988 470.513 380.305 468.085C380.71 465.109 379.67 464.242 381.345 462.422C383.021 460.601 384.754 460.313 384.35 458.059C383.945 455.834 381.663 458.348 379.814 457.481C377.966 456.614 376.319 457.539 371.553 458.752C366.786 459.937 364.533 462.075 364.706 465.196C364.88 468.317 363.06 467.132 363.118 469.819C363.175 472.535 359.362 473.084 359.565 474.674C359.767 476.263 356.56 475.02 355.636 474.587C354.712 474.153 344.746 478.141 343.359 478.545C341.973 478.921 339.488 476.321 337.524 476.667C335.56 477.014 334.809 474.298 334.635 472.044C334.462 469.79 330.822 468.201 329.262 466.323C327.702 464.473 327.587 459.937 327.529 457.018C327.5 454.1 327.269 449.159 329.609 443.149C329.927 442.34 330.071 441.646 330.129 441.039C329.349 440.664 328.598 440.433 327.991 440.548C326.027 440.924 321.723 438.93 320.856 439.046C319.99 439.161 320.192 437.167 319.499 436.214C318.805 435.26 319.354 433.238 318.401 432.66C317.448 432.082 314.617 429.828 313.75 426.707C312.883 423.587 306.991 422.777 304.824 422.951C302.658 423.124 301.271 427.69 300.664 428.007C300.058 428.325 296.014 426.332 294.829 425.927C293.645 425.523 293.067 424.453 293.125 423.066C293.183 421.679 290.727 419.83 290.005 419.715C289.283 419.57 284.401 415.554 284.401 415.554C281.743 415.929 279.115 416.305 276.486 416.681C275.908 417.461 275.302 418.212 274.724 418.992C269.929 419.715 265.134 420.466 260.367 421.217C260.367 421.217 249.564 418.934 247.57 418.79C245.577 418.645 242.111 416.767 242.111 416.767C238.269 417.836 234.427 418.934 230.614 420.032C231.163 421.159 231.914 422.373 233.098 423.644C235.293 426.072 236.767 430.781 236.94 432.457C237.084 434.133 240.262 435.058 242.948 436.358C245.664 437.659 245.519 441.415 245.173 442.455C244.797 443.467 241.417 442.369 241.186 443.38C240.926 444.391 245.462 447.454 247.253 446.963C249.044 446.472 249.881 447.425 252.597 449.39C255.312 451.355 254.994 454.187 253.868 455.198C252.741 456.238 256.005 457.567 259.53 459.301C263.025 461.035 264.411 463.635 264.729 464.791C265.018 465.918 266.636 464.618 267.242 462.942C267.849 461.237 266.173 461.064 266.231 459.214C266.289 457.394 263.371 458.116 262.043 458.088C260.714 458.088 262.245 455.054 260.945 453.956C259.645 452.858 258.518 449.795 257.912 447.541C257.305 445.258 253.925 443.409 252.568 441.039C251.21 438.67 249.737 436.85 248.755 436.358C247.773 435.867 250.257 434.538 249.39 433.7C248.524 432.862 247.195 433.18 245.577 432.66C243.931 432.168 242.891 431.042 242.948 429.308C243.006 427.574 242.053 423.673 241.562 422.344C241.071 421.015 242.833 420.957 243.353 421.535C243.873 422.084 244.306 422.662 245.086 422.113C245.866 421.564 247.195 421.679 247.715 422.777C248.235 423.875 250.141 422.517 251.008 422.922C251.874 423.326 248.957 424.396 251.672 428.932C254.388 433.44 252.481 430.955 252.366 434.278C252.25 437.63 254.07 435.838 254.648 435.231C255.225 434.596 256.727 435.983 258.114 437.514C259.501 439.017 262.303 438.728 262.245 439.681C262.216 440.664 262.707 442.513 264.585 442.571C266.462 442.629 266.751 444.622 267.964 444.651C269.178 444.68 269.38 445.952 268.658 447.454C267.936 448.957 268.571 450.055 271.691 450.777C274.811 451.528 273.337 451.933 275.735 453.869C278.133 455.776 284.921 462.162 286.336 464.011C287.752 465.86 288.156 467.536 288.676 468.952C289.196 470.397 287.492 471.379 288.359 472.535C289.225 473.72 286.654 473.518 286.741 474.471C286.828 475.425 288.185 480.077 290.67 479.961C293.154 479.846 295.927 482.389 297.949 483.747C299.971 485.105 303.033 484.382 306.095 485.047C309.157 485.74 311.728 487.994 316.148 488.601C320.567 489.237 324.9 490.537 327.731 491.895C330.562 493.282 334.144 492.069 338.188 490.075C342.233 488.081 345.323 489.641 347.605 490.248C348.732 490.537 350.927 492.069 353.152 493.687C355.232 490.71 357.225 487.994 357.485 487.908L357.543 488.023Z" fill="url(#paint0_linear_157_11363)" stroke="url(#paint1_linear_157_11363)" stroke-width="0.294224" stroke-miterlimit="10"/>
<path d="M372.709 490.68C373.865 489.698 374.847 488.542 375.569 487.646C373.72 488.773 373.2 487.964 373.46 486.722C372.593 486.924 371.698 487.126 370.831 487.329C370.976 484.034 371.12 480.711 371.265 477.417C369.156 477.735 363.234 478.255 362.483 478.342C361.588 478.458 361.299 481.838 360.75 482.214C360.172 482.59 365.054 485.075 364.476 486.491C363.899 487.906 358.092 487.849 357.543 488.022C357.283 488.109 355.29 490.825 353.21 493.801C355.493 495.448 357.775 497.182 358.872 497.702C361.068 498.742 364.679 496.922 366.152 498.049C366.21 498.078 366.267 498.106 366.325 498.135C367.914 496.575 369.56 495.015 370.08 494.812C371.207 494.379 370.34 492.703 372.709 490.652V490.68Z" fill="url(#paint2_linear_157_11363)" stroke="url(#paint3_linear_157_11363)" stroke-width="0.294224" stroke-miterlimit="10"/>
<path d="M372.012 477.273C372.012 477.273 371.665 477.36 371.261 477.418C371.117 480.741 370.972 484.035 370.828 487.329C371.694 487.127 372.59 486.925 373.456 486.722C373.659 485.855 374.265 484.786 375.132 484.064C377.241 482.301 374.207 476.58 376.663 475.771C377.125 475.626 377.501 475.337 377.847 474.991C376.981 474.326 376.027 473.719 375.421 473.835C374.063 474.095 372.445 477.013 372.012 477.245V477.273Z" fill="url(#paint4_linear_157_11363)" stroke="url(#paint5_linear_157_11363)" stroke-width="0.294224" stroke-miterlimit="10"/>
<path d="M790.35 14.6002C784.717 14.7158 780.124 15.5538 779.633 18.7034C779.142 21.853 772.209 18.2988 769.09 19.4546C765.97 20.6105 767.732 16.9696 764.583 18.241C761.463 19.5413 757.91 22.5464 754.155 23.8756C750.4 25.2048 747.453 28.3255 745.142 28.6723C742.831 28.9901 750.429 22.8932 754.271 19.8881C758.113 16.883 756.35 13.5889 751.469 14.0801C746.587 14.6002 747.482 16.9696 744.68 17.5187C741.907 18.0677 728.388 23.7312 727.897 22.1997C727.406 20.6394 739.047 17.5764 738.961 16.5073C738.874 15.4382 724.575 15.7849 718.133 16.7674C711.691 17.7209 700.137 21.1017 700.108 19.6569C700.108 18.2121 713.54 15.6116 720.271 14.7736C727.175 13.9067 739.278 14.4557 744.565 12.6353C749.851 10.786 757.621 10.4393 759.066 9.1101C760.51 7.75202 753.375 6.19167 749.707 6.42283C746.067 6.654 742.456 6.42283 742.86 4.97806C743.265 3.5333 737.401 3.38882 736.881 2.34859C736.361 1.30835 724.95 2.52196 722.611 1.42394C720.3 0.325911 713.222 -0.020833 707.156 0.58597C701.061 1.16388 688.669 1.56841 685.78 1.91516C682.891 2.2619 680.985 3.18655 678.414 3.18655C675.843 3.18655 671.828 4.08231 673.214 5.32481C675.727 7.57865 668.766 8.85004 669.401 7.05853C670.037 5.23812 663.768 4.68911 661.659 6.10498C659.233 7.72312 649.383 5.15144 647.707 6.79847C646.003 8.41661 634.072 8.58999 630.519 9.25458C626.966 9.91917 635.69 11.4795 635.257 12.722C634.824 13.9356 623.847 13.3577 625.869 15.4093C627.891 17.4609 635.026 18.6456 638.232 21.2462C641.439 23.8756 635.372 22.4887 631.617 20.6394C627.891 18.79 622.778 19.8014 620.582 17.8654C618.387 15.9294 609.461 14.8892 607.006 16.2473C604.088 17.8654 612.725 20.0037 612.552 21.6218C612.35 23.211 606.486 21.6218 605.359 22.2864C604.203 22.951 599.466 18.5011 596.433 18.7034C593.371 18.9056 595.682 20.9283 595.306 23.9912C594.931 27.0541 588.72 29.308 590.684 27.1119C592.62 24.887 592.1 19.5702 589.009 18.8189C585.947 18.0388 577.31 21.6507 573.035 21.8241C568.788 21.9974 562.982 23.5 566.42 24.9737C569.857 26.4473 565.9 27.6898 562.953 26.0717C560.007 24.4246 549.203 27.0541 551.167 28.1521C553.132 29.2502 553.42 32.7754 551.832 34.3935C550.243 35.9828 546.228 33.3244 542.039 33.9023C537.879 34.4224 516.272 44.1313 517.196 46.2406C518.121 48.2922 527.104 45.8072 529.704 46.8475C532.304 47.8877 528 52.8866 524.36 55.0826C520.721 57.2787 508.357 56.5563 507.75 58.8968C507.144 61.2084 487.558 63.3756 487.067 67.132C486.865 68.5479 487.616 69.9059 489.725 70.0793C492.411 70.3105 495.907 69.2414 498.073 71.3507C500.24 73.4601 507.144 72.9689 512.112 71.004C517.081 69.0391 520.403 70.5417 519.941 72.8822C519.507 75.2227 509.252 72.8822 505.815 74.9048C502.377 76.8697 492.527 76.3785 492.758 78.17C492.989 79.9615 497.987 79.0947 501.886 79.3836C505.815 79.6726 501.944 81.4352 501.597 82.9089C501.251 84.3536 503.619 83.8913 507.404 85.2205C511.217 86.5497 517.745 87.012 515.81 85.2494C513.874 83.4868 520.172 83.1689 521.125 84.2669C522.078 85.3361 525.342 82.2154 528.202 82.6199C531.062 83.0244 532.506 79.9326 534.673 81.0307C536.839 82.1287 547.585 82.042 551.109 83.429C554.634 84.816 559.718 84.816 558.967 87.3299C558.245 89.8438 561.595 91.4041 565.64 92.6755C569.655 93.918 570.088 97.2988 569.713 99.5526C569.337 101.806 573.843 103.049 572.948 104.176C572.052 105.303 572.544 106.69 575.143 108.626C577.743 110.533 570.406 112.671 571.937 114.434C573.468 116.167 568.904 120.097 573.843 120.386C578.783 120.675 578.35 117.121 582.105 116.832C585.86 116.543 581.701 119.664 583.549 121.253C585.427 122.842 589.673 122.12 593.371 124.663C597.04 127.205 594.411 128.737 591.002 126.714C587.594 124.692 577.05 126.021 576.992 126.83C576.905 127.639 588.027 132.436 590.771 131.424C593.515 130.413 596.751 134.343 595.075 135.816C593.4 137.29 593.891 140.613 593.429 142.26C592.967 143.907 589.182 142.578 586.64 143.04C584.098 143.502 582.307 144.312 582.105 146.623C581.903 148.935 577.83 150.871 577.136 153.789C576.414 156.708 580.054 156.303 582.018 157.372C583.983 158.441 578.061 159.713 577.599 161.793C577.108 163.874 582.509 167.168 584.474 167.977C586.467 168.786 584.185 173.64 584.82 175.923C585.427 178.235 588.345 175.114 587.796 178.177C587.247 181.269 590.107 180.893 590.136 182.713C590.136 184.505 595.104 183.869 593.978 186.441C592.851 189.013 595.104 190.66 596.115 191.989C597.126 193.318 601.113 195.399 601.777 197.161C602.441 198.924 604.695 201.149 607.612 200.253C610.53 199.357 610.53 201.727 612.783 201.293C615.036 200.86 618.474 201.755 619.022 203.258C619.571 204.761 626.36 205.714 628.266 205.859C630.173 206.003 630.664 202.911 632.484 201.958C634.275 201.004 634.015 194.878 635.632 194.358C637.25 193.838 637.163 187.452 635.632 186.99C634.072 186.528 634.852 184.274 638.492 184.447C642.132 184.649 641.063 181.529 642.825 181.009C644.587 180.489 643.981 177.628 645.281 177.252C646.58 176.905 646.523 174.969 645.656 173.929C644.761 172.889 645.945 171.993 647.852 171.589C649.787 171.184 649.44 168.873 646.956 168.208C644.472 167.543 645.425 165.001 647.852 166.359C650.307 167.717 652.271 166.503 650.942 164.943C649.614 163.382 652.849 162.371 656.2 161.909C659.551 161.446 661.399 159.828 660.908 157.661C660.417 155.523 664.837 155.378 663.624 157.372C662.382 159.337 662.902 161.244 664.577 159.771C666.252 158.297 669.199 159.106 674.687 157.43C680.176 155.783 685.635 151.68 687.138 147.923C688.611 144.167 694.793 144.283 694.128 141.884C693.493 139.486 695.428 138.446 699.299 139.891C703.17 141.335 700.166 138.764 704.585 138.561C709.034 138.359 708.312 137.03 712.587 136.712C716.862 136.394 728.041 134.285 731.999 131.453C735.927 128.592 744.131 126.021 747.511 124.171C750.92 122.322 751.786 120.82 749.678 121.831C747.569 122.842 743.294 123.131 740.174 122.582C737.054 122.033 732.114 119.953 728.388 121.831C724.662 123.709 727.117 119.346 730.121 118.826C733.154 118.306 731.941 117.15 731.306 114.52C730.67 111.891 736.39 113.393 738.758 116.37C741.127 119.346 745.951 120.502 750.284 119.288C754.588 118.075 750.631 115.272 752.451 113.22C754.271 111.169 739.769 105.476 739.105 103.396C738.441 101.315 742.918 102.587 746.933 103.887C750.949 105.187 752.104 100.94 752.191 99.1192C752.277 97.2699 743.496 97.4432 739.481 99.437C735.465 101.431 731.912 97.3565 737.285 96.6342C742.658 95.9118 737.892 94.2647 739.538 92.9067C741.185 91.5486 747.627 96.403 751.151 95.3628C754.646 94.3225 757.101 95.305 760.192 93.2245C763.254 91.1729 755.051 89.6126 753.433 87.9944C751.786 86.3474 762.099 86.6653 765.219 86.6942C768.339 86.7231 769.292 82.8222 766.779 83.6601C764.237 84.4981 755.513 81.4352 757.506 79.0658C759.499 76.6964 762.792 79.2681 766.779 77.4765C770.765 75.685 767.472 69.5014 764.699 69.617C761.897 69.7037 755.426 69.1547 755.484 67.9989C755.542 66.843 750.169 66.0051 751.786 64.8204C753.404 63.6357 755.282 66.0918 758.979 63.8379C762.677 61.5552 769.956 64.0113 773.249 63.4045C776.542 62.7977 772.123 58.0011 770.216 58.9257C768.31 59.8504 761.954 60.3127 761.637 57.6832C761.319 55.0537 767.674 57.5098 768.83 56.2095C769.985 54.9093 760.106 51.9619 758.401 54.6492C756.697 57.3365 751.18 56.643 754.213 55.0248C757.246 53.4067 758.113 49.1302 757.91 47.0208C757.737 44.9115 768.512 44.4491 767.472 41.0106C766.432 37.572 772.787 36.6763 776.311 36.5607C779.835 36.474 776.34 32.8621 772.96 33.3244C769.581 33.7867 765.854 36.9652 764.237 35.7805C762.619 34.5958 768.425 32.2264 771.487 32.1397C774.549 32.053 781.915 31.6196 784.602 30.3193C787.259 29.0479 780.124 28.1233 775.214 28.7301C770.274 29.3369 770.389 27.632 777.727 27.3142C785.064 26.9963 783.909 25.8116 789.137 25.2048C794.366 24.598 792.748 22.951 795.983 22.7487C799.19 22.5464 807.711 19.5991 807.769 18.2699C807.827 16.9407 795.925 14.5424 790.293 14.6869L790.35 14.6002ZM588.778 135.354C589.125 133.187 586.178 134.747 584.82 132.291C583.463 129.835 575.577 129.373 574.623 131.453C574.248 132.291 571.619 133.707 573.497 135.441C575.374 137.174 576.848 136.25 579.043 137.983C581.238 139.688 588.46 137.55 588.778 135.383V135.354Z" fill="url(#paint6_linear_157_11363)" stroke="url(#paint7_linear_157_11363)" stroke-width="0.294224" stroke-miterlimit="10"/>
<path d="M202.912 329.127C201.583 327.885 197.886 328.867 197.423 327.567C196.961 326.266 193.928 321.874 192.079 322.308C190.231 322.741 187.833 323.29 185.782 322.077C183.731 320.863 182.344 321.036 180.756 322.25C179.196 323.492 182.287 323.117 182.113 324.215C181.94 325.313 182.98 325.746 184.28 325.284C185.58 324.822 186.186 327.364 187.457 327.22C188.757 327.104 189.046 329.04 190.577 328.751C192.079 328.491 192.31 330.138 193.004 330.947C193.697 331.785 195.488 330.601 195.43 331.583C195.372 332.45 197.048 332.912 197.423 333.924C200.37 333.75 202.912 333.577 205.165 332.566C205.223 331.901 205.454 331.121 205.801 330.485C206.638 328.954 204.183 330.341 202.883 329.098L202.912 329.127ZM213.513 162.112C217.384 162.227 217.095 168.787 219.782 168.324C221.544 168.006 220.446 166.157 223.335 165.666C226.224 165.175 225.704 163.817 228.332 163.585C230.961 163.325 233.272 162.112 233.59 159.222C233.907 156.333 236.016 154.946 238.76 153.877C241.505 152.808 239.396 150.12 243.296 148.675C247.167 147.202 258.172 141.365 260.108 139.862C262.043 138.331 258.201 137.349 254.446 135.73C250.691 134.141 247.629 134.026 244.307 136.395C240.956 138.764 243.873 134.459 241.303 135.875C238.732 137.32 232.376 135.759 231.597 134.892C230.817 133.997 218.453 139.342 215.593 139.862C212.705 140.354 215.478 142.694 217.298 143.792C219.117 144.89 211.751 150.64 212.965 151.421C214.178 152.23 211.231 155.379 207.765 159.251C204.327 163.123 209.614 161.967 213.513 162.083V162.112ZM323.63 161.158C325.161 159.511 330.361 163.036 330.938 159.916C331.516 156.795 325.074 156.275 322.561 155.004C320.019 153.732 318.806 154.744 314.82 152.461C310.833 150.207 316.466 147.982 313.548 146.162C310.631 144.37 310.255 138.36 312.769 135.99C315.282 133.621 318.142 130.182 314.242 129.344C310.342 128.507 303.438 132.118 304.016 132.841C304.594 133.563 309.909 135.586 309.764 136.828C309.62 138.042 304.969 134.112 303.063 135.413C301.127 136.713 299.481 133.939 297.632 136.222C295.812 138.504 298.556 145.15 299.654 147C300.781 148.849 298.065 149.253 296.216 149.947C294.368 150.64 294.859 144.486 293.328 142.492C291.797 140.498 284.893 138.938 284.257 140.643C283.622 142.347 288.561 141.596 287.608 143.966C286.655 146.335 284.402 143.041 281.715 145.266C279.029 147.491 279.606 146.19 280.3 144.283C280.964 142.376 277.151 140.932 272.616 142.058C268.081 143.185 270.218 145.67 268.745 146.913C267.272 148.155 260.743 147.577 265.105 146.075C269.467 144.572 267.936 142.607 266.636 140.585C265.336 138.562 260.743 141.914 253.551 145.324C246.358 148.733 242.949 151.738 243.816 151.796C244.682 151.854 244.798 152.836 241.88 155.35C238.963 157.864 241.447 159.28 243.873 158.876C246.329 158.471 243.96 160.638 245.636 160.812C247.138 160.956 255.544 156.333 257.624 157.402C259.675 158.471 244.191 161.852 243.931 164.337C243.642 166.822 251.962 166.851 258.317 164.799C264.672 162.748 275.476 162.863 275.302 164.308C275.129 165.753 267.792 166.504 262.217 167.226C256.641 167.92 246.878 171.185 247.138 172.774C247.427 174.566 248.033 174.45 253.579 175.982C259.097 177.513 265.567 172.803 264.961 176.386C264.354 179.969 267.618 180.258 275.447 179.218C283.275 178.178 287.261 174.103 291.075 173.699C294.888 173.323 296.765 172.427 298.845 169.654C300.925 166.88 302.34 168.093 302.658 169.278C302.976 170.463 307.973 169.509 308.984 170.376C311.584 172.601 321.232 170.405 325.074 168.238C328.887 166.07 324.179 162.256 322.128 164.597C320.077 166.937 318.633 165.926 318.286 164.944C317.939 163.961 322.099 162.748 323.63 161.129V161.158ZM244.105 123.797C248.062 123.537 252.511 119.636 252.511 117.815C252.511 116.024 242.111 123.912 244.105 123.797ZM226.31 121.167C227.783 121.514 225.877 124.635 227.755 123.537C229.632 122.41 230.094 122.15 231.394 122.323C233.705 122.67 234.427 120.618 235.67 119.404C236.912 118.191 235.872 122.959 238.789 122.496C241.245 122.092 241.418 117.266 243.469 118.335C245.52 119.404 246.444 117.237 247.08 115.764C247.715 114.261 248.033 111.834 250.546 111.025C253.059 110.216 250.72 113.192 251.586 114.839C252.886 117.237 256.035 114.319 256.41 113.076C256.786 111.834 260.714 112.007 260.686 110.62C260.657 109.233 262.043 108.627 261.148 107.182C260.252 105.737 263.112 105.679 264.614 104.263C266.116 102.847 262.852 104.35 260.83 102.876C258.837 101.403 257.595 103.974 257.45 105.188C257.277 106.402 253.175 106.055 250.806 105.65C248.438 105.246 244.856 109.176 241.071 111.4C237.287 113.625 236.71 116.515 233.388 116.862C230.066 117.208 224.808 120.907 226.31 121.254V121.167ZM261.292 114.434C258.115 115.128 257.999 117.96 261.581 117.382C265.163 116.804 266.174 117.642 261.032 118.278C255.89 118.884 253.146 123.334 256.844 121.947C260.541 120.56 264.788 119.896 261.986 121.138C259.183 122.381 251.817 124.114 252.684 125.241C253.262 125.935 256.179 125.27 258.981 125.819C261.754 126.368 263.488 126.715 266.001 124.114C268.514 121.514 271.72 118.827 270.218 122.063C268.716 125.299 273.714 122.323 279.809 121.167C285.904 120.04 278.278 124.606 271.923 125.993C265.567 127.38 266.347 130.067 271.172 130.327C275.967 130.558 287.03 125.068 289.804 122.467C292.577 119.867 294.397 122.988 297.083 120.994C299.769 119 304.276 120.127 308.696 118.682C313.086 117.237 314.733 109.869 311.729 109.089C308.724 108.338 308.378 110.967 305.836 111.718C303.294 112.499 302.312 109.84 300.521 108.338C298.73 106.806 300.521 103.194 297.545 104.003C294.57 104.812 287.666 110.014 291.45 109.869C295.234 109.696 293.645 111.718 291.508 112.845C289.37 113.972 295.956 114.377 294.888 115.735C293.819 117.093 283.593 117.642 283.391 115.677C283.188 113.712 275.562 111.285 272.096 112.643C268.629 113.972 270.392 110.534 267.041 110.851C263.69 111.169 264.441 113.857 261.292 114.55V114.434ZM274.898 98.0219C276.342 95.4213 267.705 97.155 268.312 97.8485C269.641 99.4378 273.454 100.622 274.898 98.0219ZM293.761 94.2366C296.765 93.3987 295.668 91.6071 290.843 92.8785C286.019 94.1788 277.902 95.3924 277.498 98.4264C277.18 100.854 278.595 101.807 283.708 101.432C288.85 101.056 293.963 95.9703 291.479 96.3171C288.995 96.6927 290.757 95.0457 293.761 94.2077V94.2366ZM283.217 92.0406C285.355 92.5029 287.984 89.5556 289.399 90.538C290.815 91.5205 297.69 91.4916 298.123 88.2842C298.556 85.0768 289.804 85.9437 287.377 87.504C284.951 89.0355 274.522 91.0003 277.18 92.5607C278.798 93.5142 281.08 91.5782 283.217 92.0406ZM321.868 80.4535C324.814 78.4886 329.436 80.3957 328.281 82.3028C327.125 84.2099 319.557 83.1408 319.933 84.6145C320.077 85.1924 320.655 87.4462 326.288 85.308C331.949 83.1697 336.34 83.5742 339.633 85.6547C342.898 87.7641 346.191 88.3131 349.05 85.3946C351.91 82.4762 346.277 82.823 347.693 80.6847C349.108 78.5464 344.515 77.9685 342.002 78.3153C339.489 78.6331 339.171 74.79 337.005 75.8592C334.838 76.9283 333.278 78.4886 333.654 75.917C334.029 73.3453 322.243 74.7034 319.153 76.1192C316.062 77.5062 318.921 82.3895 321.868 80.4246V80.4535ZM321.117 97.0106C323.197 94.7567 315.022 89.5845 314.155 92.6763C313.289 95.7392 318.893 99.4089 321.117 97.0106ZM354.394 67.0461C356.33 64.4744 345.411 64.041 347.895 65.7458C349.31 66.7282 352.459 69.6178 354.394 67.0461ZM322.417 115.85C324.208 114.001 319.673 111.256 317.939 114.29C316.206 117.324 320.597 117.729 322.417 115.85ZM349.975 98.2531C349.484 100.276 344.573 98.5709 340.644 97.7041C336.745 96.8372 338.68 100.738 341.54 102.703C344.4 104.697 339.778 104.119 335.82 102.096C331.863 100.073 331.718 104.437 333.567 105.564C335.416 106.691 332.672 109.06 330.361 106.199C328.05 103.339 327.154 100.131 322.879 100.507C318.604 100.911 320.019 104.552 321.435 106.228C323.37 108.54 325.537 108.829 328.945 110.129C332.354 111.429 338.593 108.02 341.251 108.251C343.909 108.482 337.813 112.296 339.373 114.059C340.933 115.821 346.133 113.741 350.033 113.019C353.932 112.296 352.372 110.534 354.828 108.829C357.283 107.124 352.69 107.904 354.972 104.263C357.254 100.594 350.466 96.1726 349.946 98.2242L349.975 98.2531ZM361.183 85.2213C364.592 84.7878 367.394 84.0366 370.513 82.6785C373.633 81.3204 369.04 81.8983 371.438 79.2688C373.835 76.6393 366.787 77.3039 366.209 78.1708C365.631 79.0088 357.543 74.5878 355.925 76.5527C354.308 78.5175 357.774 85.6547 361.183 85.2213ZM379.555 83.921C379.266 82.7652 361.674 86.7527 364.129 88.1686C368.289 90.5669 379.844 85.0479 379.555 83.921ZM373.142 113.452C377.302 112.73 375.8 108.54 371.611 106.113C367.422 103.657 356.359 111.198 358.005 112.21C359.883 113.365 368.982 114.174 373.142 113.452ZM340.413 145.815C345.064 148.213 344.111 142.868 349.801 142.319C355.492 141.741 356.705 133.332 358.005 130.154C359.305 126.975 353.788 127.9 354.886 129.98C355.983 132.032 354.106 134.488 353.961 131.916C353.817 129.316 349.195 132.35 347.837 130.529C346.48 128.709 353.123 127.611 355.059 124.75C356.994 121.889 350.09 123.219 351.939 120.965C353.788 118.711 341.886 122.525 345.151 123.276C348.415 124.028 345.035 126.079 342.089 124.49C339.142 122.901 329.898 127.524 332.758 129.373C335.04 130.847 342.926 126.773 337.958 132.667C332.989 138.591 331.978 132.09 327.819 133.274C323.659 134.459 324.93 138.707 330.852 139.487C336.802 140.267 335.762 143.445 340.384 145.815H340.413ZM381.664 108.424C382.761 112.238 384.957 109.204 387.268 110.505C389.579 111.805 393.363 112.354 395.645 110.505C397.927 108.655 398.996 107.326 399.487 108.655C400.325 110.823 405.351 110.534 416.386 109.436C427.42 108.366 425.196 104.494 428.2 105.737C431.233 106.979 438.6 106.17 441.922 105.217C445.215 104.263 447.381 99.6978 447.439 97.5307C447.468 95.3346 423.059 96.2304 418.408 98.9466C413.757 101.634 407.257 99.2355 403.618 101.258C399.978 103.281 401.567 99.5245 395.414 100.073C389.261 100.622 396.252 97.0106 397.58 95.6814C398.88 94.3522 388.77 92.4162 384.321 93.7454C379.873 95.0746 377.62 93.3987 373.72 92.3006C369.82 91.2026 358.612 93.023 360.49 95.5369C361.818 97.3284 374.5 99.8423 376.146 97.6752C377.793 95.508 380.624 99.4667 382.415 101.432C384.177 103.396 380.653 104.61 381.721 108.424H381.664ZM396.483 83.4587C392.612 82.1584 386.921 86.5505 390.994 87.4173C394.489 88.1686 400.382 84.7589 396.483 83.4587ZM366.729 65.3124C369.878 66.3526 367.596 68.4909 371.062 69.4155C374.5 70.3402 385.477 65.9481 386.083 67.9996C386.69 70.0512 374.991 71.6404 376.406 72.8252C377.793 74.0099 384.119 75.3679 383.05 76.6682C381.953 77.9685 393.392 79.9045 394.749 78.1997C396.107 76.4949 399.256 76.4949 402.116 77.1595C404.946 77.7952 406.189 70.6869 408.095 71.6404C410.002 72.594 410.291 68.8954 413.901 67.335C417.512 65.7747 422.452 65.2257 422.972 63.8387C423.347 62.8274 422.394 61.6138 418.206 62.4517C414.017 63.2897 411.475 62.2206 413.584 60.0823C415.692 57.944 409.366 58.0596 411.908 56.2681C414.421 54.4766 408.008 53.6386 408.355 55.8925C408.702 58.1463 404.195 56.5571 403.849 54.4766C403.473 52.425 394.229 52.6851 388.77 48.7553C383.31 44.8256 376.464 48.6686 380.017 48.8131C383.57 48.9576 383.108 50.5468 380.162 50.6913C377.215 50.8358 371.929 51.8471 376.464 52.8296C381.028 53.812 375.684 55.0256 371.813 55.4879C367.942 55.9503 367.047 60.2846 371.987 60.2557C376.926 60.2557 372.882 63.2319 368.925 62.7407C364.967 62.2495 363.321 64.1854 366.758 65.3124H366.729ZM397.291 42.8607C400.758 40.7802 403.098 41.6471 400.18 43.1207C397.263 44.5655 398.042 45.259 401.971 44.6233C405.9 44.0165 400.209 45.7502 399.92 47.6862C399.631 49.6222 404.369 47.9462 404.311 49.8533C404.253 51.7604 413.959 51.4426 417.281 48.8131C420.603 46.1836 419.014 49.1888 418.552 50.7491C418.09 52.3095 432.1 52.165 433.053 50.1712C434.036 48.1774 435.971 48.7264 438.629 49.0154C441.286 49.3043 455.21 45.259 455.787 42.9474C456.365 40.6357 459.976 43.6697 455.238 46.5882C450.501 49.5066 441.864 49.9978 437.82 51.3559C433.776 52.714 439.871 54.361 443.395 56.4993C446.948 58.6086 438.166 58.1752 434.989 55.2857C431.811 52.3672 423.55 53.263 419.188 53.9276C414.797 54.5922 415.172 61.2381 418.379 60.8914C421.585 60.5446 424.647 61.1514 427.247 65.1101C429.847 69.0688 436.866 67.335 436.606 69.2999C436.346 71.2648 427.854 68.6931 422.943 68.462C418.003 68.2308 409.597 71.8716 408.933 75.0501C408.268 78.2286 415.895 76.9572 421.296 73.8654C426.698 70.7736 422.567 74.5011 419.765 76.7549C416.963 79.0088 425.254 79.6445 424.936 82.0139C424.618 84.3833 418.523 84.2677 418.119 82.1873C417.714 80.1068 415.721 78.1708 409.713 79.2399C403.704 80.3091 404.802 83.6898 408.413 83.6609C412.024 83.6609 411.937 85.9725 407.806 86.4638C403.675 86.9261 394.056 90.278 396.627 92.2717C399.487 94.4678 411.533 90.538 413.41 91.8961C415.259 93.2542 420.95 93.1964 422.539 91.2604C424.156 89.3244 428.663 89.6134 433.256 89.0932C437.849 88.602 438.946 89.0932 440.795 90.4224C442.673 91.7805 446.428 90.7981 449.172 88.9488C451.002 87.7159 452.995 86.9935 455.152 86.7816C458.387 86.4349 459.311 84.6145 457.983 82.5918C456.654 80.598 452.003 84.7589 451.772 83.2275C451.454 81.3493 447.728 81.1181 441.171 82.5918C434.613 84.0655 437.964 79.4422 441.748 80.0201C445.532 80.598 450.877 79.6445 455.383 78.2286C459.889 76.8127 456.683 75.3968 456.885 73.8365C457.087 72.2761 462.489 72.6807 466.649 72.2761C470.808 71.8716 477.539 65.6302 478.203 62.3361C478.897 59.0132 469.335 60.6891 464.742 61.1514C460.149 61.6138 468.122 57.944 476.817 57.5106C485.512 57.0772 482.045 54.1588 483.808 52.8585C485.57 51.5582 489.383 53.6675 493.86 52.5117C498.338 51.3559 495.767 48.5531 498.771 48.293C500.88 48.1196 506.05 44.9989 516.074 39.8556C526.098 34.7411 533.32 34.9144 534.128 32.4583C534.937 29.9733 521.043 33.4986 518.876 32.9207C516.681 32.3428 528.669 29.3376 531.355 29.7133C534.013 30.06 537.768 29.1932 547.676 24.7722C557.585 20.3801 553.569 19.7733 549.612 20.6112C545.654 21.4492 541.466 20.669 541.986 18.6175C542.506 16.5659 536.295 18.8486 536.237 17.7795C536.179 16.6815 530.604 17.6639 524.394 19.9755C518.183 22.2872 524.22 18.1551 526.82 17.2305C529.449 16.2769 511.741 18.4152 509.026 16.9993C506.31 15.5834 502.208 20.2934 499.811 18.2996C497.413 16.3058 490.047 18.7619 490.711 20.3512C491.376 21.9404 489.325 22.1138 486.841 20.4957C484.385 18.8775 478.81 21.3914 474.102 21.2469C469.393 21.1025 470.866 24.6855 465.898 23.2696C460.929 21.8826 455.065 23.3563 456.596 23.7608C458.098 24.1654 455.874 25.4946 453.679 25.1478C451.483 24.8011 449.317 25.7546 450.154 27.5172C450.992 29.2798 441.777 27.7773 441.459 29.8578C441.142 31.9382 437.531 33.4119 435.075 31.7937C432.62 30.1756 424.041 30.4935 426.294 31.9382C428.547 33.383 418.408 33.4986 420.863 34.9433C423.347 36.3592 416.963 38.353 417.108 37.3994C417.252 36.4459 411.822 35.319 409.251 37.2839C406.709 39.2487 405.669 41.4448 404.715 40.4046C403.762 39.3643 398.678 40.3179 393.623 42.3983C388.597 44.4788 393.883 45.0278 397.349 42.9185L397.291 42.8607ZM434.498 210.772C436.144 210.367 439.871 204.733 435.653 205.426C431.436 206.119 431.927 211.378 434.498 210.772ZM414.421 208.518C417.946 210.194 424.041 203.837 423.723 202.219C423.405 200.572 410.146 206.495 414.421 208.518ZM432.216 195.024C432.88 192.885 424.821 192.972 425.485 190.632C426.178 188.262 418.206 187.337 415.808 186.384C413.381 185.43 409.511 185.286 409.742 182.772C410.002 180.258 404.253 182.801 403.647 186.586C403.04 190.371 400.816 189.822 401.624 193.232C402.433 196.642 396.107 198.26 396.627 200.051C397.147 201.843 400.353 199.387 403.127 199.04C405.9 198.693 402.058 202.652 405.553 202.479C408.297 202.363 413.468 198.838 414.768 197.017C416.097 195.197 418.466 194.301 421.528 196.006C424.59 197.711 431.551 197.133 432.216 194.995V195.024ZM510.441 168.758C513.243 168.7 513.445 171.763 517.605 174.681C521.794 177.6 522.458 175.259 523.354 172.919C524.249 170.578 529.044 171.994 529.015 169.74C528.987 167.486 533.464 164.423 536.382 163.152C539.299 161.881 534.331 159.858 530.546 160.378C526.762 160.927 526.271 158.702 526.387 157.286C526.502 155.842 519.801 152.981 517.403 153.819C515.005 154.657 511.337 151.738 508.304 151.796C505.27 151.883 501.024 150.236 501.775 147.346C502.526 144.428 507.784 147.577 509.17 145.237C510.557 142.868 503.422 144.775 503.364 143.156C503.306 141.538 505.097 141.972 506.599 140.816C508.101 139.66 505.733 137.869 504.173 137.204C502.613 136.539 501.891 139.024 500.273 139.198C498.627 139.342 500.273 136.973 501.573 135.441C502.873 133.91 496.518 132.899 493.629 133.997C490.74 135.095 489.96 133.737 490.134 132.118C490.307 130.5 485.252 132.61 483.259 133.997C481.265 135.413 479.186 133.188 481.554 132.754C483.894 132.321 486.87 130.414 486.378 128.651C485.887 126.888 479.85 127.293 478.435 129.633C477.019 131.974 472.657 127.813 472.859 125.993C473.062 124.172 465.436 126.542 466.707 123.421C467.978 120.3 458.56 120.474 456.018 120.734C453.476 120.994 449.548 123.219 449.779 125.184C450.01 127.148 446.861 126.686 446.659 124.519C446.457 122.352 439.668 127.669 437.82 127.9C435.971 128.102 439.668 121.889 438.946 120.185C438.224 118.48 436.924 118.018 435.913 115.157C434.902 112.296 427.825 114.261 425.745 116.284C423.665 118.306 417.772 118.191 414.219 121.398C410.637 124.606 413.757 127.033 415.028 127.9C416.299 128.738 409.886 131.107 411.764 132.494C413.641 133.881 416.963 132.696 416.906 135.297C416.819 137.926 409.395 135.384 408.5 133.274C407.604 131.165 409.453 128.94 408.037 127.524C406.622 126.079 408.24 123.883 411.59 120.705C414.941 117.526 417.195 117.671 417.397 116.053C417.599 114.434 404.687 115.908 396.367 122.93C388.048 129.922 389.376 137.811 389.636 139.4C389.896 140.989 396.656 139.342 400.469 139.891C404.282 140.44 402.029 142.116 399.082 142.087C396.136 142.03 391.167 141.856 391.196 143.677C391.196 145.497 397.031 148.213 400.816 146.942C403.338 146.094 405.072 146.219 406.015 147.317C407.431 148.964 411.879 147.838 416.241 147.52C420.603 147.202 425.543 148.069 427.594 148.011C429.645 147.982 432.331 146.451 433.14 145.353C433.949 144.255 442.239 145.959 444.81 145.468C447.381 144.977 445.995 143.128 444.435 142.694C442.875 142.261 443.857 139.516 445.85 140.325C447.815 141.105 451.252 141.365 451.743 143.128C452.176 144.63 454.199 143.677 454.285 145.064C454.372 146.479 461.622 147.317 461.68 148.936C461.738 150.554 454.199 152.172 456.163 153.385C458.098 154.599 461.709 150.958 464.511 150.467C467.313 149.976 466.764 155.524 468.931 154.483C471.906 153.068 473.957 154.975 476.413 158.182C478.868 161.389 475.517 165.03 475.633 166.244C475.748 167.457 481.15 166.504 484.356 164.741C487.534 162.979 490.047 165.81 492.214 167.457C494.38 169.076 483.085 173.294 484.183 171.532C485.281 169.769 478.261 165.55 471.271 168.527C464.28 171.503 468.613 174.566 469.104 176.56C469.624 178.553 462.633 181.356 456.509 180.171C450.385 178.987 451.945 181.905 449.403 182.165C446.832 182.454 443.713 186.297 445.821 188.349C447.93 190.4 453.274 187.742 457.463 187.511C461.651 187.28 462.027 188.262 462.691 186.124C463.356 183.986 467.689 184.564 470.693 184.881C473.668 185.199 472.628 189.013 476.355 189.071C480.081 189.1 476.73 192.77 478.868 194.821C481.006 196.873 488.632 194.879 491.26 197.104C493.86 199.329 505.444 203.201 507.293 201.178C509.344 198.896 497.875 190.4 494.438 189.938C490.971 189.447 498.135 187.713 502.324 190.429C506.541 193.145 513.012 193.983 516.623 189.909C520.234 185.835 514.023 187.453 514.254 184.737C514.485 182.021 512.694 178.467 509.401 178.784C506.108 179.102 498.164 174.075 501.342 172.543C504.519 171.012 500.677 169.74 503.219 167.226C505.762 164.712 507.726 168.844 510.528 168.787L510.441 168.758ZM461.969 163.73C464.8 163.008 464.684 159.251 463.298 157.46C462.287 156.13 459.283 156.246 456.683 156.737C454.112 157.229 449.317 161.187 451.281 164.452C453.245 167.718 459.109 164.452 461.969 163.73ZM438.802 113.828C437.098 116.602 441.488 116.11 441.373 119.116C441.257 122.121 445.532 122.641 448.97 120.474C452.408 118.306 461.42 119.693 461.68 117.324C461.94 115.099 452.696 112.094 449.143 113.076C445.59 114.059 440.506 111.025 438.802 113.799V113.828ZM511.192 283.039C511.568 284.715 525.116 288.674 525.751 286.246C526.358 283.819 510.875 281.565 511.192 283.039ZM571.335 290.87C570.295 292.546 568.995 289.887 571.132 288.298C573.299 286.709 570.901 286.304 568.937 287.315C566.973 288.327 567.695 283.53 569.486 282.519C571.306 281.507 565.297 280.265 565.211 281.854C565.124 283.443 560.849 282.779 560.444 281.363C560.04 279.976 557.007 279.774 558.191 278.676C559.375 277.578 554.58 277.375 554.031 279.167C553.454 280.93 552.183 278.156 554.696 275.671C557.209 273.157 556.545 271.221 558.827 269.892C561.138 268.562 558.827 267.464 556.342 268.505C553.887 269.545 547.07 278.011 546.954 280.178C546.839 282.345 546.55 284.946 544.297 285.004C542.072 285.062 539.415 287.142 541.09 288.153C542.794 289.165 536.208 292.979 539.184 294.221C541.206 295.059 544.643 293.326 547.503 293.383C550.363 293.441 552.76 293.383 555.245 291.592C557.729 289.8 557.585 292.834 560.155 292.343C562.726 291.852 558.624 294.337 558.711 295.926C558.798 297.516 561.484 294.857 563.449 293.817C565.413 292.806 567.782 293.47 566.742 295.002C565.702 296.533 571.912 297.487 573.472 295.059C575.032 292.632 572.317 289.223 571.277 290.898L571.335 290.87ZM159.553 305.895C155.566 308.669 164.146 316.586 166.168 314.997C167.554 313.899 164.204 310.518 164.377 308.033C164.55 305.52 163.51 303.121 159.553 305.895ZM532.453 303.612C530.749 303.988 532.193 301.474 532.511 300.261C532.8 299.047 528.9 301.099 528.698 302.543C528.495 303.959 525.838 304.739 525.809 305.606C525.693 308.149 525.376 306.82 523.44 307.86C521.476 308.9 514.11 308.698 513.937 307.195C513.763 305.693 508.448 305.433 508.304 303.381C508.188 301.33 505.588 300.925 507.841 298.469C510.123 295.984 507.668 295.146 505.559 297.053C503.451 298.989 502.382 296.389 505.184 295.146C507.986 293.904 513.157 292.459 510.788 288.385C508.39 284.281 491.665 291.447 487.39 294.048C483.114 296.62 477.481 304.075 475.228 304.306C472.975 304.537 479.359 300.232 480.37 298.729C481.41 297.227 480.283 295.926 481.554 296.36C482.825 296.764 486.812 291.216 489.412 289.251C492.011 287.287 494.64 288.645 495.073 287.2C495.507 285.755 496.749 284.686 499.262 282.49C501.746 280.294 530.229 278.04 533.002 277.924C535.746 277.78 541.321 273.995 542.997 271.712C544.672 269.429 546.723 269.256 550.536 269.14C554.349 269.025 556.342 265.76 558.307 264.43C560.3 263.101 559.607 262.61 557.931 262.437C556.285 262.263 554.783 261.396 556.458 261.165C558.133 260.934 559.029 259.98 559.867 258.016C560.704 256.022 559.318 256.975 557.209 254.49C555.1 252.005 553.685 255.646 551.432 255.617C549.178 255.617 553.165 252.699 551.316 251.774C549.467 250.85 545.828 251.919 542.823 254.288C539.819 256.686 540.195 254.404 537.566 256.773C534.937 259.142 535.139 255.906 536.382 254.953C537.624 253.999 538.404 254.895 539.559 253.508C540.715 252.121 541.697 253.334 544.557 251.485C547.416 249.636 549.756 250.214 550.652 248.942C551.547 247.7 549.496 246.255 546.839 247.035C544.181 247.787 542.621 244.204 540.888 245.417C539.155 246.631 539.675 243.915 537.71 245.157C535.746 246.4 534.735 245.099 534.042 243.134C533.348 241.17 528.438 238.309 525.405 237.731C522.371 237.153 524.509 235.477 526.098 236.402C527.687 237.326 529.738 235.015 530.518 233.888C531.297 232.761 529.478 231.981 528.524 231.952C527.571 231.952 527.687 230.536 527.976 229.467C528.293 228.369 524.827 227.329 524.769 226.26C524.74 225.219 522.747 224.641 522.949 223.688C523.123 222.734 521.1 221.55 521.187 220.278C521.274 219.007 517.923 216.782 517.894 215.308C517.894 213.835 516.074 212.968 515.496 211.234C514.919 209.5 513.908 210.425 513.012 213.025C512.117 215.626 509.632 215.742 510.268 216.522C511.597 218.14 510.499 218.284 509.344 219.44C508.188 220.596 509.863 222.012 508.072 222.185C506.31 222.359 506.888 225.566 506.05 224.179C505.213 222.792 502.931 223.428 502.815 224.901C502.7 226.375 498.829 228.138 497.298 228.167C495.767 228.196 495.998 225.335 494.611 226.317C493.254 227.3 493.745 223.977 491.723 224.295C489.7 224.584 488.314 224.526 489.007 222.879C489.729 221.232 485.772 220.885 487.13 219.816C488.487 218.747 486.985 217.215 486.956 214.47C486.956 211.754 488.949 211.35 489.036 210.28C489.123 209.24 487.707 209.356 486.234 210.338C484.761 211.321 484.905 209.327 483.374 209.587C481.843 209.847 477.279 210.107 477.192 208.229C477.106 206.351 475.517 207.449 474.968 205.744C474.419 204.039 472.426 205.599 472.542 204.328C472.657 203.057 471.877 202.623 470.462 202.652C469.075 202.681 468.7 201.381 466.851 201.352C465.002 201.352 462.547 202.941 461.449 203.49C460.351 204.01 457.838 202.421 456.712 203.259C455.585 204.097 455.47 202.883 452.61 202.45C449.75 202.016 445.908 202.247 445.59 203.23C445.272 204.212 442.904 204.79 443.077 206.957C443.222 209.125 445.735 208.431 446.168 209.847C446.63 211.263 444.926 210.916 444.695 212.303C444.464 213.69 442.962 213.748 442.875 214.701C442.788 215.655 443.857 215.337 444.29 217.158C444.724 219.007 445.879 218.747 446.024 221.261C446.168 223.775 444.926 223.37 443.713 223.832C442.528 224.266 443.713 225.393 441.922 227.3C440.16 229.178 438.6 231.143 439.784 232.068C440.997 232.992 445.648 234.264 447.295 236.922C448.941 239.58 448.479 244.088 447.67 247.353C446.832 250.618 442.788 251.803 439.668 254.924C436.52 258.044 433.516 257.958 432.1 258.218C430.685 258.478 431.32 260.963 433.169 262.783C435.018 264.604 433.342 265.413 434.238 267.464C435.133 269.487 433.978 271.336 435.364 273.099C436.751 274.862 435.769 275.728 433.92 277.318C432.071 278.907 434.584 277.896 434.584 279.687C434.584 281.507 433.718 280.525 432.245 279.745C430.8 278.936 429.183 281.912 429.125 283.097C429.038 284.281 425.601 281.883 424.763 282.085C423.925 282.288 425.109 280.236 423.116 278.965C421.123 277.693 419.505 277.578 419.592 276.075C419.708 274.573 416.155 273.908 416.27 272.203C416.386 270.469 417.166 266.02 416.443 264.835C415.721 263.65 416.53 262.176 417.31 260.905C418.09 259.634 416.703 257.987 414.624 258.247C412.515 258.507 409.655 258.189 406.737 258.767C403.82 259.345 402.231 259.114 401.336 258.449C400.469 257.813 397.898 256.542 394.374 256.108C390.85 255.704 389.348 254.201 389.088 253.277C388.828 252.352 385.275 252.063 384.552 251.196C383.83 250.329 380.393 250.243 378.977 250.647C377.562 251.023 374.355 248.596 372.247 248.971C370.167 249.347 365.169 251.89 364.36 252.121C363.552 252.323 364.592 250.503 365.227 249.694C365.863 248.885 363.812 245.966 363.436 243.944C363.032 241.892 362.425 239.667 359.999 240.303C357.543 240.938 355.03 240.129 354.366 239.811C353.701 239.465 354.106 233.454 354.914 230.825C355.723 228.196 359.045 224.006 359.19 222.416C359.334 220.827 361.356 219.816 363.118 219.18C364.88 218.516 363.783 215.655 365.516 215.222C367.249 214.788 367.422 214.123 367.885 212.823C368.347 211.523 370.34 212.072 369.271 211.176C368.231 210.28 369.156 209.847 371.813 209.5C374.471 209.153 378.457 207.795 378.111 205.455C377.764 203.114 370.687 205.802 370.889 203.808C371.091 201.814 362.367 202.854 363.032 201.641C363.725 200.398 371.669 201.323 374.558 201.987C377.446 202.652 378.255 202.45 380.682 202.016C383.108 201.612 381.779 198.982 382.357 197.769C382.935 196.555 387.268 198.896 389.983 197.942C392.698 196.989 395.703 191.73 398.042 190.111C400.382 188.493 398.534 187.482 394.229 188.32C389.925 189.158 387.643 188.002 385.506 186.731C383.368 185.459 383.715 184.188 386.112 184.072C388.51 183.986 393.854 187.54 396.049 187.366C398.245 187.193 402.433 182.772 404.427 181.298C406.391 179.825 402.867 179.738 401.682 178.958C400.498 178.178 404.022 177.137 405.9 176.906C407.748 176.675 408.413 178.033 409.02 178.698C409.655 179.333 413.006 177.715 414.624 177.513C416.241 177.311 414.624 175.144 412.053 174.537C409.482 173.93 412.457 171.821 413.093 173.179C413.757 174.537 415.635 174.017 416.386 175.548C417.483 177.802 418.494 176.126 420.892 175.115C423.29 174.103 424.561 172.745 425.976 171.358C427.392 169.971 427.478 171.387 429.183 169.249C430.887 167.111 428.865 165.493 427.16 164.481C425.427 163.47 427.536 161.996 425.774 161.389C424.012 160.783 423.81 159.28 426.092 159.425C428.374 159.569 430.28 158.731 431.493 157.171C432.678 155.61 428.2 155.813 430.396 154.541C432.591 153.27 430.974 152.461 428.865 152.692C426.785 152.923 425.138 152.201 425.196 150.669C425.254 149.138 421.556 150.583 419.448 149.918C417.339 149.253 412.486 150.034 411.302 150.265C410.146 150.496 409.568 154.744 411.302 154.628C413.035 154.512 414.219 156.015 412.659 156.708C411.099 157.402 412.659 158.847 411.504 158.876C410.348 158.904 408.557 158.615 407.922 161.332C407.286 164.048 406.94 165.117 404.889 166.302C402.838 167.486 404.744 163.354 402.896 163.672C401.047 163.99 400.469 167.226 401.827 167.371C403.184 167.515 403.3 168.527 403.473 170.029C403.647 171.532 400.902 170.752 399.545 172.774C398.187 174.768 398.36 172.11 396.887 171.041C395.414 170 393.652 168.151 393.941 166.591C394.201 165.233 395.067 164.626 396.338 164.25C397.638 163.874 396.483 163.008 396.569 161.158C396.656 159.309 395.096 160.118 393.449 158.384C391.832 156.651 389.868 156.911 388.741 157.951C387.614 159.02 388.105 160.667 386.43 161.505C384.755 162.314 385.13 165.146 383.715 165.521C382.299 165.897 383.715 160.523 382.588 160.147C381.49 159.771 381.75 158.529 383.484 158.095C385.217 157.662 386.459 155.899 384.957 156.073C383.455 156.275 380.97 155.148 379.988 154.859C379.006 154.57 377.042 156.968 375.973 156.275C374.904 155.61 376.406 153.385 376.666 152.23C376.897 151.074 378.457 152.519 379.757 150.929C381.057 149.34 376.695 149.889 376.868 148.358C377.042 146.826 373.662 146.855 372.564 146.479C371.467 146.104 373.72 143.301 373.258 142.347C372.795 141.394 368.953 138.562 367.105 139.111C365.227 139.66 365.083 137.262 366.094 137.233C367.105 137.204 368 136.482 370.167 134.286C372.333 132.09 372.651 131.454 371.322 131.223C369.993 130.992 369.473 129.865 371.842 129.662C374.24 129.46 378.313 130.356 379.786 129.258C381.259 128.16 386.372 121.629 388.365 119.289C390.359 116.948 387.383 117.122 383.224 117.931C379.064 118.74 378.371 117.151 374.933 117.382C371.524 117.613 365.025 119.26 363.985 120.271C362.945 121.312 365.487 121.774 365.025 122.843C364.563 123.912 362.714 122.439 361.761 122.959C360.807 123.479 361.876 124.635 361.096 128.246C360.316 131.858 361.443 131.916 362.425 133.072C363.407 134.257 362.974 136.019 362.714 138.273C362.454 140.527 360.056 140.729 359.19 141.365C358.323 141.972 361.096 142.434 360.461 143.908C359.825 145.41 357.688 143.474 356.272 144.052C354.857 144.659 353.297 148.3 354.654 149.225C356.012 150.149 356.619 149.86 355.319 151.363C354.019 152.865 352.546 154.975 355.059 156.564C357.572 158.153 362.627 157.286 365.112 158.471C367.567 159.685 363.898 159.251 364.736 160.869C365.574 162.487 362.743 163.47 362.714 164.799C362.685 166.128 363.783 165.261 365.429 162.805C367.047 160.349 367.769 163.123 367.451 165.088C367.134 167.082 365.285 166.186 363.581 168.353C361.876 170.52 360.461 171.012 358.352 170.896C356.214 170.78 357.139 173.814 357.861 175.461C358.583 177.109 357.37 177.889 354.914 177.6C352.459 177.311 351.13 176.068 352.575 174.132C354.019 172.196 355.174 170 353.643 170.405C352.141 170.809 348.733 170.983 347.866 169.654C346.999 168.353 348.646 168.729 351.708 168.613C354.77 168.498 352.372 166.677 354.654 166.388C356.937 166.07 358.525 166.995 360.663 165.175C362.772 163.354 359.912 160.783 358.236 161.534C356.59 162.256 353.99 163.21 354.163 161.765C354.337 160.32 356.965 160.985 358.468 160.465C359.999 159.945 357.919 158.413 355.55 159.222C353.21 160.031 351.592 160.378 349.975 158.847C348.357 157.344 345.151 156.766 343.909 160.898C342.666 165.03 339.72 163.325 338.305 164.828C336.889 166.359 339.547 166.908 342.609 166.562C345.671 166.244 347.664 168.527 346.191 168.729C344.717 168.931 345.18 170.809 343.649 170.289C342.118 169.798 340.442 170.723 341.453 171.821C342.464 172.919 340.818 173.641 340.789 174.884C340.789 176.126 338.391 175.317 336.022 175.461C333.654 175.577 329.147 176.935 325.883 178.033C322.619 179.102 319.239 178.582 317.997 177.426C316.784 176.271 314.935 176.733 312.682 177.08C310.429 177.426 311.295 175.346 308.378 175.664C305.46 176.011 306.385 173.612 306.182 172.312C305.98 171.012 300.058 172.312 297.776 173.872C295.494 175.433 291.392 175.577 290.006 178.033C288.648 180.489 290.815 179.854 292.057 179.651C293.79 179.391 293.848 177.542 296.939 177.455C300.058 177.397 302.687 173.612 303.9 174.652C305.114 175.693 298.094 179.102 295.119 179.969C292.143 180.836 292.577 182.917 295.003 186.355C297.43 189.794 293.588 188.204 293.385 190.083C293.183 191.961 288.157 190.256 290.352 189.302C292.548 188.349 291.739 186.528 290.179 185.517C288.619 184.535 287.377 185.951 287.724 184.564C288.099 183.177 285.904 184.939 284.459 184.043C283.015 183.148 282.322 182.339 280.069 183.697C277.815 185.084 275.389 185.141 270.594 186.644C265.799 188.118 257.219 189.331 255.833 188.118C254.417 186.904 260.281 183.379 261.899 183.523C263.488 183.668 262.737 181.732 260.368 180.287C257.999 178.842 252.424 178.611 252.424 179.738C252.424 180.865 249.189 180.374 245.144 180.345C241.1 180.316 240.696 179.045 238.038 179.391C235.467 179.738 231.481 179.68 228.621 177.946C225.761 176.184 218.395 178.091 217.298 180.345C216.2 182.57 213.773 182.916 211.376 183.35C208.949 183.783 212.733 180.576 211.896 180.287C210.798 179.911 212.358 176.82 210.625 176.935C208.892 177.051 206.494 184.419 203.23 184.824C199.965 185.199 199.272 178.178 196.73 176.82C194.188 175.433 191.675 175.808 193.697 178.207C195.719 180.605 191.646 179.391 191.675 181.241C191.675 183.09 187.544 186.008 187.775 184.939C187.977 183.87 185.811 183.148 182.893 186.557C180.005 189.967 178.185 189.909 178.069 188.898C177.954 187.887 169.865 193.145 170.096 194.33C170.299 195.515 168.71 196.757 166.659 197.046C164.608 197.335 166.399 195.341 168.103 194.215C170.01 192.914 175.383 188.089 178.04 187.193C180.698 186.268 185.898 183.35 186.129 182.194C186.36 181.038 183.644 182.454 181.94 182.483C180.236 182.483 177 184.968 173.938 186.76C170.876 188.58 167.554 188.811 168.277 190.314C168.97 191.816 165.59 190.632 164.724 191.932C163.857 193.232 162.557 192.25 163.712 191.412C164.868 190.574 161.286 190.14 161.228 190.863C161.17 191.585 160.419 192.654 157.82 193.174C155.22 193.694 152.475 195.977 154.093 196.902C155.711 197.826 156.722 198.231 155.769 199.242C154.844 200.254 152.418 197.74 148.634 198.809C144.849 199.878 137.743 197.017 137.859 195.977C137.945 195.139 132.63 196.728 129.019 197.104C126.882 221.174 124.917 245.417 123.126 269.718C123.126 269.718 124.86 270.701 125.611 269.718C126.362 268.736 127.546 269.603 130.03 267.956C132.515 266.337 133.179 268.562 133.092 269.689C133.006 270.816 136.241 271.943 137.541 273.503C138.812 275.035 139.419 276.451 141.036 275.15C142.654 273.85 145.543 272.723 145.687 270.874C145.832 269.054 152.36 267.464 152.187 269.863C152.013 272.261 158.484 273.735 161.719 279.514C164.955 285.293 164.261 286.824 169.548 287.893C174.834 288.962 174.603 290.147 173.765 292.112C172.927 294.077 176.856 294.308 174.458 296.302C173.534 297.053 172.234 298.18 170.992 299.249C171.021 300.174 171.83 300.607 172.87 301.301C174.083 302.11 170.443 302.803 171.454 303.555C172.465 304.306 171.079 306.04 172.061 306.993C173.043 307.947 175.007 307.167 176.278 305.982C177.52 304.797 178.243 306.762 177.174 308.554C176.105 310.345 178.069 311.125 179.109 309.767C180.149 308.409 181.998 311.125 182.922 311.472C183.847 311.819 184.713 313.235 183.096 313.552C181.478 313.841 181.507 316.586 182.691 316.471C183.875 316.355 183.673 317.858 183.587 318.84C183.529 319.794 187.197 320.487 188.642 319.794C190.086 319.1 191.299 320.141 191.848 321.21C192.426 322.25 194.968 322.654 195.979 321.73C196.99 320.805 197.51 322.828 197.626 324.273C197.741 325.717 199.965 324.475 201.294 324.157C202.594 323.81 203.259 325.486 204.154 325.024C206.118 323.984 206.494 327.162 207.62 328.867C252.799 320.718 299.365 313.292 346.913 306.675C346.913 306.675 347.231 303.352 348.848 304.248C350.466 305.173 348.79 307.253 350.755 307.687C352.69 308.149 354.019 309.103 355.117 308.525C356.214 307.947 358.15 306.271 359.854 308.033C361.558 309.796 363.061 307.889 364.043 309.045C365.025 310.201 366.96 310.952 368.462 309.189C369.676 307.773 373.835 308.785 375.857 309.218C378.515 306.993 380.768 302.717 383.05 302.428C386.054 302.052 393.681 301.763 393.912 305.375C394.143 308.987 399.025 304.971 399.256 308.38C399.458 311.27 402.404 313.235 401.798 314.853C402.664 315.257 403.733 315.806 404.686 316.442C406.189 315.806 410.117 315.922 412.688 316.5C415.895 317.193 420.95 314.275 422.394 317.771C423.838 321.267 427.478 323.637 423.896 324.273C420.834 324.822 417.079 321.383 417.194 323.521C417.31 325.66 415.49 324.793 415.317 328.058C415.144 331.323 412.544 336.149 411.157 336.091C411.099 336.091 411.07 336.091 411.013 336.062C410.695 337.333 410.608 338.923 411.677 339.818C413.526 338.402 416.183 336.062 418.379 335.946C421.874 335.773 422.712 337.622 425.138 335.831C427.565 334.039 428.085 333.346 428.489 334.386C428.547 334.53 428.489 334.704 428.374 334.877C429.298 334.328 429.934 333.837 430.02 333.49C430.107 332.941 430.02 332.219 429.818 331.583C427.449 332.161 426.669 332.421 426.092 330.976C425.254 328.896 433.371 325.862 437.126 325.891C440.68 325.891 443.308 323.319 444.493 324.619C446.861 322.51 450.905 319.014 451.888 318.927C453.303 318.754 470.202 316.875 470.202 316.904C470.202 316.904 476.239 312.975 477.192 309.883C478.146 306.762 482.363 299.163 484.472 300.521C486.61 301.879 491.434 300.289 491.491 301.705C491.578 303.035 489.556 308.12 495.305 314.911C497.529 313.466 499.782 312.281 501.053 312.223C503.191 312.137 506.541 309.218 507.581 307.513C508.621 305.808 509.777 308.842 507.841 309.536C505.906 310.258 509.286 311.241 512.665 310.836C516.016 310.432 511.048 312.05 508.564 312.194C506.05 312.31 504.982 312.743 501.457 316.095C497.962 319.447 498.742 320.256 500.591 321.585C502.44 322.943 504.982 322.048 507.697 319.736C510.441 317.424 510.412 315.373 513.041 315.228C515.67 315.084 522.603 312.194 525.636 311.067C528.669 309.941 526.791 309.652 526.849 308.467C526.907 307.282 532.193 306.82 534.157 305.462C536.122 304.104 533.897 303.323 532.222 303.67L532.453 303.612ZM242.4 203.346C239.165 207.246 238.125 207.911 235.179 207.94C232.232 207.94 230.268 209.702 231.654 210.425C233.041 211.176 233.07 211.985 229.921 213.199C226.772 214.412 224.548 217.013 223.364 216.984C222.151 216.955 229.055 211.378 227.524 210.512C225.964 209.645 221.544 213.546 221.313 214.961C221.082 216.406 218.366 216.955 216.72 217.158C215.073 217.36 213.022 216.262 214.698 215.799C216.373 215.337 215.391 213.777 217.76 212.534C220.1 211.292 217.529 210.54 218.309 209.471C219.089 208.431 223.566 209.471 223.826 207.767C224.086 206.091 219.464 205.484 217.818 206.784C216.142 208.055 212.242 211.061 208.054 209.991C206.725 209.645 219.233 206.177 221.515 203.981C223.797 201.785 233.474 198.029 234.023 199.589C234.572 201.121 228.65 203.23 231.308 204.241C233.965 205.253 238.645 203.461 239.858 201.698C241.071 199.936 245.636 199.416 242.4 203.317V203.346ZM267.358 232.501C263.632 235.911 263.979 235.13 260.917 236.113C257.855 237.124 259.992 239.58 256.353 240.418C252.684 241.256 243.931 243.077 242.862 241.343C242.516 240.765 247.629 240.36 248.12 238.887C248.611 237.384 250.2 234.899 252.424 234.524C254.648 234.148 254.706 231.432 251.24 230.334C247.773 229.265 256.699 226.693 258.519 229.062C260.31 231.403 263.776 232.761 266.001 230.507C268.196 228.224 280.386 221.001 280.155 223.543C279.924 226.057 271.114 229.12 267.387 232.53L267.358 232.501ZM339.922 298.238C337.409 298.845 340.587 291.968 336.167 290.234C330.996 288.211 328.974 283.386 329.176 280.583C329.378 277.809 334.029 275.873 335.705 277.751C337.38 279.629 339.489 288.038 340.875 290.638C342.291 293.21 341.973 297.718 339.893 298.209L339.922 298.238Z" fill="url(#paint8_linear_157_11363)" stroke="url(#paint9_linear_157_11363)" stroke-width="0.294224" stroke-miterlimit="10"/>
<path d="M173.934 292.054C174.801 290.089 175.003 288.905 169.717 287.836C164.431 286.766 165.124 285.235 161.889 279.456C158.653 273.677 152.183 272.203 152.356 269.805C152.529 267.407 145.972 268.996 145.856 270.816C145.712 272.666 142.852 273.792 141.206 275.093C139.588 276.393 138.981 274.977 137.71 273.446C136.439 271.914 133.175 270.758 133.262 269.632C133.348 268.505 132.684 266.28 130.2 267.898C127.715 269.516 126.56 268.649 125.78 269.66C125.029 270.643 123.296 269.66 123.296 269.66C125.087 245.359 127.022 221.145 129.189 197.046C128.351 197.133 127.6 197.162 127.022 197.046C124.047 196.555 119.656 195.428 117.172 196.468C114.688 197.509 109.777 199.185 108.159 198.722C106.541 198.26 104.288 198.029 100.764 199.3C97.2399 200.601 95.2467 198.665 90.9425 198.607C86.6384 198.549 80.37 201.294 78.8678 202.161C77.3657 203.028 77.8568 200.861 75.9503 201.496C74.0726 202.132 75.6036 200.745 74.6792 199.416C73.7549 198.087 68.4686 200.745 66.5909 201.381C64.7133 202.016 64.28 201.005 64.4533 200.023C64.6266 199.069 62.8356 199.791 62.0268 201.207C61.218 202.623 59.1381 203.317 58.3871 202.681C57.636 202.045 60.2069 201.121 60.3803 200.138C60.5536 199.185 57.8093 199.3 56.7983 199.242C55.7872 199.185 54.054 200.918 51.7431 203.432C49.461 205.946 46.2835 206.495 44.377 206.755C42.4415 207.015 39.9862 208.027 40.015 209.154C40.015 210.28 42.3838 209.587 40.8528 211.407C39.3218 213.228 39.0618 209.905 37.5308 211.812C35.9998 213.719 31.7534 214.673 30.7713 214.73C29.7602 214.788 26.2071 219.382 25.1383 220.683C24.0695 221.983 25.8316 222.474 22.914 226.173C20.0253 229.9 12.8903 231.114 11.3882 231.49C9.88607 231.865 10.8971 233.368 10.0305 234.726C9.1639 236.084 10.8104 236.691 14.7968 236.778C18.8121 236.864 21.2675 241.805 21.7008 243.048C22.1052 244.29 27.3048 241.516 29.298 241.343C31.2912 241.17 28.8936 244.637 30.5402 245.042C32.1867 245.446 34.8732 243.539 35.3065 244.897C35.7109 246.226 31.8978 245.735 29.7891 247.816C27.6804 249.896 26.6404 250.878 25.9183 249.925C25.1961 248.971 21.8452 250.532 20.1409 251.167C18.4366 251.803 20.1409 249 20.3142 247.931C20.4875 246.862 18.1188 246.746 14.7391 249.578C11.3593 252.41 12.6014 251.37 12.1104 253.046C11.6193 254.722 10.3771 252.554 8.23952 254.461C6.10189 256.369 2.72213 258.189 2.05773 259.692C1.39334 261.194 6.33299 260.818 8.29729 260.732C10.2327 260.645 5.84191 263.13 7.4018 263.246C8.9328 263.361 8.18174 265.095 10.5505 265.817C12.9192 266.54 18.5521 263.766 20.0253 263.39C21.4986 263.014 22.7985 264.546 24.0695 262.87C25.3405 261.194 30.0491 256.311 32.2156 257.929C34.3821 259.547 29.6158 260.443 30.7135 261.512C31.8401 262.581 33.14 265.442 30.829 267.667C28.547 269.892 26.5249 269.256 25.3405 269.458C24.1562 269.66 24.705 271.885 22.7407 273.937C20.7764 275.989 19.5632 273.099 17.1944 273.706C14.8257 274.313 15.1435 277.433 15.1435 278.965C15.1435 280.496 11.6193 279.572 10.5505 283.559C9.45276 287.547 5.92857 285.264 8.18174 288.298C10.4349 291.332 10.1749 289.136 12.0526 290.089C13.9302 291.043 9.68386 294.713 11.6193 294.626C13.5547 294.539 15.519 297.747 16.8189 298.758C18.1188 299.769 19.9965 297.227 22.0763 296.591C24.1562 295.955 23.3473 293.181 24.445 294.019C25.5716 294.886 27.0737 297.805 25.9183 298.903C24.7917 300.001 25.5427 302.399 25.2539 303.699C24.9939 304.999 29.7602 303.41 30.1357 301.879C30.5113 300.347 34.2954 298.989 36.2597 300.896C38.2241 302.803 38.8885 303.035 39.004 301.156C39.1195 299.278 41.0261 296.735 41.0261 298.296C41.0261 299.856 42.7015 299.856 45.908 297.631C49.1144 295.406 47.6123 297.342 45.908 299.798C43.5392 303.237 45.5035 306.935 43.857 307.745C42.2393 308.554 40.6794 313.177 38.0796 314.101C35.4798 315.055 30.829 321.239 30.1935 322.221C29.558 323.204 24.1562 322.048 23.2607 324.648C22.3363 327.249 18.9276 329.878 19.7654 330.572C20.3142 331.063 24.965 327.538 25.225 326.209C25.485 324.908 26.0627 324.966 26.8138 325.717C27.5648 326.469 29.5869 324.619 30.5402 323.55C31.4645 322.481 32.9378 322.452 33.8333 322.337C34.7287 322.221 35.1909 320.863 37.9063 319.707C40.6217 318.551 40.0728 317.829 40.7372 316.24C41.4016 314.622 47.9878 309.941 49.2011 309.334C50.4143 308.727 49.8366 306.791 51.1654 306.386C52.4653 305.982 54.574 303.815 56.3939 301.937C58.1849 300.058 58.5604 300.607 59.9181 299.769C61.2757 298.931 60.4091 296.446 61.7379 295.926C63.0667 295.406 64.1356 294.135 64.2222 292.979C64.28 291.823 60.958 292.603 60.698 291.939C60.438 291.274 63.5578 287.865 64.6555 287.691C65.7532 287.547 67.6597 285.842 67.8908 284.137C68.093 282.432 69.7396 281.739 71.1839 279.976C72.5994 278.185 72.3683 277 73.726 276.595C75.0548 276.191 76.4125 274.024 77.9146 272.839C79.4167 271.683 77.8568 273.879 80.601 273.359C83.3742 272.839 82.5654 275.613 80.601 275.122C78.6079 274.63 77.6835 274.948 75.7192 277.173C73.7549 279.398 75.1703 279.572 73.6104 281.912C72.0505 284.224 71.8772 285.524 73.6971 285.322C75.517 285.119 73.6971 286.882 71.935 287.807C70.1729 288.731 71.3284 289.512 73.6682 288.963C76.008 288.414 79.7056 284.166 83.1142 281.739C86.5228 279.311 88.8627 280.438 89.8159 279.918C90.7692 279.398 88.9205 278.242 90.0759 277.462C91.2603 276.682 88.776 276.913 88.1983 275.093C87.6205 273.243 89.3826 274.11 89.9026 272.434C90.4226 270.758 91.5203 271.134 92.5024 271.654C93.4846 272.174 95.0445 270.354 95.8244 272.174C96.6044 273.966 97.8176 271.221 99.4064 272.203C100.966 273.215 99.002 273.446 97.211 274.226C95.42 275.035 96.1999 277.26 97.6154 275.786C99.0308 274.341 100.244 273.33 101.4 274.226C102.555 275.122 103.133 274.457 104.23 273.186C105.357 271.914 105.27 273.07 105.213 273.908C105.155 274.746 107.321 274.602 110.412 274.457C113.503 274.313 119.223 272.377 120.696 271.943C122.169 271.539 121.476 273.966 124.682 273.908C127.889 273.85 129.015 269.776 130.604 270.816C132.193 271.828 130.46 272.723 129.449 273.966C128.409 275.208 130.431 274.919 131.644 275.179C132.857 275.44 135.775 275.671 137.046 276.769C138.317 277.867 139.068 279.167 142.332 280.178C145.596 281.19 142.737 275.931 145.25 277.289C147.763 278.647 146.954 277.058 148.918 278.531C150.912 280.005 150.363 277.404 149.641 274.428C148.918 271.452 150.681 273.186 151.518 274.457C152.356 275.757 152.154 278.589 151.374 280.641C150.594 282.663 147.532 281.71 147.907 280.612C148.312 279.485 144.759 280.612 144.557 282.114C144.354 283.617 146.463 286.015 148.138 285.986C149.814 285.986 148.341 288.876 149.381 288.963C150.796 289.107 150.536 291.852 151.432 291.274C152.298 290.696 152.24 287.46 151.374 286.16C150.536 284.859 151.114 282.663 152.356 282.837C153.598 283.01 152.154 285.495 152.76 286.102C153.338 286.709 154.205 285.091 155.765 283.935C157.324 282.779 155.36 280.785 155.996 279.398C156.631 278.011 158.162 280.005 158.624 282.114C159.087 284.224 156.862 284.542 156.776 285.726C156.689 286.882 154.696 286.766 154.031 287.518C153.338 288.269 153.367 292.459 154.205 292.401C155.042 292.343 155.851 288.645 156.256 290.321C156.66 292.025 158.971 287.489 159.404 289.078C159.809 290.667 162.235 292.083 163.246 291.476C164.228 290.87 162.986 289.338 161.484 289.512C159.982 289.685 160.386 287.229 161.773 286.853C163.16 286.478 165.384 289.598 165.182 290.899C164.979 292.199 163.824 292.314 162.553 293.817C161.282 295.319 159.924 292.228 158.538 292.603C157.151 292.979 158.393 294.828 158.913 296.186C159.433 297.544 156.949 300.029 158.682 300.839C160.415 301.648 160.011 299.856 160.386 298.931C160.762 298.007 162.091 298.816 162.986 299.365C163.824 299.885 164.171 297.458 164.228 296.504C164.286 295.551 165.875 295.782 166.626 296.88C167.406 297.978 167.695 295.32 168.966 295.291C170.237 295.262 169.226 297.429 169.168 298.614C169.081 299.769 171.479 297.227 171.19 298.556C171.132 298.758 171.132 298.931 171.132 299.105C172.375 298.036 173.674 296.938 174.599 296.157C176.996 294.164 173.068 293.933 173.906 291.968L173.934 292.054ZM0.526731 345.251C2.89545 343.604 3.93538 342.101 3.011 341.119C2.11551 340.107 -1.29314 346.522 0.526731 345.251ZM17.5122 331.67C15.4035 331.381 9.56831 336.467 11.5037 336.264C12.8614 336.12 13.5258 334.531 15.0857 334.126C16.6456 333.721 19.6498 331.959 17.5411 331.641L17.5122 331.67ZM69.4796 294.857C69.6529 293.672 68.0064 294.164 65.8399 297.053C63.6734 299.943 61.8535 301.59 61.5068 302.832C61.1313 304.046 58.907 303.237 58.0982 304.884C57.3183 306.531 58.3293 309.507 59.8025 308.12C61.2758 306.733 61.3046 307.773 62.229 307.542C63.1245 307.34 67.4575 303.41 68.4686 301.734C69.4796 300.058 66.9665 300.203 66.9087 299.307C66.8509 298.382 69.1041 297.862 70.2596 296.967C71.415 296.071 69.3063 296.042 69.4796 294.857ZM6.7374 298.007C6.62185 296.389 2.3466 299.047 2.7799 300.492C3.18432 301.937 7.08404 301.937 8.81725 300.896C10.3194 300.001 10.8971 298.209 9.85718 297.429C8.84614 296.649 6.85295 299.654 6.7374 298.036V298.007ZM491.747 301.619C491.661 300.174 486.837 301.792 484.728 300.434C482.59 299.047 478.402 306.675 477.448 309.796C476.495 312.917 470.458 316.818 470.458 316.818C470.458 316.818 453.559 318.696 452.144 318.84C451.161 318.956 447.117 322.423 444.749 324.533C444.806 324.591 444.864 324.677 444.922 324.764C446.482 327.422 440.184 329.792 434.291 330.659C432.472 330.919 431.114 331.236 430.045 331.496C430.218 332.132 430.334 332.855 430.247 333.404C430.19 333.75 429.525 334.242 428.601 334.791C427.619 336.582 420.253 340.627 416.122 343.055C411.558 345.742 405.52 345.337 405.694 342.072C405.867 338.807 409.102 339.096 409.738 340.541C409.969 341.09 410.778 340.57 411.904 339.732C410.835 338.865 410.951 337.247 411.24 335.975C409.94 335.571 412.28 330.485 409.593 329.965C406.82 329.416 403.325 334.357 403.931 331.496C404.567 328.607 408.9 325.746 406.531 322.366C404.163 318.985 399.512 319.534 398.414 322.452C397.316 325.371 394.139 324.475 392.839 326.787C391.539 329.098 390.124 334.01 390.875 337.362C391.626 340.714 390.355 342.592 386.773 344.962C383.191 347.331 381.602 342.621 383.306 336.12C384.462 331.67 387.264 327.249 384.953 327.509C382.642 327.798 388.275 321.932 393.214 320.256C398.154 318.58 404.22 318.291 404.278 316.991C404.278 316.731 404.538 316.529 404.914 316.355C403.96 315.749 402.892 315.2 402.025 314.766C401.909 315.055 401.707 315.344 401.361 315.604C399.367 317.078 400.089 313.813 396.594 314.246C393.099 314.679 389.43 318.118 386.715 317.164C384 316.211 385.502 314.304 382.96 314.622C380.418 314.939 385.097 309.854 381.255 312.252C377.413 314.651 371.578 320.112 369.181 318.291C366.754 316.442 364.299 319.563 362.537 318.06C360.803 316.558 369.412 310.75 373.311 310.461C374.265 310.403 375.189 309.883 376.056 309.16C374.034 308.698 369.874 307.687 368.661 309.131C367.187 310.894 365.252 310.143 364.241 308.987C363.259 307.831 361.757 309.738 360.052 307.976C358.348 306.213 356.413 307.889 355.315 308.467C354.217 309.045 352.917 308.062 350.953 307.629C349.018 307.167 350.664 305.115 349.046 304.19C347.429 303.266 347.111 306.618 347.111 306.618C299.534 313.235 252.998 320.661 207.819 328.809C207.963 329.011 208.108 329.185 208.252 329.358C209.783 330.774 208.396 332.306 208.801 334.242C209.234 336.178 208.599 339.154 206.981 339.414C205.334 339.703 205.248 337.911 206.49 337.073C207.732 336.235 207.212 333.982 206.028 334.184C205.334 334.299 205.103 333.548 205.19 332.595C202.937 333.577 200.395 333.75 197.448 333.953C197.477 334.068 197.535 334.184 197.535 334.299C197.535 335.571 198.026 338.316 199.644 340.252C201.232 342.188 199.961 343.806 201.55 344.355C203.139 344.933 202.966 345.915 201.464 345.944C199.961 346.002 200.972 347.187 200.221 350.51C199.499 353.804 199.239 360.421 198.777 362.53C198.344 364.611 195.773 368.367 197.073 370.245C198.373 372.152 199.182 374.955 198.286 377.787C197.391 380.59 197.419 382.179 198.517 383.999C199.615 385.82 198.459 389.518 199.73 390.067C201.001 390.588 202.128 391.888 203.226 393.622C204.323 395.355 205.479 393.997 205.594 395.875C205.71 397.782 205.71 398.1 207.414 398.534C209.119 398.996 207.934 401.105 207.905 402.175C207.848 403.244 210.072 404.804 212.787 406.798C215.531 408.792 213.018 411.219 215.098 410.901C217.178 410.554 219.085 411.421 221.136 412.375C223.158 413.328 223.851 412.461 225.266 412.548C226.682 412.635 229.195 415.235 229.657 417.171C229.888 418.096 230.177 419.049 230.639 420.061C234.452 418.963 238.294 417.894 242.136 416.796C242.136 416.796 245.574 418.674 247.596 418.818C249.589 418.963 260.364 421.217 260.393 421.246C265.159 420.494 269.954 419.743 274.749 419.021C275.327 418.24 275.934 417.489 276.512 416.709C279.14 416.333 281.798 415.958 284.427 415.582C284.427 415.582 289.308 419.598 290.031 419.743C290.753 419.859 293.208 421.708 293.15 423.095C293.093 424.482 293.67 425.551 294.855 425.955C296.039 426.36 300.054 428.354 300.69 428.036C301.296 427.718 302.654 423.153 304.85 422.979C307.016 422.806 312.909 423.615 313.776 426.736C314.642 429.856 317.473 432.139 318.426 432.688C319.38 433.266 318.831 435.289 319.524 436.242C320.217 437.196 320.044 439.19 320.882 439.074C321.748 438.958 326.053 440.952 328.017 440.577C328.595 440.461 329.374 440.692 330.154 441.068C330.501 437.167 326.312 437.051 328.855 434.942C331.772 432.515 328.855 431.157 330.27 430.116C331.685 429.076 334.112 427.891 334.141 426.591C334.17 425.291 335.441 425.117 337.261 425.117C339.08 425.117 342.634 421.621 342.46 420.465C342.258 419.31 342.865 419.021 345.031 419.165C347.198 419.338 346.967 416.536 348.324 416.796C349.682 417.056 350.809 417.662 350.982 416.68C351.126 415.698 352.513 415.726 353.495 416.911C354.477 418.096 357.481 418.038 357.77 416.507C358.059 414.946 359.735 416.276 361.179 417.605C362.623 418.934 363.345 418.414 365.541 418.269C367.736 418.125 367.765 417.576 367.91 416.247C368.083 414.917 370.249 418.789 372.445 418.732C374.64 418.703 372.965 417.374 371.376 416.362C369.787 415.351 371.78 414.571 370.423 413.762C369.065 412.953 372.243 411.277 375.016 411.045C377.789 410.814 377.673 411.479 378.771 409.832C379.869 408.185 380.851 409.572 380.822 410.901C380.764 412.201 385.386 409.601 387.841 409.341C390.297 409.052 392.434 410.757 392.637 412.057C392.839 413.328 394.428 413.819 396.248 412.201C398.039 410.583 399.627 408.763 401.216 410.121C402.805 411.479 404.365 413.357 406.3 415.004C408.236 416.651 405.231 419.252 406.242 420.552C407.253 421.852 406.011 423.962 408.322 425.233C410.633 426.504 408.438 429.914 410.287 430.145C412.164 430.376 413.609 432.948 413.811 434.017C414.013 435.086 417.508 436.127 417.797 434.248C418.086 432.37 420.021 429.972 420.31 428.209C420.599 426.447 419.126 420.379 417.653 418.587C416.179 416.796 418.086 416.16 416.266 414.051C414.446 411.941 413.406 408.04 413.637 404.746C413.869 401.452 418.173 395.644 420.224 393.795C422.275 391.946 424.499 392.581 425.019 390.761C425.568 388.969 428.11 386.513 429.525 386.369C430.941 386.224 432.472 386.369 432.761 384.953C433.049 383.508 435.476 381.514 438.567 380.763C441.658 380.012 439.953 378.654 439.173 377.44C438.393 376.227 439.982 374.753 440.531 375.562C441.08 376.371 442.986 376.284 444.2 375.389C445.413 374.493 448.215 372.152 445.615 372.297C443.015 372.47 442.467 371.545 444.026 370.823C445.586 370.13 444.402 367.645 442.264 367.645C440.156 367.645 440.907 366.604 442.264 365.246C443.622 363.917 440.502 362.27 439.029 361.461C437.527 360.652 440.04 359.843 441.224 359.496C442.409 359.149 441.687 354.237 442.351 352.966C442.986 351.694 445.009 351.492 444.113 352.792C443.218 354.064 441.947 356.173 443.42 357.647C444.893 359.12 445.268 360.825 444.575 363.397C443.882 365.969 445.095 365.188 447.002 361.721C448.908 358.254 449.284 355.393 448.128 355.191C446.973 354.988 447.233 351.694 448.446 353.081C449.688 354.468 450.15 354.642 452.23 352.475C454.339 350.307 456.621 346.695 455.35 346.06C454.079 345.424 456.014 344.471 458.383 344.326C460.752 344.182 465.923 342.246 466.298 341.581C467.569 339.327 458.065 343.401 458.123 342.188C458.181 340.974 464.161 339.183 466.905 338.807C469.649 338.431 468.494 335.166 469.62 336.467C470.747 337.767 472.538 337.362 474.126 336.351C475.715 335.34 474.646 332.941 472.884 332.681C471.122 332.421 474.271 331.034 473.722 330.11C473.173 329.185 475.166 325.082 477.448 324.417C479.731 323.753 478.719 322.568 480.626 322.366C482.533 322.192 482.995 320.083 484.728 318.407C486.461 316.731 488.657 320.401 491.372 317.973C492.499 316.991 494.001 315.864 495.532 314.853C489.783 308.062 491.805 302.977 491.719 301.648L491.747 301.619Z" fill="url(#paint10_linear_157_11363)" stroke="url(#paint11_linear_157_11363)" stroke-width="0.294224" stroke-miterlimit="10"/>
<path d="M428.056 321.022V308.794H429.901V319.433H435.441V321.022H428.056ZM437.402 321.022V311.851H439.188V321.022H437.402ZM438.304 310.436C437.994 310.436 437.727 310.332 437.504 310.125C437.285 309.915 437.176 309.664 437.176 309.373C437.176 309.079 437.285 308.828 437.504 308.621C437.727 308.41 437.994 308.304 438.304 308.304C438.614 308.304 438.879 308.41 439.098 308.621C439.321 308.828 439.432 309.079 439.432 309.373C439.432 309.664 439.321 309.915 439.098 310.125C438.879 310.332 438.614 310.436 438.304 310.436ZM449.434 311.851L446.109 321.022H444.198L440.867 311.851H442.783L445.106 318.908H445.201L447.518 311.851H449.434ZM454.663 321.207C453.803 321.207 453.053 321.01 452.412 320.616C451.771 320.222 451.274 319.67 450.92 318.962C450.565 318.253 450.388 317.425 450.388 316.478C450.388 315.527 450.565 314.695 450.92 313.982C451.274 313.27 451.771 312.717 452.412 312.323C453.053 311.929 453.803 311.732 454.663 311.732C455.523 311.732 456.273 311.929 456.914 312.323C457.555 312.717 458.052 313.27 458.407 313.982C458.761 314.695 458.938 315.527 458.938 316.478C458.938 317.425 458.761 318.253 458.407 318.962C458.052 319.67 457.555 320.222 456.914 320.616C456.273 321.01 455.523 321.207 454.663 321.207ZM454.669 319.708C455.226 319.708 455.688 319.561 456.054 319.266C456.42 318.972 456.691 318.58 456.866 318.09C457.045 317.6 457.135 317.061 457.135 316.472C457.135 315.887 457.045 315.35 456.866 314.86C456.691 314.366 456.42 313.97 456.054 313.672C455.688 313.373 455.226 313.224 454.669 313.224C454.108 313.224 453.642 313.373 453.272 313.672C452.906 313.97 452.633 314.366 452.454 314.86C452.279 315.35 452.191 315.887 452.191 316.472C452.191 317.061 452.279 317.6 452.454 318.09C452.633 318.58 452.906 318.972 453.272 319.266C453.642 319.561 454.108 319.708 454.669 319.708ZM462.716 315.576V321.022H460.931V311.851H462.644V313.344H462.757C462.968 312.858 463.299 312.468 463.749 312.173C464.202 311.879 464.774 311.732 465.462 311.732C466.087 311.732 466.634 311.863 467.104 312.126C467.574 312.384 467.938 312.77 468.197 313.284C468.455 313.797 468.585 314.432 468.585 315.188V321.022H466.799V315.403C466.799 314.739 466.626 314.219 466.28 313.845C465.934 313.467 465.458 313.278 464.853 313.278C464.439 313.278 464.071 313.367 463.749 313.547C463.43 313.726 463.177 313.988 462.99 314.335C462.807 314.677 462.716 315.091 462.716 315.576ZM470.979 321.022V311.851H472.764V321.022H470.979ZM471.88 310.436C471.57 310.436 471.303 310.332 471.08 310.125C470.861 309.915 470.752 309.664 470.752 309.373C470.752 309.079 470.861 308.828 471.08 308.621C471.303 308.41 471.57 308.304 471.88 308.304C472.191 308.304 472.455 308.41 472.674 308.621C472.897 308.828 473.009 309.079 473.009 309.373C473.009 309.664 472.897 309.915 472.674 310.125C472.455 310.332 472.191 310.436 471.88 310.436ZM477.834 321.225C477.253 321.225 476.728 321.117 476.258 320.902C475.788 320.683 475.416 320.367 475.142 319.953C474.871 319.539 474.736 319.031 474.736 318.43C474.736 317.913 474.835 317.487 475.034 317.153C475.233 316.818 475.502 316.554 475.84 316.359C476.179 316.164 476.557 316.016 476.975 315.917C477.393 315.817 477.818 315.742 478.252 315.69C478.802 315.626 479.247 315.574 479.59 315.535C479.932 315.491 480.181 315.421 480.336 315.326C480.491 315.23 480.569 315.075 480.569 314.86V314.818C480.569 314.297 480.422 313.893 480.127 313.606C479.836 313.32 479.403 313.176 478.825 313.176C478.224 313.176 477.751 313.31 477.405 313.576C477.062 313.839 476.825 314.132 476.694 314.454L475.016 314.072C475.215 313.515 475.506 313.065 475.888 312.723C476.274 312.376 476.718 312.126 477.219 311.97C477.721 311.811 478.248 311.732 478.802 311.732C479.168 311.732 479.556 311.775 479.966 311.863C480.38 311.946 480.766 312.102 481.124 312.329C481.486 312.555 481.783 312.88 482.014 313.302C482.245 313.72 482.36 314.263 482.36 314.932V321.022H480.617V319.768H480.545C480.43 319.999 480.256 320.225 480.026 320.448C479.795 320.671 479.498 320.856 479.136 321.004C478.774 321.151 478.34 321.225 477.834 321.225ZM478.222 319.792C478.716 319.792 479.138 319.694 479.488 319.499C479.842 319.304 480.111 319.049 480.294 318.735C480.481 318.416 480.575 318.076 480.575 317.714V316.532C480.511 316.595 480.388 316.655 480.205 316.711C480.026 316.763 479.821 316.808 479.59 316.848C479.359 316.884 479.134 316.918 478.915 316.95C478.696 316.978 478.513 317.001 478.366 317.021C478.019 317.065 477.703 317.139 477.416 317.242C477.134 317.346 476.907 317.495 476.736 317.69C476.569 317.881 476.485 318.136 476.485 318.454C476.485 318.896 476.648 319.23 476.975 319.457C477.301 319.68 477.717 319.792 478.222 319.792Z" fill="white"/>
<g clip-path="url(#clip1_157_11363)">
<path d="M458.769 306.966L442.818 291.845C438.152 287.715 435.168 281.715 435.032 274.99C434.79 262.223 444.941 251.673 457.708 251.431C470.475 251.189 481.015 261.34 481.256 274.107C481.393 281.116 478.388 287.452 473.533 291.782L458.748 306.955L458.769 306.966Z" fill="white"/>
<g style="mix-blend-mode:multiply">
<path d="M471.292 285.519C476.877 280.603 477.418 272.09 472.502 266.506C467.586 260.922 459.073 260.38 453.489 265.297C447.905 270.213 447.363 278.725 452.28 284.309C457.196 289.894 465.708 290.435 471.292 285.519Z" fill="white"/>
<path d="M471.229 285.502C476.809 280.59 477.35 272.084 472.438 266.504C467.525 260.924 459.02 260.383 453.44 265.295C447.86 270.208 447.319 278.714 452.231 284.293C457.144 289.873 465.649 290.414 471.229 285.502Z" fill="#FEFEFE"/>
<path d="M471.186 285.475C476.761 280.565 477.3 272.066 472.39 266.491C467.481 260.917 458.981 260.377 453.407 265.287C447.832 270.197 447.293 278.696 452.203 284.27C457.112 289.845 465.611 290.384 471.186 285.475Z" fill="#FDFDFD"/>
<path d="M471.135 285.45C476.7 280.547 477.237 272.061 472.334 266.496C467.431 260.931 458.945 260.394 453.38 265.297C447.815 270.2 447.278 278.686 452.181 284.251C457.084 289.816 465.57 290.353 471.135 285.45Z" fill="#FCFCFC"/>
<path d="M471.092 285.422C476.652 280.522 477.187 272.043 472.287 266.483C467.387 260.923 458.907 260.388 453.347 265.288C447.787 270.188 447.252 278.668 452.152 284.228C457.052 289.787 465.532 290.322 471.092 285.422Z" fill="#FBFBFB"/>
<path d="M471.037 285.406C476.592 280.508 477.125 272.036 472.228 266.481C467.331 260.926 458.858 260.393 453.303 265.29C447.749 270.187 447.216 278.66 452.113 284.215C457.01 289.77 465.483 290.303 471.037 285.406Z" fill="#FAFAFA"/>
<path d="M470.994 285.378C476.543 280.484 477.074 272.018 472.18 266.468C467.286 260.919 458.819 260.388 453.27 265.282C447.72 270.176 447.189 278.642 452.083 284.192C456.978 289.741 465.444 290.273 470.994 285.378Z" fill="#F9F9F9"/>
<path d="M470.943 285.354C476.487 280.462 477.016 272.002 472.125 266.458C467.234 260.914 458.774 260.385 453.23 265.276C447.685 270.167 447.156 278.627 452.048 284.171C456.939 289.716 465.399 290.245 470.943 285.354Z" fill="#F8F8F8"/>
<path d="M470.9 285.326C476.439 280.438 476.966 271.985 472.078 266.445C467.189 260.906 458.736 260.379 453.197 265.268C447.658 270.156 447.13 278.609 452.019 284.148C456.907 289.687 465.361 290.215 470.9 285.326Z" fill="#F7F7F7"/>
<path d="M470.843 285.317C476.378 280.433 476.905 271.986 472.02 266.451C467.136 260.917 458.689 260.39 453.154 265.274C447.62 270.159 447.093 278.606 451.977 284.14C456.862 289.675 465.309 290.202 470.843 285.317Z" fill="#F6F6F6"/>
<path d="M470.8 285.3C476.329 280.419 476.855 271.979 471.973 266.449C467.091 260.92 458.651 260.395 453.121 265.276C447.592 270.158 447.067 278.598 451.949 284.128C456.83 289.657 465.27 290.182 470.8 285.3Z" fill="#F5F5F5"/>
<path d="M470.758 285.265C476.281 280.386 476.803 271.952 471.923 266.429C467.043 260.905 458.61 260.383 453.086 265.263C447.563 270.143 447.041 278.577 451.921 284.1C456.801 289.624 465.234 290.145 470.758 285.265Z" fill="#F4F4F4"/>
<path d="M470.714 285.249C476.233 280.372 476.752 271.945 471.875 266.426C466.998 260.908 458.571 260.388 453.053 265.265C447.535 270.142 447.015 278.569 451.892 284.088C456.769 289.606 465.196 290.126 470.714 285.249Z" fill="#F3F3F3"/>
<path d="M470.652 285.239C476.165 280.365 476.683 271.944 471.809 266.431C466.935 260.918 458.514 260.4 453.001 265.274C447.488 270.148 446.97 278.569 451.844 284.082C456.719 289.595 465.139 290.113 470.652 285.239Z" fill="#F2F2F2"/>
<path d="M470.601 285.204C476.109 280.333 476.625 271.919 471.754 266.411C466.883 260.903 458.469 260.387 452.961 265.258C447.453 270.129 446.937 278.543 451.808 284.051C456.68 289.559 465.094 290.075 470.601 285.204Z" fill="#F1F1F1"/>
<path d="M470.558 285.187C476.061 280.319 476.575 271.911 471.707 266.409C466.838 260.906 458.431 260.392 452.928 265.26C447.426 270.129 446.911 278.536 451.78 284.039C456.648 289.541 465.055 290.055 470.558 285.187Z" fill="#F0F0F0"/>
<path d="M470.514 285.17C476.012 280.305 476.524 271.904 471.659 266.407C466.793 260.909 458.392 260.397 452.895 265.262C447.397 270.128 446.885 278.529 451.751 284.026C456.616 289.524 465.017 290.036 470.514 285.17Z" fill="#EFEFEF"/>
<path d="M470.462 285.146C475.954 280.283 476.463 271.888 471.599 266.397C466.736 260.905 458.341 260.396 452.85 265.26C447.358 270.123 446.849 278.518 451.713 284.009C456.576 289.501 464.971 290.01 470.462 285.146Z" fill="#EEEEEE"/>
<path d="M470.418 285.119C475.904 280.258 476.411 271.87 471.551 266.384C466.69 260.898 458.302 260.391 452.816 265.251C447.33 270.112 446.823 278.5 451.683 283.986C456.544 289.472 464.932 289.98 470.418 285.119Z" fill="#EDEDED"/>
<path d="M470.375 285.102C475.856 280.245 476.361 271.863 471.503 266.382C466.645 260.901 458.264 260.396 452.783 265.254C447.302 270.111 446.797 278.493 451.655 283.974C456.512 289.455 464.894 289.96 470.375 285.102Z" fill="#ECECEC"/>
<path d="M470.326 285.07C475.801 280.214 476.303 271.839 471.447 266.364C466.591 260.889 458.217 260.387 452.741 265.243C447.266 270.099 446.765 278.474 451.62 283.949C456.476 289.424 464.851 289.926 470.326 285.07Z" fill="#EBEBEB"/>
<path d="M470.272 285.053C475.742 280.201 476.242 271.832 471.389 266.362C466.536 260.893 458.168 260.393 452.698 265.245C447.228 270.098 446.728 278.467 451.581 283.936C456.434 289.406 464.802 289.906 470.272 285.053Z" fill="#EAEAEA"/>
<path d="M470.23 285.029C475.693 280.178 476.19 271.816 471.339 266.353C466.488 260.889 458.126 260.392 452.663 265.243C447.199 270.094 446.702 278.456 451.553 283.92C456.404 289.383 464.766 289.88 470.23 285.029Z" fill="#E9E9E9"/>
<path d="M470.188 285.005C475.646 280.156 476.139 271.801 471.29 266.343C466.441 260.885 458.086 260.392 452.628 265.241C447.17 270.09 446.677 278.445 451.526 283.903C456.375 289.36 464.73 289.854 470.188 285.005Z" fill="#E8E8E8"/>
<path d="M470.145 284.988C475.597 280.142 476.089 271.794 471.243 266.341C466.397 260.888 458.048 260.397 452.595 265.243C447.143 270.089 446.651 278.438 451.497 283.89C456.343 289.343 464.692 289.835 470.145 284.988Z" fill="#E7E7E7"/>
<path d="M470.092 284.964C475.539 280.12 476.027 271.778 471.183 266.331C466.339 260.885 457.996 260.396 452.55 265.241C447.103 270.085 446.615 278.427 451.459 283.873C456.303 289.32 464.646 289.808 470.092 284.964Z" fill="#E6E6E6"/>
<path d="M470.05 284.94C475.491 280.098 475.976 271.762 471.133 266.321C466.291 260.881 457.955 260.396 452.515 265.238C447.074 270.08 446.589 278.416 451.432 283.857C456.274 289.297 464.61 289.782 470.05 284.94Z" fill="#E5E5E5"/>
<path d="M469.994 284.915C475.428 280.075 475.91 271.745 471.07 266.311C466.229 260.876 457.9 260.395 452.465 265.235C447.031 270.075 446.549 278.405 451.39 283.839C456.23 289.274 464.559 289.755 469.994 284.915Z" fill="#E4E4E4"/>
<path d="M469.941 284.891C475.37 280.053 475.848 271.73 471.01 266.301C466.172 260.873 457.849 260.394 452.42 265.233C446.992 270.071 446.514 278.394 451.352 283.822C456.19 289.251 464.513 289.729 469.941 284.891Z" fill="#E3E3E3"/>
<path d="M469.892 284.869C475.31 280.037 475.785 271.727 470.953 266.309C466.12 260.891 457.811 260.416 452.392 265.249C446.974 270.081 446.5 278.391 451.332 283.809C456.164 289.227 464.474 289.702 469.892 284.869Z" fill="#E2E2E2"/>
<path d="M469.85 284.845C475.262 280.015 475.734 271.712 470.903 266.3C466.073 260.887 457.77 260.416 452.358 265.246C446.945 270.077 446.474 278.38 451.304 283.792C456.135 289.204 464.438 289.676 469.85 284.845Z" fill="#E1E1E1"/>
<path d="M469.81 284.814C475.215 279.984 475.682 271.687 470.853 266.282C466.023 260.877 457.726 260.41 452.321 265.24C446.916 270.069 446.449 278.366 451.279 283.771C456.108 289.176 464.405 289.643 469.81 284.814Z" fill="#E0E0E0"/>
<path d="M469.758 284.8C475.157 279.973 475.621 271.682 470.793 266.283C465.966 260.884 457.675 260.42 452.276 265.248C446.877 270.075 446.413 278.366 451.241 283.765C456.068 289.164 464.359 289.628 469.758 284.8Z" fill="#DFDFDF"/>
<path d="M469.711 284.761C475.103 279.934 475.562 271.65 470.735 266.258C465.909 260.866 457.625 260.407 452.233 265.233C446.84 270.06 446.381 278.344 451.208 283.736C456.034 289.128 464.318 289.587 469.711 284.761Z" fill="#DFDFDF"/>
<path d="M469.671 284.74C475.056 279.914 475.51 271.637 470.685 266.251C465.86 260.866 457.582 260.412 452.197 265.237C446.811 270.062 446.357 278.34 451.182 283.725C456.008 289.111 464.285 289.565 469.671 284.74Z" fill="#DEDEDE"/>
<path d="M469.631 284.719C475.009 279.894 475.459 271.623 470.634 266.245C465.81 260.866 457.539 260.417 452.16 265.241C446.782 270.065 446.332 278.336 451.157 283.715C455.981 289.094 464.252 289.543 469.631 284.719Z" fill="#DDDDDD"/>
<path d="M469.58 284.687C474.952 279.864 475.396 271.599 470.573 266.227C465.75 260.856 457.485 260.411 452.113 265.234C446.741 270.057 446.297 278.322 451.12 283.694C455.943 289.066 464.208 289.511 469.58 284.687Z" fill="#DCDCDC"/>
<path d="M469.54 284.666C474.905 279.844 475.345 271.586 470.523 266.221C465.701 260.856 457.442 260.416 452.077 265.238C446.712 270.06 446.272 278.319 451.095 283.684C455.917 289.049 464.175 289.489 469.54 284.666Z" fill="#DBDBDB"/>
<path d="M469.5 284.646C474.858 279.824 475.293 271.573 470.472 266.214C465.651 260.856 457.399 260.421 452.041 265.242C446.683 270.063 446.248 278.315 451.069 283.673C455.89 289.031 464.142 289.467 469.5 284.646Z" fill="#DADADA"/>
<path d="M469.451 284.617C474.801 279.796 475.231 271.551 470.41 266.2C465.589 260.85 457.343 260.42 451.993 265.241C446.642 270.062 446.213 278.308 451.034 283.658C455.855 289.009 464.1 289.438 469.451 284.617Z" fill="#D9D9D9"/>
<path d="M469.406 284.591C474.748 279.771 475.172 271.531 470.351 266.189C465.53 260.846 457.291 260.423 451.948 265.243C446.605 270.064 446.182 278.304 451.003 283.646C455.824 288.989 464.063 289.412 469.406 284.591Z" fill="#D8D8D8"/>
<path d="M469.367 284.563C474.702 279.743 475.119 271.51 470.299 266.175C465.478 260.839 457.245 260.422 451.91 265.243C446.575 270.064 446.158 278.297 450.979 283.632C455.799 288.967 464.032 289.384 469.367 284.563Z" fill="#D7D7D7"/>
<path d="M469.323 284.545C474.65 279.723 475.059 271.497 470.238 266.17C465.417 260.844 457.19 260.434 451.863 265.256C446.537 270.077 446.127 278.304 450.949 283.63C455.77 288.957 463.997 289.366 469.323 284.545Z" fill="#D6D6D6"/>
<path d="M469.275 284.509C474.594 279.687 474.996 271.467 470.173 266.149C465.351 260.83 457.131 260.428 451.813 265.251C446.495 270.073 446.093 278.293 450.915 283.611C455.737 288.929 463.957 289.331 469.275 284.509Z" fill="#D5D5D5"/>
<path d="M469.239 284.484C474.549 279.661 474.943 271.447 470.121 266.138C465.298 260.828 457.084 260.433 451.774 265.256C446.464 270.079 446.07 278.293 450.893 283.603C455.716 288.912 463.93 289.307 469.239 284.484Z" fill="#D4D4D4"/>
<path d="M469.203 284.469C474.504 279.646 474.891 271.438 470.067 266.137C465.243 260.836 457.036 260.449 451.735 265.272C446.434 270.096 446.047 278.304 450.87 283.605C455.694 288.906 463.901 289.293 469.203 284.469Z" fill="#D3D3D3"/>
<path d="M469.151 284.422C474.442 279.595 474.819 271.394 469.993 266.103C465.167 260.812 456.965 260.435 451.674 265.261C446.383 270.088 446.007 278.289 450.833 283.58C455.659 288.871 463.861 289.248 469.151 284.422Z" fill="#D2D2D2"/>
<path d="M469.116 284.4C474.398 279.572 474.766 271.377 469.938 266.095C465.11 260.813 456.915 260.446 451.633 265.273C446.352 270.101 445.984 278.296 450.812 283.578C455.64 288.86 463.835 289.227 469.116 284.4Z" fill="#D1D1D1"/>
<path d="M469.083 284.37C474.355 279.54 474.712 271.351 469.882 266.079C465.052 260.808 456.862 260.45 451.591 265.281C446.32 270.111 445.962 278.3 450.792 283.572C455.623 288.843 463.812 289.2 469.083 284.37Z" fill="#D0D0D0"/>
<path d="M469.041 284.333C474.301 279.5 474.647 271.317 469.813 266.056C464.98 260.796 456.797 260.45 451.536 265.284C446.276 270.118 445.93 278.3 450.764 283.561C455.598 288.821 463.781 289.167 469.041 284.333Z" fill="#CFCFCF"/>
<path d="M469.011 284.3C474.26 279.461 474.592 271.285 469.754 266.036C464.916 260.788 456.74 260.455 451.491 265.293C446.243 270.131 445.91 278.308 450.748 283.556C455.586 288.805 463.763 289.138 469.011 284.3Z" fill="#CECECE"/>
<path d="M468.981 284.276C474.218 279.434 474.537 271.263 469.695 266.027C464.852 260.79 456.682 260.47 451.445 265.313C446.209 270.155 445.889 278.326 450.731 283.563C455.574 288.799 463.744 289.119 468.981 284.276Z" fill="#CDCDCD"/>
<path d="M468.936 284.231C474.16 279.382 474.463 271.217 469.615 265.994C464.766 260.771 456.602 260.468 451.379 265.316C446.156 270.165 445.852 278.329 450.7 283.552C455.549 288.775 463.713 289.079 468.936 284.231Z" fill="#CCCCCC"/>
<path d="M468.911 284.185C474.12 279.33 474.406 271.171 469.551 265.962C464.695 260.754 456.537 260.467 451.328 265.323C446.119 270.178 445.833 278.337 450.689 283.546C455.544 288.754 463.703 289.041 468.911 284.185Z" fill="#CBCBCB"/>
<path d="M468.887 284.153C474.08 279.29 474.348 271.137 469.485 265.944C464.621 260.751 456.469 260.483 451.276 265.346C446.082 270.21 445.815 278.362 450.678 283.556C455.541 288.749 463.694 289.017 468.887 284.153Z" fill="#CACACA"/>
<path d="M468.859 284.099C474.031 279.23 474.277 271.09 469.408 265.918C464.539 260.746 456.399 260.5 451.227 265.369C446.055 270.238 445.809 278.378 450.678 283.55C455.547 288.722 463.687 288.968 468.859 284.099Z" fill="#C9C9C9"/>
<path d="M468.823 284.066C473.977 279.186 474.198 271.052 469.318 265.898C464.438 260.745 456.304 260.523 451.15 265.403C445.997 270.284 445.775 278.418 450.655 283.571C455.536 288.725 463.67 288.946 468.823 284.066Z" fill="#C8C8C8"/>
<path d="M469.031 283.801C474.046 278.786 474.046 270.656 469.031 265.641C464.016 260.626 455.886 260.626 450.871 265.641C445.857 270.656 445.857 278.786 450.871 283.801C455.886 288.815 464.016 288.815 469.031 283.801Z" fill="#C7C7C7"/>
<path d="M468.976 283.784C473.986 278.773 473.986 270.65 468.976 265.639C463.965 260.629 455.842 260.629 450.831 265.639C445.821 270.65 445.821 278.773 450.831 283.784C455.842 288.794 463.965 288.794 468.976 283.784Z" fill="#C6C6C6"/>
<path d="M468.924 283.749C473.93 278.743 473.93 270.626 468.924 265.619C463.917 260.613 455.8 260.613 450.794 265.619C445.788 270.626 445.788 278.743 450.794 283.749C455.8 288.756 463.917 288.756 468.924 283.749Z" fill="#C5C5C5"/>
<path d="M460.062 287.484C467.134 287.347 472.766 281.505 472.629 274.433C472.493 267.361 466.65 261.729 459.578 261.865C452.506 262.002 446.874 267.844 447.011 274.916C447.147 281.988 452.99 287.62 460.062 287.484Z" fill="#C4C4C4"/>
<path d="M460.019 287.463C467.091 287.326 472.713 281.494 472.576 274.422C472.44 267.35 466.608 261.729 459.536 261.865C452.464 262.002 446.842 267.834 446.979 274.906C447.116 281.978 452.948 287.599 460.019 287.463Z" fill="#C3C3C3"/>
<path d="M459.978 287.442C467.039 287.305 472.661 281.473 472.524 274.412C472.388 267.35 466.556 261.729 459.494 261.865C452.433 262.002 446.811 267.834 446.948 274.895C447.084 281.957 452.916 287.578 459.978 287.442Z" fill="#C2C2C2"/>
<path d="M459.936 287.421C466.997 287.284 472.609 281.463 472.472 274.401C472.335 267.34 466.514 261.729 459.453 261.865C452.391 262.002 446.78 267.823 446.917 274.885C447.053 281.946 452.875 287.557 459.936 287.421Z" fill="#C1C1C1"/>
<path d="M459.893 287.4C466.944 287.263 472.555 281.442 472.419 274.391C472.282 267.34 466.461 261.729 459.41 261.865C452.359 262.002 446.748 267.823 446.884 274.874C447.021 281.925 452.842 287.536 459.893 287.4Z" fill="#C0C0C0"/>
<path d="M459.851 287.368C466.892 287.232 472.503 281.41 472.366 274.37C472.23 267.329 466.419 261.718 459.368 261.855C452.328 261.991 446.716 267.802 446.853 274.853C446.99 281.894 452.811 287.505 459.851 287.368Z" fill="#BFBFBF"/>
</g>
<g filter="url(#filter0_d_157_11363)">
<g filter="url(#filter1_d_157_11363)">
<path d="M458.212 287.705C465.652 287.568 471.557 281.421 471.421 273.981C471.284 266.541 465.137 260.636 457.697 260.773C450.258 260.909 444.352 267.056 444.489 274.496C444.625 281.936 450.772 287.841 458.212 287.705Z" fill="white"/>
</g>
</g>
<g filter="url(#filter2_d_157_11363)">
<path d="M458.212 287.705C454.787 287.768 451.645 286.549 449.228 284.489C446.612 282.083 444.951 278.657 444.878 274.832C444.741 267.393 450.647 261.256 458.086 261.109C461.512 261.046 464.654 262.265 467.071 264.324C469.687 266.731 471.347 270.156 471.421 273.981C471.558 281.421 465.652 287.557 458.212 287.705Z" fill="url(#paint12_radial_157_11363)"/>
</g>
<g filter="url(#filter3_d_157_11363)">
<path d="M452.275 286.454C453.956 287.169 455.816 287.547 457.771 287.505C465.21 287.368 471.116 281.221 470.979 273.781C470.895 269.315 468.646 265.396 465.242 263.011C465.883 263.399 466.492 263.83 467.06 264.314C469.676 266.72 471.336 270.146 471.41 273.971C471.547 281.41 465.641 287.547 458.201 287.694C456.079 287.736 454.072 287.284 452.275 286.444V286.454Z" fill="#E7ECEE"/>
</g>
</g>
</g>
<defs>
<filter id="filter0_d_157_11363" x="443.33" y="259.614" width="33.8718" height="33.8719" filterUnits="userSpaceOnUse" color-interpolation-filters="sRGB">
<feFlood flood-opacity="0" result="BackgroundImageFix"/>
<feColorMatrix in="SourceAlpha" type="matrix" values="0 0 0 0 0 0 0 0 0 0 0 0 0 0 0 0 0 0 127 0" result="hardAlpha"/>
<feOffset dx="2.31176" dy="2.31176"/>
<feGaussianBlur stdDeviation="1.73382"/>
<feColorMatrix type="matrix" values="0 0 0 0 0 0 0 0 0 0 0 0 0 0 0 0 0 0 0.2 0"/>
<feBlend mode="normal" in2="BackgroundImageFix" result="effect1_dropShadow_157_11363"/>
<feBlend mode="normal" in="SourceGraphic" in2="effect1_dropShadow_157_11363" result="shape"/>
</filter>
<filter id="filter1_d_157_11363" x="443.33" y="260.423" width="29.2483" height="29.2484" filterUnits="userSpaceOnUse" color-interpolation-filters="sRGB">
<feFlood flood-opacity="0" result="BackgroundImageFix"/>
<feColorMatrix in="SourceAlpha" type="matrix" values="0 0 0 0 0 0 0 0 0 0 0 0 0 0 0 0 0 0 127 0" result="hardAlpha"/>
<feOffset dy="0.809116"/>
<feGaussianBlur stdDeviation="0.57794"/>
<feColorMatrix type="matrix" values="0 0 0 0 0 0 0 0 0 0 0 0 0 0 0 0 0 0 0.1 0"/>
<feBlend mode="normal" in2="BackgroundImageFix" result="effect1_dropShadow_157_11363"/>
<feBlend mode="normal" in="SourceGraphic" in2="effect1_dropShadow_157_11363" result="shape"/>
</filter>
<filter id="filter2_d_157_11363" x="443.72" y="260.76" width="28.8596" height="28.9122" filterUnits="userSpaceOnUse" color-interpolation-filters="sRGB">
<feFlood flood-opacity="0" result="BackgroundImageFix"/>
<feColorMatrix in="SourceAlpha" type="matrix" values="0 0 0 0 0 0 0 0 0 0 0 0 0 0 0 0 0 0 127 0" result="hardAlpha"/>
<feOffset dy="0.809116"/>
<feGaussianBlur stdDeviation="0.57794"/>
<feColorMatrix type="matrix" values="0 0 0 0 0 0 0 0 0 0 0 0 0 0 0 0 0 0 0.1 0"/>
<feBlend mode="normal" in2="BackgroundImageFix" result="effect1_dropShadow_157_11363"/>
<feBlend mode="normal" in="SourceGraphic" in2="effect1_dropShadow_157_11363" result="shape"/>
</filter>
<filter id="filter3_d_157_11363" x="451.119" y="262.664" width="21.449" height="26.9977" filterUnits="userSpaceOnUse" color-interpolation-filters="sRGB">
<feFlood flood-opacity="0" result="BackgroundImageFix"/>
<feColorMatrix in="SourceAlpha" type="matrix" values="0 0 0 0 0 0 0 0 0 0 0 0 0 0 0 0 0 0 127 0" result="hardAlpha"/>
<feOffset dy="0.809116"/>
<feGaussianBlur stdDeviation="0.57794"/>
<feColorMatrix type="matrix" values="0 0 0 0 0 0 0 0 0 0 0 0 0 0 0 0 0 0 0.1 0"/>
<feBlend mode="normal" in2="BackgroundImageFix" result="effect1_dropShadow_157_11363"/>
<feBlend mode="normal" in="SourceGraphic" in2="effect1_dropShadow_157_11363" result="shape"/>
</filter>
<linearGradient id="paint0_linear_157_11363" x1="230.614" y1="472.087" x2="384.409" y2="472.087" gradientUnits="userSpaceOnUse">
<stop stop-color="#405F9E"/>
<stop offset="0.525" stop-color="#9023AE"/>
<stop offset="1" stop-color="#684FB2"/>
</linearGradient>
<linearGradient id="paint1_linear_157_11363" x1="230.094" y1="454.765" x2="384.841" y2="454.765" gradientUnits="userSpaceOnUse">
<stop stop-color="#DAD2D2"/>
<stop offset="0.31" stop-color="#E1DBDB"/>
<stop offset="0.81" stop-color="#F5F3F3"/>
<stop offset="1" stop-color="white"/>
</linearGradient>
<linearGradient id="paint2_linear_157_11363" x1="353.21" y1="492.408" x2="375.569" y2="492.408" gradientUnits="userSpaceOnUse">
<stop stop-color="#405F9E"/>
<stop offset="0.525" stop-color="#9023AE"/>
<stop offset="1" stop-color="#684FB2"/>
</linearGradient>
<linearGradient id="paint3_linear_157_11363" x1="352.633" y1="487.82" x2="377.302" y2="487.82" gradientUnits="userSpaceOnUse">
<stop stop-color="#DAD2D2"/>
<stop offset="0.31" stop-color="#E1DBDB"/>
<stop offset="0.81" stop-color="#F5F3F3"/>
<stop offset="1" stop-color="white"/>
</linearGradient>
<linearGradient id="paint4_linear_157_11363" x1="370.828" y1="483.595" x2="377.847" y2="483.595" gradientUnits="userSpaceOnUse">
<stop stop-color="#405F9E"/>
<stop offset="0.525" stop-color="#9023AE"/>
<stop offset="1" stop-color="#684FB2"/>
</linearGradient>
<linearGradient id="paint5_linear_157_11363" x1="370.423" y1="480.654" x2="378.483" y2="480.654" gradientUnits="userSpaceOnUse">
<stop stop-color="#DAD2D2"/>
<stop offset="0.31" stop-color="#E1DBDB"/>
<stop offset="0.81" stop-color="#F5F3F3"/>
<stop offset="1" stop-color="white"/>
</linearGradient>
<linearGradient id="paint6_linear_157_11363" x1="487.036" y1="149.034" x2="807.769" y2="149.034" gradientUnits="userSpaceOnUse">
<stop stop-color="#405F9E"/>
<stop offset="0.525" stop-color="#9023AE"/>
<stop offset="1" stop-color="#684FB2"/>
</linearGradient>
<linearGradient id="paint7_linear_157_11363" x1="486.692" y1="102.962" x2="808.231" y2="102.962" gradientUnits="userSpaceOnUse">
<stop stop-color="#DAD2D2"/>
<stop offset="0.31" stop-color="#E1DBDB"/>
<stop offset="0.81" stop-color="#F5F3F3"/>
<stop offset="1" stop-color="white"/>
</linearGradient>
<linearGradient id="paint8_linear_157_11363" x1="123.126" y1="250.503" x2="573.945" y2="250.503" gradientUnits="userSpaceOnUse">
<stop stop-color="#405F9E"/>
<stop offset="0.525" stop-color="#9023AE"/>
<stop offset="1" stop-color="#684FB2"/>
</linearGradient>
<linearGradient id="paint9_linear_157_11363" x1="122.924" y1="178.235" x2="574.397" y2="178.235" gradientUnits="userSpaceOnUse">
<stop stop-color="#DAD2D2"/>
<stop offset="0.31" stop-color="#E1DBDB"/>
<stop offset="0.81" stop-color="#F5F3F3"/>
<stop offset="1" stop-color="white"/>
</linearGradient>
<linearGradient id="paint10_linear_157_11363" x1="0" y1="373.332" x2="495.532" y2="373.332" gradientUnits="userSpaceOnUse">
<stop stop-color="#405F9E"/>
<stop offset="0.525" stop-color="#9023AE"/>
<stop offset="1" stop-color="#684FB2"/>
</linearGradient>
<linearGradient id="paint11_linear_157_11363" x1="-0.397648" y1="318.667" x2="496.138" y2="318.667" gradientUnits="userSpaceOnUse">
<stop stop-color="#DAD2D2"/>
<stop offset="0.31" stop-color="#E1DBDB"/>
<stop offset="0.81" stop-color="#F5F3F3"/>
<stop offset="1" stop-color="white"/>
</linearGradient>
<radialGradient id="paint12_radial_157_11363" cx="0" cy="0" r="1" gradientUnits="userSpaceOnUse" gradientTransform="translate(445.154 263.367) rotate(88.91) scale(38.9216 38.9216)">
<stop stop-color="#F2F2F3"/>
<stop offset="0.4" stop-color="#F5F5F6"/>
<stop offset="0.72" stop-color="white"/>
</radialGradient>
<clipPath id="clip0_157_11363">
<rect width="610.515" height="478.114" fill="white" transform="translate(0 0.28949)"/>
</clipPath>
<clipPath id="clip1_157_11363">
<rect width="46.2352" height="115.021" fill="white" transform="translate(435.031 219.907)"/>
</clipPath>
</defs>
</svg>
