<svg width="35" height="36" viewBox="0 0 35 36" fill="none" xmlns="http://www.w3.org/2000/svg">
<g clip-path="url(#clip0_356_6090)">
<path d="M20.8496 17.8613C20.8496 19.7113 19.35 21.2109 17.5 21.2109C15.65 21.2109 14.1504 19.7113 14.1504 17.8613C14.1504 16.0114 15.65 14.5117 17.5 14.5117C19.35 14.5117 20.8496 16.0114 20.8496 17.8613Z" fill="white"/>
<path d="M25.3337 11.9347C25.1726 11.4984 24.9158 11.1035 24.582 10.7793C24.2578 10.4455 23.8631 10.1886 23.4265 10.0276C23.0725 9.89008 22.5405 9.72639 21.5608 9.68179C20.501 9.63346 20.1832 9.62305 17.5001 9.62305C14.8167 9.62305 14.499 9.63319 13.4394 9.68153C12.4597 9.72639 11.9275 9.89008 11.5737 10.0276C11.1371 10.1886 10.7421 10.4455 10.4182 10.7793C10.0844 11.1035 9.82755 11.4981 9.66627 11.9347C9.52875 12.2888 9.36506 12.821 9.32047 13.8007C9.27213 14.8603 9.26172 15.178 9.26172 17.8614C9.26172 20.5445 9.27213 20.8623 9.32047 21.9221C9.36506 22.9019 9.52875 23.4338 9.66627 23.7879C9.82755 24.2245 10.0842 24.6191 10.418 24.9433C10.7421 25.2771 11.1368 25.534 11.5734 25.695C11.9275 25.8328 12.4597 25.9965 13.4394 26.041C14.499 26.0894 14.8165 26.0995 17.4998 26.0995C20.1835 26.0995 20.5012 26.0894 21.5605 26.041C22.5403 25.9965 23.0725 25.8328 23.4265 25.695C24.3029 25.3569 24.9956 24.6642 25.3337 23.7879C25.4712 23.4338 25.6349 22.9019 25.6797 21.9221C25.7281 20.8623 25.7382 20.5445 25.7382 17.8614C25.7382 15.178 25.7281 14.8603 25.6797 13.8007C25.6351 12.821 25.4714 12.2888 25.3337 11.9347ZM17.5001 23.0212C14.6501 23.0212 12.3398 20.7112 12.3398 17.8612C12.3398 15.0112 14.6501 12.7011 17.5001 12.7011C20.3498 12.7011 22.6602 15.0112 22.6602 17.8612C22.6602 20.7112 20.3498 23.0212 17.5001 23.0212ZM22.8642 13.703C22.1982 13.703 21.6583 13.163 21.6583 12.4971C21.6583 11.8311 22.1982 11.2912 22.8642 11.2912C23.5301 11.2912 24.0701 11.8311 24.0701 12.4971C24.0698 13.163 23.5301 13.703 22.8642 13.703Z" fill="white"/>
<path d="M17.5 0.361328C7.83649 0.361328 0 8.19782 0 17.8613C0 27.5248 7.83649 35.3613 17.5 35.3613C27.1635 35.3613 35 27.5248 35 17.8613C35 8.19782 27.1635 0.361328 17.5 0.361328ZM27.4882 22.0043C27.4396 23.074 27.2695 23.8043 27.0212 24.4436C26.4991 25.7934 25.4321 26.8605 24.0823 27.3825C23.4433 27.6308 22.7127 27.8007 21.6432 27.8495C20.5716 27.8984 20.2293 27.9102 17.5003 27.9102C14.771 27.9102 14.4289 27.8984 13.357 27.8495C12.2876 27.8007 11.557 27.6308 10.918 27.3825C10.2472 27.1302 9.64001 26.7347 9.13799 26.2233C8.6269 25.7216 8.23143 25.1141 7.97909 24.4436C7.73075 23.8046 7.56065 23.074 7.51205 22.0045C7.46265 20.9327 7.45117 20.5904 7.45117 17.8613C7.45117 15.1323 7.46265 14.79 7.51179 13.7184C7.56039 12.6487 7.73022 11.9183 7.97855 11.2791C8.2309 10.6086 8.62663 10.0011 9.13799 9.49932C9.63974 8.98796 10.2472 8.59249 10.9177 8.34015C11.557 8.09181 12.2873 7.92198 13.357 7.87312C14.4286 7.82425 14.771 7.8125 17.5 7.8125C20.229 7.8125 20.5714 7.82425 21.643 7.87338C22.7127 7.92198 23.443 8.09181 24.0823 8.33988C24.7528 8.59222 25.3603 8.98796 25.8623 9.49932C26.3734 10.0013 26.7691 10.6086 27.0212 11.2791C27.2698 11.9183 27.4396 12.6487 27.4885 13.7184C27.5373 14.79 27.5488 15.1323 27.5488 17.8613C27.5488 20.5904 27.5373 20.9327 27.4882 22.0043Z" fill="white"/>
</g>
<defs>
<clipPath id="clip0_356_6090">
<rect width="35" height="35" fill="white" transform="translate(0 0.361328)"/>
</clipPath>
</defs>
</svg>
