<svg width="35" height="36" viewBox="0 0 35 36" fill="none" xmlns="http://www.w3.org/2000/svg">
<g clip-path="url(#clip0_356_6081)">
<path d="M17.5 0.361328C7.83649 0.361328 0 8.19782 0 17.8613C0 27.5248 7.83649 35.3613 17.5 35.3613C27.1635 35.3613 35 27.5248 35 17.8613C35 8.19782 27.1635 0.361328 17.5 0.361328ZM12.4147 26.8164H8.15266V13.9939H12.4147V26.8164ZM10.2838 12.243H10.256C8.82584 12.243 7.90085 11.2585 7.90085 10.028C7.90085 8.7698 8.85414 7.8125 10.3121 7.8125C11.7701 7.8125 12.6673 8.7698 12.6951 10.028C12.6951 11.2585 11.7701 12.243 10.2838 12.243ZM27.7827 26.8164H23.5212V19.9567C23.5212 18.2328 22.9041 17.057 21.362 17.057C20.1847 17.057 19.4835 17.8501 19.1753 18.6157C19.0627 18.8897 19.0351 19.2726 19.0351 19.6558V26.8164H14.7734C14.7734 26.8164 14.8292 15.1969 14.7734 13.9939H19.0351V15.8095C19.6015 14.9358 20.6149 13.693 22.8761 13.693C25.6802 13.693 27.7827 15.5256 27.7827 19.464V26.8164Z" fill="white"/>
</g>
<defs>
<clipPath id="clip0_356_6081">
<rect width="35" height="35" fill="white" transform="translate(0 0.361328)"/>
</clipPath>
</defs>
</svg>
