<svg width="35" height="36" viewBox="0 0 35 36" fill="none" xmlns="http://www.w3.org/2000/svg">
<g clip-path="url(#clip0_356_6086)">
<path d="M17.5 0.361328C7.83535 0.361328 0 8.19668 0 17.8613C0 27.526 7.83535 35.3613 17.5 35.3613C27.1646 35.3613 35 27.526 35 17.8613C35 8.19668 27.1646 0.361328 17.5 0.361328Z" fill="white"/>
<path d="M19.4139 16.2776L26.9054 7.56934H25.1302L18.6253 15.1306L13.4298 7.56934H7.4375L15.294 19.0034L7.4375 28.1354H9.21286L16.0822 20.1504L21.569 28.1354H27.5613L19.4134 16.2776H19.4139ZM9.85253 8.90581H12.5794L25.131 26.8597H22.4042L9.85253 8.90581Z" fill="#080808"/>
</g>
<defs>
<clipPath id="clip0_356_6086">
<rect width="35" height="35" fill="white" transform="translate(0 0.361328)"/>
</clipPath>
</defs>
</svg>
