<svg width="35" height="36" viewBox="0 0 35 36" fill="none" xmlns="http://www.w3.org/2000/svg">
<g clip-path="url(#clip0_356_6083)">
<path d="M15.3203 21.1402L21.0128 17.8616L15.3203 14.583V21.1402Z" fill="white"/>
<path d="M17.5 0.361328C7.83649 0.361328 0 8.19782 0 17.8613C0 27.5248 7.83649 35.3613 17.5 35.3613C27.1635 35.3613 35 27.5248 35 17.8613C35 8.19782 27.1635 0.361328 17.5 0.361328ZM28.4348 17.8792C28.4348 17.8792 28.4348 21.4283 27.9846 23.1397C27.7323 24.0764 26.9937 24.815 26.0569 25.0671C24.3456 25.5176 17.5 25.5176 17.5 25.5176C17.5 25.5176 10.6723 25.5176 8.94306 25.0492C8.00632 24.7971 7.26772 24.0583 7.01538 23.1215C6.5649 21.4283 6.5649 17.8613 6.5649 17.8613C6.5649 17.8613 6.5649 14.3125 7.01538 12.6011C7.26746 11.6644 8.02422 10.9076 8.94306 10.6556C10.6544 10.2051 17.5 10.2051 17.5 10.2051C17.5 10.2051 24.3456 10.2051 26.0569 10.6734C26.9937 10.9255 27.7323 11.6644 27.9846 12.6011C28.453 14.3125 28.4348 17.8792 28.4348 17.8792Z" fill="white"/>
</g>
<defs>
<clipPath id="clip0_356_6083">
<rect width="35" height="35" fill="white" transform="translate(0 0.361328)"/>
</clipPath>
</defs>
</svg>
