<svg width="43" height="42" viewBox="0 0 43 42" fill="none" xmlns="http://www.w3.org/2000/svg">
<g clip-path="url(#clip0_2137_1163)">
<path d="M14.4232 17.9079C14.5206 18.042 14.6653 18.1342 14.828 18.1658C14.9908 18.1974 15.1595 18.166 15.3 18.078C15.4359 17.9804 15.5293 17.8345 15.5609 17.6702C15.5925 17.5059 15.56 17.3358 15.4701 17.1947C15.2104 16.7977 14.8744 16.4561 14.4817 16.1899C14.089 15.9236 13.6474 15.7379 13.1824 15.6436C12.7175 15.5493 12.2384 15.5482 11.773 15.6403C11.3076 15.7325 10.8651 15.9161 10.4712 16.1805C10.3739 16.2888 10.3156 16.4264 10.3053 16.5716C10.2951 16.7168 10.3336 16.8613 10.4146 16.9822C10.4957 17.103 10.6148 17.1934 10.753 17.239C10.8913 17.2846 11.0407 17.2828 11.1778 17.2339C11.4348 17.0641 11.7229 16.9467 12.0255 16.8886C12.3281 16.8306 12.6391 16.8329 12.9408 16.8956C13.2424 16.9582 13.5287 17.0799 13.7831 17.2536C14.0375 17.4274 14.2551 17.6497 14.4232 17.9079Z" fill="black"/>
<path d="M11.6817 27.1861C11.3801 27.1238 11.0937 27.0025 10.8392 26.8292C10.5846 26.6558 10.3668 26.4338 10.1984 26.176C10.0299 25.9181 9.91412 25.6295 9.85764 25.3268C9.80117 25.024 9.80512 24.713 9.86928 24.4118C9.85111 24.2723 9.78849 24.1425 9.6907 24.0414C9.5929 23.9403 9.46515 23.8734 9.32636 23.8507C9.18758 23.8279 9.04516 23.8505 8.9202 23.915C8.79524 23.9795 8.69441 24.0826 8.63264 24.209C8.53542 24.6736 8.53143 25.153 8.62092 25.6192C8.7104 26.0854 8.89156 26.5292 9.1539 26.9248C9.41624 27.3204 9.75453 27.66 10.1492 27.9239C10.5438 28.1878 10.9869 28.3707 11.4527 28.462H11.577C11.7181 28.437 11.8472 28.3665 11.9443 28.2611C12.0414 28.1557 12.1013 28.0214 12.1146 27.8787C12.128 27.736 12.0942 27.5929 12.0183 27.4713C11.9425 27.3498 11.8288 27.2564 11.6948 27.2057L11.6817 27.1861Z" fill="black"/>
<path d="M15.1767 24.4705C15.1878 24.3707 15.1758 24.2698 15.1417 24.1754C15.1075 24.081 15.0521 23.9958 14.9798 23.9262C14.9074 23.8567 14.82 23.8047 14.7244 23.7743C14.6287 23.744 14.5274 23.736 14.4282 23.7511C14.3289 23.7661 14.2345 23.8038 14.1522 23.8612C14.0699 23.9186 14.0018 23.9942 13.9534 24.0821C13.9049 24.1699 13.8773 24.2678 13.8728 24.3681C13.8682 24.4683 13.8867 24.5683 13.9269 24.6602C14.0392 25.5196 14.459 26.3093 15.1085 26.883C15.7581 27.4568 16.5935 27.7759 17.4602 27.7813C17.6352 27.7834 17.8102 27.7725 17.9836 27.7486C18.148 27.7196 18.2951 27.629 18.3948 27.4952C18.4945 27.3614 18.5394 27.1946 18.5202 27.0288C18.4912 26.8645 18.4006 26.7174 18.2668 26.6176C18.133 26.5179 17.9662 26.4731 17.8004 26.4923C17.1844 26.5721 16.5619 26.4039 16.0699 26.0247C15.5778 25.6456 15.2565 25.0865 15.1767 24.4705Z" fill="black"/>
<path d="M40.2691 25.4717C39.7473 25.473 39.2403 25.6451 38.8255 25.9618C38.4108 26.2784 38.1112 26.7222 37.9725 27.2253H35.7806L32.4567 23.4107C32.3962 23.3437 32.3226 23.2899 32.2404 23.2528C32.1582 23.2156 32.0692 23.1959 31.979 23.1947H23.1262V21.9712V18.6996H31.979C32.0692 18.6985 32.1582 18.6787 32.2404 18.6416C32.3226 18.6044 32.3962 18.5507 32.4567 18.4837L35.7806 14.6691H37.9725C38.1261 15.228 38.4773 15.7123 38.9608 16.032C39.4443 16.3517 40.0274 16.4852 40.6018 16.4077C41.1763 16.3302 41.7031 16.0469 42.0846 15.6105C42.4661 15.1741 42.6764 14.6141 42.6764 14.0344C42.6764 13.4547 42.4661 12.8948 42.0846 12.4583C41.7031 12.0219 41.1763 11.7387 40.6018 11.6611C40.0274 11.5836 39.4443 11.7171 38.9608 12.0368C38.4773 12.3566 38.1261 12.8408 37.9725 13.3997H35.4927C35.4025 13.4009 35.3135 13.4206 35.2313 13.4578C35.1491 13.4949 35.0754 13.5487 35.015 13.6157L31.6911 17.4303H23.1262V15.0486H31.4229C31.514 15.0492 31.6041 15.0296 31.6867 14.9911C31.7693 14.9526 31.8423 14.8963 31.9005 14.8261L34.2168 12.1042C34.3159 11.99 34.3695 11.8432 34.3673 11.692V9.15981C34.9208 9.00631 35.4 8.65739 35.716 8.17768C36.032 7.69797 36.1635 7.11998 36.086 6.55078C36.0086 5.98157 35.7274 5.45973 35.2947 5.08191C34.862 4.70409 34.307 4.4959 33.7326 4.4959C33.1581 4.4959 32.6031 4.70409 32.1704 5.08191C31.7377 5.45973 31.4566 5.98157 31.3791 6.55078C31.3017 7.11998 31.4331 7.69797 31.7491 8.17768C32.0652 8.65739 32.5443 9.00631 33.0979 9.15981V11.4761L31.135 13.7792H23.1262V10.7432H26.0248C26.1297 10.7438 26.2332 10.7191 26.3266 10.6713C26.42 10.6235 26.5005 10.5539 26.5613 10.4684L27.3727 9.15981C27.5851 9.22413 27.8052 9.25935 28.027 9.2645C28.5004 9.26707 28.9638 9.1293 29.3589 8.8686C29.754 8.60789 30.063 8.23595 30.2468 7.79974C30.4306 7.36353 30.4811 6.88264 30.3917 6.41779C30.3024 5.95294 30.0773 5.52499 29.7449 5.188C29.4125 4.85101 28.9876 4.6201 28.524 4.52442C28.0604 4.42875 27.5789 4.47261 27.1402 4.65046C26.7015 4.82832 26.3254 5.13219 26.0594 5.52369C25.7933 5.91519 25.6492 6.37676 25.6453 6.8501C25.648 7.45281 25.8823 8.03142 26.2996 8.46624L25.6453 9.47388H23.1262V4.65163C23.1262 4.61891 23.1262 4.59928 23.1262 4.57311C23.1326 4.52753 23.1326 4.48129 23.1262 4.4357C22.7482 3.35058 22.0404 2.41081 21.1018 1.74792C20.1632 1.08504 19.0408 0.732225 17.8918 0.738861C16.8282 0.746676 15.7891 1.05893 14.8974 1.6387C14.0058 2.21847 13.2988 3.04148 12.8601 4.0104C12.0348 3.753 11.1606 3.69319 10.3079 3.8358C9.45522 3.97842 8.64801 4.31947 7.95138 4.83143C7.25476 5.34339 6.68822 6.01193 6.2975 6.78311C5.90677 7.5543 5.70278 8.40653 5.70199 9.27104C5.69886 9.778 5.76939 10.2827 5.91137 10.7694C5.13314 11.0189 4.41972 11.4374 3.82222 11.995C3.22471 12.5525 2.75791 13.2353 2.45526 13.9945C2.15261 14.7536 2.02159 15.5703 2.0716 16.386C2.12161 17.2017 2.3514 17.9962 2.74452 18.7127C2.04768 19.2544 1.50557 19.9698 1.1726 20.7871C0.839628 21.6045 0.72751 22.4951 0.847499 23.3695C0.967487 24.2438 1.31536 25.0713 1.8562 25.7688C2.39705 26.4662 3.11183 27.0091 3.92882 27.343C3.42866 28.1345 3.1377 29.0401 3.08321 29.9748C3.02872 30.9095 3.21249 31.8427 3.61728 32.687C4.02208 33.5312 4.63464 34.2588 5.39754 34.8016C6.16044 35.3444 7.04868 35.6845 7.97899 35.7902C8.01188 36.6341 8.25669 37.4562 8.69085 38.1807C9.12502 38.9052 9.73456 39.5087 10.4633 39.9356C11.192 40.3626 12.0165 40.5992 12.8608 40.6237C13.705 40.6482 14.5419 40.4598 15.2942 40.0759C16.1779 40.7659 17.2678 41.1391 18.389 41.1359C19.4078 41.1311 20.4015 40.8195 21.2406 40.2418C22.0798 39.6641 22.7255 38.847 23.0935 37.897C23.0993 37.847 23.0993 37.7965 23.0935 37.7465C23.0967 37.7205 23.0967 37.6941 23.0935 37.668V32.4336H25.6453L26.2996 33.4412C25.8823 33.876 25.648 34.4546 25.6453 35.0573C25.644 35.5313 25.7834 35.9949 26.0457 36.3896C26.3081 36.7843 26.6816 37.0922 27.1191 37.2745C27.5566 37.4567 28.0383 37.5051 28.5033 37.4134C28.9682 37.3218 29.3955 37.0942 29.7311 36.7596C30.0667 36.4249 30.2954 35.9982 30.3883 35.5335C30.4813 35.0688 30.4342 34.5869 30.2532 34.149C30.0721 33.711 29.7652 33.3366 29.3712 33.0732C28.9773 32.8097 28.514 32.6691 28.0401 32.6691C27.8183 32.6743 27.5981 32.7095 27.3858 32.7738L26.5613 31.4063C26.5034 31.316 26.4242 31.2413 26.3307 31.1888C26.2371 31.1363 26.1321 31.1077 26.0248 31.1053H23.1262V28.1348H31.1284L33.0914 30.4379V32.7149C32.5288 32.8686 32.0412 33.2213 31.719 33.7073C31.3968 34.1934 31.262 34.7798 31.3396 35.3578C31.4171 35.9358 31.7017 36.466 32.1407 36.8499C32.5796 37.2338 33.1429 37.4455 33.726 37.4455C34.3092 37.4455 34.8725 37.2338 35.3114 36.8499C35.7503 36.466 36.035 35.9358 36.1125 35.3578C36.19 34.7798 36.0552 34.1934 35.733 33.7073C35.4109 33.2213 34.9232 32.8686 34.3607 32.7149V30.1631C34.3629 30.0119 34.3094 29.8651 34.2102 29.7509L31.894 27.0421C31.8358 26.9719 31.7628 26.9156 31.6802 26.8771C31.5976 26.8386 31.5074 26.819 31.4163 26.8196H23.1262V24.4641H31.6911L35.015 28.2787C35.0754 28.3457 35.1491 28.3994 35.2313 28.4366C35.3135 28.4737 35.4025 28.4935 35.4927 28.4946H37.9725C38.0908 28.9239 38.3268 29.3115 38.6538 29.6137C38.9808 29.916 39.3857 30.1208 39.823 30.205C40.2602 30.2893 40.7123 30.2496 41.1281 30.0905C41.544 29.9314 41.9071 29.6593 42.1765 29.3047C42.4459 28.9502 42.6107 28.5274 42.6525 28.0841C42.6943 27.6408 42.6113 27.1946 42.413 26.796C42.2146 26.3973 41.9087 26.0621 41.5299 25.8281C41.1511 25.5941 40.7144 25.4707 40.2691 25.4717ZM40.2691 12.8894C40.4917 12.8894 40.7093 12.9554 40.8944 13.079C41.0794 13.2027 41.2237 13.3785 41.3089 13.5841C41.394 13.7897 41.4163 14.016 41.3729 14.2343C41.3295 14.4526 41.2223 14.6532 41.0649 14.8106C40.9075 14.968 40.707 15.0751 40.4887 15.1186C40.2704 15.162 40.0441 15.1397 39.8384 15.0545C39.6328 14.9693 39.457 14.8251 39.3334 14.64C39.2097 14.455 39.1437 14.2374 39.1437 14.0148C39.1437 13.7163 39.2623 13.43 39.4733 13.219C39.6844 13.0079 39.9706 12.8894 40.2691 12.8894ZM32.6137 6.8501C32.6124 6.62697 32.6775 6.40848 32.8006 6.22241C32.9238 6.03634 33.0995 5.89108 33.3054 5.80509C33.5113 5.7191 33.7381 5.69626 33.9571 5.73948C34.176 5.78269 34.3771 5.89001 34.5349 6.04779C34.6927 6.20558 34.8 6.40671 34.8432 6.62562C34.8864 6.84454 34.8636 7.07136 34.7776 7.27727C34.6916 7.48317 34.5463 7.65887 34.3603 7.78203C34.1742 7.9052 33.9557 7.97026 33.7326 7.96897C33.4364 7.96725 33.1528 7.84882 32.9433 7.63936C32.7339 7.42991 32.6154 7.14632 32.6137 6.8501ZM28.0335 5.72469C28.2561 5.72469 28.4737 5.7907 28.6588 5.91436C28.8439 6.03802 28.9881 6.21378 29.0733 6.41943C29.1585 6.62507 29.1808 6.85135 29.1373 7.06966C29.0939 7.28797 28.9867 7.4885 28.8293 7.64589C28.6719 7.80328 28.4714 7.91046 28.2531 7.95389C28.0348 7.99731 27.8085 7.97503 27.6029 7.88985C27.3972 7.80467 27.2215 7.66042 27.0978 7.47535C26.9741 7.29027 26.9081 7.07269 26.9081 6.8501C26.9081 6.70176 26.9375 6.55488 26.9944 6.41791C27.0514 6.28094 27.1349 6.15658 27.2401 6.05199C27.3453 5.9474 27.4701 5.86465 27.6074 5.80847C27.7447 5.7523 27.8917 5.72383 28.0401 5.72469H28.0335ZM21.8503 10.1086V13.0857C21.2903 12.8079 20.6669 12.6828 20.0431 12.723C19.4193 12.7632 18.8172 12.9673 18.2974 13.3147C18.1615 13.4122 18.0681 13.5582 18.0365 13.7225C18.0049 13.8867 18.0374 14.0569 18.1273 14.198C18.2247 14.3321 18.3694 14.4243 18.5322 14.4559C18.6949 14.4875 18.8636 14.4561 19.0041 14.3681C19.4348 14.0761 19.953 13.9414 20.4714 13.9867C20.9898 14.032 21.4767 14.2545 21.8503 14.6167V18.0322V20.6495C21.291 20.368 20.6665 20.2414 20.0418 20.2828C19.417 20.3242 18.8147 20.5322 18.2974 20.885C18.1985 20.9936 18.139 21.1322 18.1284 21.2787C18.1179 21.4252 18.1569 21.571 18.2392 21.6926C18.3216 21.8142 18.4424 21.9046 18.5823 21.9492C18.7222 21.9938 18.8731 21.99 19.0106 21.9385C19.4385 21.6441 19.9549 21.5067 20.4725 21.5497C20.99 21.5926 21.4768 21.8132 21.8503 22.174V23.7836V27.4804V31.7662V37.5175C21.6453 38.0245 21.3321 38.4805 20.9325 38.8538C20.5329 39.2271 20.0566 39.5087 19.537 39.6788C19.0173 39.8489 18.4667 39.9035 17.9237 39.8387C17.3808 39.7739 16.8585 39.5914 16.3934 39.3038C16.9749 38.7853 17.3694 38.0897 17.516 37.3245C17.6627 36.5594 17.5533 35.7672 17.2047 35.0704C17.1848 34.9721 17.1426 34.8796 17.0812 34.8002C17.0198 34.7208 16.941 34.6566 16.8509 34.6125C16.7608 34.5684 16.6617 34.5456 16.5613 34.546C16.461 34.5463 16.362 34.5697 16.2722 34.6144C16.1823 34.659 16.1039 34.7238 16.0431 34.8036C15.9823 34.8834 15.9406 34.9761 15.9213 35.0746C15.902 35.1731 15.9057 35.2747 15.9319 35.3715C15.9582 35.4684 16.0064 35.5579 16.0728 35.6331C16.2067 35.9104 16.2844 36.2115 16.3012 36.5189C16.3181 36.8264 16.2738 37.1341 16.171 37.4244C16.0682 37.7146 15.9088 37.9816 15.7022 38.2098C15.4955 38.4381 15.2456 38.6231 14.967 38.7542C14.9172 38.786 14.8711 38.8233 14.8296 38.8654C14.2656 39.186 13.6282 39.3547 12.9795 39.3552C12.3308 39.3556 11.6931 39.1877 11.1287 38.868C10.5643 38.5482 10.0926 38.0874 9.75953 37.5308C9.4265 36.9741 9.24361 36.3405 9.22872 35.692C10.341 35.3714 12.4414 34.5666 12.7489 32.9832C12.7763 32.818 12.7394 32.6486 12.6456 32.5098C12.5519 32.3711 12.4086 32.2735 12.2451 32.2373C12.0855 32.2124 11.9224 32.2475 11.7871 32.3356C11.6518 32.4238 11.5539 32.5589 11.5123 32.7149C11.3225 33.6571 9.34649 34.3572 8.56132 34.5274C7.74407 34.5161 6.94736 34.2696 6.26654 33.8174C5.58572 33.3652 5.04963 32.7263 4.72243 31.9774C4.39522 31.2284 4.29076 30.401 4.42155 29.5942C4.55234 28.7874 4.91284 28.0354 5.4599 27.4281C5.53952 27.3415 5.5943 27.235 5.61848 27.1198C5.64266 27.0047 5.63535 26.8851 5.59731 26.7738C5.55923 26.6684 5.4947 26.5745 5.40992 26.5012C5.32514 26.4278 5.22293 26.3775 5.11312 26.355C4.36605 26.2085 3.68101 25.8388 3.14851 25.2947C2.616 24.7506 2.26109 24.0578 2.13064 23.3077C2.0002 22.5577 2.10037 21.7857 2.41792 21.0938C2.73547 20.4019 3.25546 19.8226 3.90919 19.4325C4.16424 19.261 4.45078 19.1418 4.75222 19.0818C5.05365 19.0219 5.36399 19.0224 5.66525 19.0832C5.9665 19.1441 6.25268 19.2641 6.50721 19.4364C6.76174 19.6086 6.97955 19.8297 7.14802 20.0868C7.20758 20.1704 7.286 20.2389 7.37693 20.2867C7.46787 20.3344 7.56877 20.3601 7.67146 20.3616C7.79973 20.3606 7.92487 20.3219 8.03133 20.2503C8.16619 20.1518 8.25825 20.0054 8.28866 19.8412C8.31908 19.677 8.28553 19.5073 8.19491 19.367C7.7288 18.6659 7.03122 18.1508 6.22399 17.9116C5.41675 17.6724 4.55115 17.7244 3.77833 18.0584C3.47747 17.4974 3.307 16.8758 3.27961 16.2398C3.25223 15.6038 3.36863 14.9698 3.62015 14.385C3.87167 13.8002 4.25184 13.2797 4.73236 12.8621C5.21289 12.4446 5.78139 12.1408 6.39556 11.9733C6.64481 12.3843 6.99518 12.7245 7.41325 12.9616C7.83133 13.1987 8.30317 13.3248 8.78379 13.3278C9.11201 13.3292 9.43782 13.2716 9.74562 13.1576C9.84509 13.1482 9.9411 13.1162 10.0263 13.0639C10.1114 13.0117 10.1835 12.9406 10.2369 12.8562C10.2904 12.7718 10.3238 12.6762 10.3346 12.5769C10.3454 12.4776 10.3333 12.3771 10.2992 12.2832C10.2651 12.1892 10.21 12.1044 10.1381 12.035C10.0661 11.9657 9.97923 11.9138 9.8841 11.8832C9.78897 11.8527 9.6881 11.8443 9.58924 11.8588C9.49038 11.8733 9.39615 11.9102 9.31378 11.9668C8.92842 12.0991 8.50646 12.0744 8.13914 11.8981C7.77182 11.7218 7.48865 11.408 7.35085 11.0246C7.35332 11.005 7.35332 10.9853 7.35085 10.9657C7.01158 10.1787 6.91836 9.30749 7.08346 8.46654C7.24856 7.62558 7.66424 6.85426 8.27587 6.25396C8.8875 5.65366 9.66645 5.25246 10.5103 5.10311C11.3542 4.95376 12.2236 5.06324 13.0041 5.41717H13.0695H13.1349C14.9474 5.77049 15.4839 7.43244 15.2026 8.91772C15.177 9.08189 15.2148 9.24966 15.3083 9.38697C15.4019 9.52428 15.5442 9.62085 15.7064 9.65709H15.8241C15.9763 9.66047 16.1249 9.61071 16.2443 9.51636C16.3637 9.42202 16.4465 9.28899 16.4785 9.14018C16.8907 6.92862 15.9419 5.07038 14.136 4.37027C14.4864 3.65594 15.0289 3.05343 15.7028 2.63041C16.3766 2.20738 17.155 1.98059 17.9506 1.9755C18.8157 1.97406 19.6603 2.23804 20.3705 2.7318C21.0807 3.22557 21.6224 3.92535 21.9223 4.73669L21.8503 10.1086ZM28.0335 33.9058C28.2564 33.9058 28.4743 33.9719 28.6595 34.0959C28.8447 34.2198 28.9889 34.396 29.0739 34.602C29.1589 34.808 29.1808 35.0347 29.1368 35.2531C29.0929 35.4716 28.985 35.6721 28.827 35.8293C28.6689 35.9864 28.4678 36.0931 28.2491 36.1357C28.0303 36.1784 27.8038 36.1552 27.5983 36.069C27.3928 35.9828 27.2175 35.8376 27.0946 35.6516C26.9717 35.4657 26.9068 35.2475 26.9081 35.0246C26.909 34.8768 26.9389 34.7307 26.9963 34.5944C27.0536 34.4582 27.1373 34.3346 27.2424 34.2308C27.3475 34.1269 27.472 34.0447 27.6089 33.9889C27.7458 33.9332 27.8923 33.9049 28.0401 33.9058H28.0335ZM34.8514 35.0246C34.8527 35.2475 34.7878 35.4657 34.665 35.6516C34.5421 35.8376 34.3668 35.9828 34.1613 36.069C33.9557 36.1552 33.7292 36.1784 33.5105 36.1357C33.2918 36.0931 33.0906 35.9864 32.9326 35.8293C32.7745 35.6721 32.6667 35.4716 32.6227 35.2531C32.5788 35.0347 32.6007 34.808 32.6857 34.602C32.7707 34.396 32.9149 34.2198 33.1001 34.0959C33.2853 33.9719 33.5032 33.9058 33.726 33.9058C33.8738 33.9049 34.0203 33.9332 34.1572 33.9889C34.2941 34.0447 34.4186 34.1269 34.5237 34.2308C34.6288 34.3346 34.7125 34.4582 34.7698 34.5944C34.8272 34.7307 34.8571 34.8768 34.858 35.0246H34.8514ZM40.2626 28.9854C40.0397 28.9867 39.8215 28.9218 39.6356 28.7989C39.4496 28.676 39.3044 28.5007 39.2182 28.2952C39.132 28.0897 39.1088 27.8632 39.1514 27.6444C39.1941 27.4257 39.3008 27.2246 39.4579 27.0665C39.6151 26.9085 39.8156 26.8006 40.034 26.7567C40.2525 26.7127 40.4792 26.7346 40.6852 26.8196C40.8912 26.9046 41.0674 27.0488 41.1913 27.234C41.3153 27.4192 41.3814 27.6371 41.3814 27.8599C41.3815 28.1562 41.2647 28.4405 41.0564 28.6511C40.8482 28.8618 40.5653 28.9819 40.2691 28.9854H40.2626Z" fill="black"/>
</g>
<defs>
<clipPath id="clip0_2137_1163">
<rect width="41.8757" height="41.8757" fill="white" transform="translate(0.78125 -0.000488281)"/>
</clipPath>
</defs>
</svg>
