<svg width="41" height="43" viewBox="0 0 41 43" fill="none" xmlns="http://www.w3.org/2000/svg">
<path fill-rule="evenodd" clip-rule="evenodd" d="M32.5805 26.8505H23.9944V34.0138C26.006 34.3327 27.5024 36.0254 27.5024 38.1352C27.5024 41.9131 23.0131 43.6793 20.4128 41.1035C17.9105 38.6503 19.3824 34.5535 22.6697 34.0138V26.8505H14.0836V30.285C17.0764 31.0455 16.6839 35.682 13.4212 35.682C10.183 35.682 9.79051 31.0455 12.7834 30.285V26.7769C10.8944 26.458 9.25081 25.5013 8.07328 24.1766L7.92609 24.1275C3.90288 23.7595 0.738281 20.3251 0.738281 16.2773C0.738281 12.4749 3.38771 9.23672 7.09201 8.47623C7.01842 4.01145 10.6001 0.405273 15.0648 0.405273C17.2727 0.405273 19.456 1.38654 20.9525 3.05471C23.1849 3.22643 25.2455 4.35489 26.6438 6.14571C30.5199 5.38523 34.4695 7.71574 35.7451 11.5427C40.7987 13.5543 42.3687 20.1288 38.5908 24.2502C37.3397 25.5994 35.6961 26.4826 33.9052 26.8015V30.285C35.1073 30.5794 36.015 31.7078 36.015 32.9835C36.015 34.4799 34.7639 35.682 33.2429 35.682C31.771 35.682 30.5444 34.4554 30.5444 32.9835C30.5444 31.7324 31.4275 30.6039 32.5805 30.285V26.8505ZM15.0648 1.72999C11.1398 1.72999 8.04875 5.01725 8.44126 8.94233C8.46579 9.28578 8.22047 9.60469 7.87703 9.65376C4.49164 10.1199 2.03847 12.892 2.03847 16.2773C2.03847 19.2702 4.12367 21.8706 6.94482 22.6311C4.51617 17.9455 7.2392 12.2296 12.3418 11.0766C12.3173 7.12698 15.212 3.71706 19.088 3.10377C17.9351 2.22063 16.5122 1.72999 15.0648 1.72999ZM33.2429 31.5116C32.5315 31.5116 31.8446 32.223 31.8446 32.9835C31.8446 33.7194 32.4824 34.3818 33.2429 34.3818C34.0524 34.3818 34.7148 33.744 34.7148 32.9835C34.7148 32.1985 34.0279 31.5116 33.2429 31.5116ZM13.4212 31.5116C11.6549 31.5116 11.5568 34.3818 13.4212 34.3818C15.3102 34.3818 15.212 31.5116 13.4212 31.5116ZM23.332 35.2895C21.7865 35.2895 20.4618 36.5897 20.4618 38.1352C20.4618 39.7052 21.7865 41.0054 23.332 41.0054C24.9266 41.0054 26.2023 39.7543 26.2023 38.1352C26.2023 36.5406 24.9266 35.2895 23.332 35.2895ZM13.3721 25.5258H33.3655C36.7264 25.1333 39.3758 22.2386 39.3758 18.9022C39.3758 16.0811 37.6095 13.5788 34.9846 12.6466C34.7884 12.573 34.6412 12.4013 34.5676 12.2051C33.5863 8.74608 29.9802 6.61181 26.5212 7.49496C26.2759 7.56855 25.9815 7.47043 25.8343 7.24964C23.4547 3.79066 18.4257 3.27549 15.4573 6.46462C14.1817 7.8384 13.5193 9.70282 13.6665 11.5672C13.6911 11.9107 13.4457 12.2296 13.1023 12.2787C9.83957 12.7202 7.38639 15.5659 7.38639 18.9022C7.36186 22.3122 9.96223 25.1333 13.3721 25.5258Z" fill="black"/>
</svg>
