<svg width="43" height="43" viewBox="0 0 43 43" fill="none" xmlns="http://www.w3.org/2000/svg">
<g clip-path="url(#clip0_2137_1144)">
<path d="M40.407 19.2738C39.4983 19.2738 38.7305 19.8593 38.4416 20.6696H34.1256V17.8779H38.3132C38.6991 17.8779 39.0111 17.5659 39.0111 17.18C39.0111 16.794 38.6991 16.4821 38.3132 16.4821H34.1256V13.6903H39.0111C39.7809 13.6903 40.407 13.0643 40.407 12.2945V10.7702C41.2173 10.4813 41.8028 9.71354 41.8028 8.80484C41.8028 7.65046 40.8634 6.71105 39.709 6.71105C38.5547 6.71105 37.6152 7.65046 37.6152 8.80484C37.6152 9.71354 38.2008 10.4813 39.0111 10.7702V12.2945H34.1256V11.5966C34.1256 10.0569 32.8735 8.80484 31.3339 8.80484H30.636V3.91933H32.1602C32.4492 4.72963 33.2169 5.31519 34.1256 5.31519C35.28 5.31519 36.2194 4.37578 36.2194 3.2214C36.2194 2.06703 35.28 1.12762 34.1256 1.12762C33.2169 1.12762 32.4492 1.71318 32.1602 2.52347H30.636C29.8661 2.52347 29.2401 3.14952 29.2401 3.91933V8.80484H26.4484V4.61726C26.4484 4.23131 26.1364 3.91933 25.7504 3.91933C25.3645 3.91933 25.0525 4.23131 25.0525 4.61726V8.80484H22.2608V4.48884C23.0711 4.1999 23.6567 3.43218 23.6567 2.52347C23.6567 1.3691 22.7172 0.429688 21.5629 0.429688C20.4085 0.429688 19.4691 1.3691 19.4691 2.52347C19.4691 3.43218 20.0546 4.1999 20.8649 4.48884V8.80484H18.0732V4.61726C18.0732 4.23131 17.7613 3.91933 17.3753 3.91933C16.9893 3.91933 16.6774 4.23131 16.6774 4.61726V8.80484H13.8857V3.91933C13.8857 3.14952 13.2596 2.52347 12.4898 2.52347H10.9655C10.6766 1.71318 9.90885 1.12762 9.00015 1.12762C7.84577 1.12762 6.90636 2.06703 6.90636 3.2214C6.90636 4.37578 7.84577 5.31519 9.00015 5.31519C9.90885 5.31519 10.6766 4.72963 10.9655 3.91933H12.4898V8.80484H11.7919C10.2522 8.80484 9.00015 10.0569 9.00015 11.5966V12.2945H4.11465V10.7702C4.92494 10.4813 5.5105 9.71354 5.5105 8.80484C5.5105 7.65046 4.57109 6.71105 3.41672 6.71105C2.26234 6.71105 1.32293 7.65046 1.32293 8.80484C1.32293 9.71354 1.90849 10.4813 2.71879 10.7702V12.2945C2.71879 13.0643 3.34483 13.6903 4.11465 13.6903H9.00015V16.4821H4.81257C4.42662 16.4821 4.11465 16.794 4.11465 17.18C4.11465 17.5659 4.42662 17.8779 4.81257 17.8779H9.00015V20.6696H4.68416C4.39521 19.8593 3.62749 19.2738 2.71879 19.2738C1.56441 19.2738 0.625 20.2132 0.625 21.3676C0.625 22.5219 1.56441 23.4613 2.71879 23.4613C3.62749 23.4613 4.39521 22.8758 4.68416 22.0655H9.00015V24.8572H4.81257C4.42662 24.8572 4.11465 25.1692 4.11465 25.5551C4.11465 25.9411 4.42662 26.2531 4.81257 26.2531H9.00015V29.0448H4.11465C3.34483 29.0448 2.71879 29.6708 2.71879 30.4406V31.9649C1.90849 32.2539 1.32293 33.0216 1.32293 33.9303C1.32293 35.0847 2.26234 36.0241 3.41672 36.0241C4.57109 36.0241 5.5105 35.0847 5.5105 33.9303C5.5105 33.0216 4.92494 32.2539 4.11465 31.9649V30.4406H9.00015V31.1386C9.00015 32.6782 10.2522 33.9303 11.7919 33.9303H12.4898V38.8158H10.9655C10.6766 38.0055 9.90885 37.4199 9.00015 37.4199C7.84577 37.4199 6.90636 38.3593 6.90636 39.5137C6.90636 40.6681 7.84577 41.6075 9.00015 41.6075C9.90885 41.6075 10.6766 41.0219 10.9655 40.2116H12.4898C13.2596 40.2116 13.8857 39.5856 13.8857 38.8158V33.9303H16.6774V38.1179C16.6774 38.5038 16.9893 38.8158 17.3753 38.8158C17.7613 38.8158 18.0732 38.5038 18.0732 38.1179V33.9303H20.8649V38.2463C20.0546 38.5352 19.4691 39.3029 19.4691 40.2116C19.4691 41.366 20.4085 42.3054 21.5629 42.3054C22.7172 42.3054 23.6567 41.366 23.6567 40.2116C23.6567 39.3029 23.0711 38.5352 22.2608 38.2463V33.9303H25.0525V38.1179C25.0525 38.5038 25.3645 38.8158 25.7504 38.8158C26.1364 38.8158 26.4484 38.5038 26.4484 38.1179V33.9303H29.2401V38.8158C29.2401 39.5856 29.8661 40.2116 30.636 40.2116H32.1602C32.4492 41.0219 33.2169 41.6075 34.1256 41.6075C35.28 41.6075 36.2194 40.6681 36.2194 39.5137C36.2194 38.3593 35.28 37.4199 34.1256 37.4199C33.2169 37.4199 32.4492 38.0055 32.1602 38.8158H30.636V33.9303H31.3339C32.8735 33.9303 34.1256 32.6782 34.1256 31.1386V30.4406H39.0111V31.9649C38.2008 32.2539 37.6152 33.0216 37.6152 33.9303C37.6152 35.0847 38.5547 36.0241 39.709 36.0241C40.8634 36.0241 41.8028 35.0847 41.8028 33.9303C41.8028 33.0216 41.2173 32.2539 40.407 31.9649V30.4406C40.407 29.6708 39.7809 29.0448 39.0111 29.0448H34.1256V26.2531H38.3132C38.6991 26.2531 39.0111 25.9411 39.0111 25.5551C39.0111 25.1692 38.6991 24.8572 38.3132 24.8572H34.1256V22.0655H38.4416C38.7305 22.8758 39.4983 23.4613 40.407 23.4613C41.5613 23.4613 42.5007 22.5219 42.5007 21.3676C42.5007 20.2132 41.5613 19.2738 40.407 19.2738ZM39.709 8.10691C40.0943 8.10691 40.407 8.41958 40.407 8.80484C40.407 9.19009 40.0943 9.50277 39.709 9.50277C39.3238 9.50277 39.0111 9.19009 39.0111 8.80484C39.0111 8.41958 39.3238 8.10691 39.709 8.10691ZM34.1256 2.52347C34.5109 2.52347 34.8235 2.83615 34.8235 3.2214C34.8235 3.60666 34.5109 3.91933 34.1256 3.91933C33.7403 3.91933 33.4277 3.60666 33.4277 3.2214C33.4277 2.83615 33.7403 2.52347 34.1256 2.52347ZM21.5629 1.82555C21.9481 1.82555 22.2608 2.13822 22.2608 2.52347C22.2608 2.90873 21.9481 3.2214 21.5629 3.2214C21.1776 3.2214 20.8649 2.90873 20.8649 2.52347C20.8649 2.13822 21.1776 1.82555 21.5629 1.82555ZM9.00015 3.91933C8.61489 3.91933 8.30222 3.60666 8.30222 3.2214C8.30222 2.83615 8.61489 2.52347 9.00015 2.52347C9.38541 2.52347 9.69808 2.83615 9.69808 3.2214C9.69808 3.60666 9.38541 3.91933 9.00015 3.91933ZM3.41672 8.10691C3.80197 8.10691 4.11465 8.41958 4.11465 8.80484C4.11465 9.19009 3.80197 9.50277 3.41672 9.50277C3.03146 9.50277 2.71879 9.19009 2.71879 8.80484C2.71879 8.41958 3.03146 8.10691 3.41672 8.10691ZM2.71879 22.0655C2.33353 22.0655 2.02086 21.7528 2.02086 21.3676C2.02086 20.9823 2.33353 20.6696 2.71879 20.6696C3.10404 20.6696 3.41672 20.9823 3.41672 21.3676C3.41672 21.7528 3.10404 22.0655 2.71879 22.0655ZM3.41672 34.6282C3.03146 34.6282 2.71879 34.3155 2.71879 33.9303C2.71879 33.545 3.03146 33.2324 3.41672 33.2324C3.80197 33.2324 4.11465 33.545 4.11465 33.9303C4.11465 34.3155 3.80197 34.6282 3.41672 34.6282ZM9.00015 40.2116C8.61489 40.2116 8.30222 39.899 8.30222 39.5137C8.30222 39.1285 8.61489 38.8158 9.00015 38.8158C9.38541 38.8158 9.69808 39.1285 9.69808 39.5137C9.69808 39.899 9.38541 40.2116 9.00015 40.2116ZM21.5629 40.9096C21.1776 40.9096 20.8649 40.5969 20.8649 40.2116C20.8649 39.8264 21.1776 39.5137 21.5629 39.5137C21.9481 39.5137 22.2608 39.8264 22.2608 40.2116C22.2608 40.5969 21.9481 40.9096 21.5629 40.9096ZM34.1256 38.8158C34.5109 38.8158 34.8235 39.1285 34.8235 39.5137C34.8235 39.899 34.5109 40.2116 34.1256 40.2116C33.7403 40.2116 33.4277 39.899 33.4277 39.5137C33.4277 39.1285 33.7403 38.8158 34.1256 38.8158ZM39.709 34.6282C39.3238 34.6282 39.0111 34.3155 39.0111 33.9303C39.0111 33.545 39.3238 33.2324 39.709 33.2324C40.0943 33.2324 40.407 33.545 40.407 33.9303C40.407 34.3155 40.0943 34.6282 39.709 34.6282ZM32.7297 31.1386C32.7297 31.9084 32.1037 32.5344 31.3339 32.5344H11.7919C11.022 32.5344 10.396 31.9084 10.396 31.1386V11.5966C10.396 10.8267 11.022 10.2007 11.7919 10.2007H31.3339C32.1037 10.2007 32.7297 10.8267 32.7297 11.5966V31.1386ZM40.407 22.0655C40.0217 22.0655 39.709 21.7528 39.709 21.3676C39.709 20.9823 40.0217 20.6696 40.407 20.6696C40.7922 20.6696 41.1049 20.9823 41.1049 21.3676C41.1049 21.7528 40.7922 22.0655 40.407 22.0655Z" fill="black"/>
<path d="M18.4295 15.9307C18.3185 15.4337 17.8851 15.0862 17.3749 15.0862C16.8647 15.0862 16.4313 15.4338 16.3197 15.9321L13.9013 26.7995C13.8183 27.1757 14.0556 27.5484 14.4318 27.6322C14.8024 27.7145 15.1799 27.4793 15.2644 27.1017L16.0747 23.4606H18.6745L19.4848 27.1017C19.5574 27.4277 19.8463 27.6482 20.1659 27.6482C20.2162 27.6482 20.2678 27.6426 20.3181 27.6322C20.6943 27.5484 20.9316 27.1757 20.8485 26.7995L18.4295 15.9307ZM16.386 22.0655L17.3756 17.6183L18.3653 22.0655H16.386Z" fill="black"/>
<path d="M27.1462 16.482C27.5322 16.482 27.8442 16.1701 27.8442 15.7841C27.8442 15.3982 27.5322 15.0862 27.1462 15.0862H22.9587C22.5727 15.0862 22.2607 15.3982 22.2607 15.7841C22.2607 16.1701 22.5727 16.482 22.9587 16.482H24.3545V26.253H22.9587C22.5727 26.253 22.2607 26.565 22.2607 26.951C22.2607 27.3369 22.5727 27.6489 22.9587 27.6489H27.1462C27.5322 27.6489 27.8442 27.3369 27.8442 26.951C27.8442 26.565 27.5322 26.253 27.1462 26.253H25.7504V16.482H27.1462Z" fill="black"/>
</g>
<defs>
<clipPath id="clip0_2137_1144">
<rect width="41.8757" height="41.8757" fill="white" transform="translate(0.625 0.429688)"/>
</clipPath>
</defs>
</svg>
