<svg width="43" height="43" viewBox="0 0 43 43" fill="none" xmlns="http://www.w3.org/2000/svg">
<g clip-path="url(#clip0_2137_1150)">
<path d="M34.3064 17.8474H36.4002C36.7857 17.8474 37.0982 17.5349 37.0982 17.1495V15.0556C37.0982 14.6702 36.7857 14.3577 36.4002 14.3577C36.0148 14.3577 35.7023 14.6702 35.7023 15.0556V16.4515H34.3064C33.9209 16.4515 33.6084 16.764 33.6084 17.1495C33.6084 17.5349 33.9209 17.8474 34.3064 17.8474Z" fill="black"/>
<path d="M17.8865 15.0556C19.4283 15.0556 20.6784 13.8055 20.6784 12.2637C20.6784 10.722 19.4283 9.47192 17.8865 9.47192C16.3444 9.47192 15.0947 10.722 15.0947 12.2637C15.0947 13.8055 16.3444 15.0556 17.8865 15.0556ZM17.8865 10.8678C18.6574 10.8678 19.2824 11.4929 19.2824 12.2637C19.2824 13.0346 18.6574 13.6596 17.8865 13.6596C17.1153 13.6596 16.4906 13.0346 16.4906 12.2637C16.4906 11.4929 17.1153 10.8678 17.8865 10.8678Z" fill="black"/>
<path d="M2.64158 14.8237C2.93706 14.9764 3.26524 15.0558 3.59786 15.0555C4.48632 15.0555 5.27663 14.4914 5.56597 13.651L11.0549 13.5662L10.0972 14.3575C9.83344 14.5743 9.76528 14.9498 9.93602 15.2453L11.2403 17.4983L11.2689 20.6391H7.78559C7.74469 20.6432 7.70413 20.6514 7.6646 20.6636C7.33505 19.6934 6.35185 19.1041 5.3407 19.2711C4.3299 19.4381 3.58832 20.3123 3.58832 21.3371C3.58832 22.3618 4.3299 23.236 5.3407 23.403C6.35185 23.57 7.33505 22.9807 7.6646 22.0105C7.70413 22.0227 7.74469 22.0309 7.78559 22.035H11.9733C12.1594 22.035 12.338 21.9607 12.4688 21.8285C12.6 21.6963 12.673 21.517 12.6713 21.3309L12.6392 17.7934L14.8725 16.9561C15.0241 17.0542 15.1782 17.1439 15.3339 17.2253L15.8049 20.055C15.8611 20.3913 16.1525 20.6381 16.494 20.6377H16.859V24.1275H14.7651C14.3797 24.1275 14.0672 24.44 14.0672 24.8255V35.0071L7.99006 41.0842C7.79036 41.2839 7.73072 41.5842 7.83875 41.8449C7.94678 42.1056 8.20136 42.2757 8.48354 42.2757H30.8181C31.1002 42.2757 31.3548 42.1056 31.4625 41.8449C31.5705 41.5842 31.5109 41.2839 31.3115 41.0842L26.6303 36.403V32.6975L28.1929 30.0949C30.8293 31.6857 32.4232 32.5043 32.9119 32.5043H37.0996C37.4851 32.5043 37.7976 32.1918 37.7976 31.8064V27.9076L38.9883 26.7169C39.1189 26.5857 39.1928 26.4081 39.1935 26.2227V24.1289H40.2132C40.6855 24.1289 41.1262 23.89 41.3838 23.4936C41.6411 23.0976 41.681 22.598 41.4891 22.1662L39.3189 17.2805C40.1426 16.2997 40.5925 15.0596 40.5894 13.7788C40.6051 9.15933 37.9929 4.93309 33.8542 2.88115L31.8299 1.86762C31.5228 1.7146 31.15 1.8073 30.9506 2.08675L30.6582 2.4923H25.9324V1.09639C25.9324 0.710949 25.6199 0.398438 25.2344 0.398438H18.2549C17.8695 0.398438 17.5569 0.710949 17.5569 1.09639V3.88821H16.4919C16.1505 3.88787 15.8587 4.13494 15.8029 4.47165L15.3319 7.30061C15.1761 7.38207 15.0217 7.47135 14.8704 7.56984L12.1826 6.56279C11.8632 6.44283 11.504 6.57165 11.3333 6.86712L10.6295 8.08649C10.6115 8.08649 10.5968 8.07593 10.5788 8.07593H6.38968V5.85359C7.35107 5.51381 7.9277 4.53061 7.75525 3.5256C7.58281 2.52024 6.71139 1.78583 5.69172 1.78583C4.67172 1.78583 3.8003 2.52024 3.62785 3.5256C3.45541 4.53061 4.03238 5.51381 4.99377 5.85359V8.77388C4.99377 9.15933 5.30628 9.47184 5.69172 9.47184H9.86888C9.80481 9.72914 9.89342 10.0001 10.0972 10.1698L12.311 11.9927C12.311 12.0438 12.311 12.096 12.3069 12.1478L5.56324 12.2517C5.2463 11.367 4.37829 10.8016 3.44075 10.8698C2.50322 10.9376 1.72586 11.6219 1.53978 12.5431C1.35337 13.4646 1.8039 14.397 2.64158 14.8237ZM5.69172 22.035C5.30628 22.035 4.99377 21.7225 4.99377 21.3371C4.99377 20.9516 5.30628 20.6391 5.69172 20.6391C6.07717 20.6391 6.38968 20.9516 6.38968 21.3371C6.38968 21.7225 6.07717 22.035 5.69172 22.035ZM5.69172 3.19025C6.07717 3.19025 6.38968 3.50276 6.38968 3.88821C6.38968 4.27365 6.07717 4.58616 5.69172 4.58616C5.30628 4.58616 4.99377 4.27365 4.99377 3.88821C4.99377 3.50276 5.30628 3.19025 5.69172 3.19025ZM18.2549 20.6391H19.2838C19.6246 20.6391 19.9156 20.3927 19.9718 20.0563L20.4435 17.2267C20.5986 17.1459 20.7529 17.056 20.9043 16.9575L23.5935 17.9645C23.9128 18.0845 24.272 17.9557 24.4428 17.6602L24.7382 17.1493H28.0262C28.0777 17.1452 28.1285 17.135 28.1776 17.1187L29.4222 18.7777V19.9411H26.6303V21.3371H28.2406L26.3713 22.0844C26.1062 22.1904 25.932 22.4474 25.9324 22.733V24.1289H18.2549V20.6391ZM25.8387 9.28474L25.5442 8.77388H27.3283V11.5657H23.9857L25.6782 10.1698C25.9402 9.95304 26.0077 9.57953 25.8387 9.28474ZM27.3283 12.9616V15.7534H25.5442L25.8387 15.2426C26.0077 14.9478 25.9402 14.5743 25.6782 14.3575L23.9857 12.9616H27.3283ZM22.6471 30.206L25.2344 32.7933V33.2023H21.0467V25.5248H22.4426V29.7125C22.4426 29.8976 22.5162 30.0751 22.6471 30.206ZM18.2229 39.4839H18.2549V39.4477L20.8743 36.4542C20.9857 36.3267 21.0467 36.1631 21.0467 35.9941V34.5982H22.4426V40.8798H16.9984L18.2229 39.4839ZM10.1684 40.8798L15.2586 35.7896C15.3895 35.6587 15.4631 35.4812 15.4631 35.2961V25.5248H19.6508V35.7317L18.2549 37.3273V33.9002H16.859V38.9256L15.1461 40.8798H10.1684ZM29.1332 40.8798H23.8385V34.5982H25.2344V36.692C25.2344 36.8771 25.308 37.0546 25.4389 37.1855L29.1332 40.8798ZM25.7927 31.3793L23.8385 29.4249V25.5248H25.9324V28.3166C25.9324 28.5572 26.0564 28.7808 26.2602 28.9086C26.5206 29.0718 26.7558 29.2156 27.0015 29.3669L25.7927 31.3793ZM31.7372 3.3828L33.2295 4.12983C36.8941 5.94628 39.2071 9.68858 39.1935 13.7788C39.1966 14.8585 38.7675 15.8945 38.0021 16.6559C37.7979 16.86 37.7403 17.1688 37.8576 17.4325L40.2132 22.733H38.4956C38.1101 22.733 37.7976 23.0455 37.7976 23.4309V25.5248H37.6776C36.598 25.5278 35.5623 25.0988 34.8013 24.3333C34.5273 24.0689 34.0921 24.0726 33.8229 24.3419C33.5536 24.6111 33.5499 25.0463 33.8144 25.3203C34.6415 26.1501 35.7157 26.6889 36.8754 26.8559L36.6062 27.1252C36.4753 27.256 36.4017 27.4336 36.4017 27.6186V31.1084L32.978 31.1125C31.3657 30.3668 29.8086 29.506 28.3193 28.5371L28.3159 28.5337H28.3115C27.983 28.334 27.6534 28.1315 27.3283 27.9298V23.2053L30.3791 21.9856C30.6443 21.8796 30.8181 21.6226 30.8181 21.3371V18.5452C30.8181 18.3943 30.769 18.2474 30.6783 18.1264L28.7242 15.521V7.6012L31.7372 3.3828ZM18.9528 1.79435H24.5365V3.19025C24.5365 3.5757 24.849 3.88821 25.2344 3.88821H29.6614L27.4588 6.97243C27.3736 7.09068 27.328 7.23246 27.3283 7.37798H24.7382L24.4428 6.86712C24.272 6.57165 23.9128 6.44283 23.5935 6.56279L20.907 7.56984C20.7557 7.47135 20.6013 7.38138 20.4462 7.30061L19.9718 4.47097C19.9156 4.1346 19.6246 3.88821 19.2838 3.88821H18.9528V1.79435ZM11.4406 9.47184L12.2453 8.07593L14.7239 9.00494C14.9464 9.0881 15.1959 9.05266 15.3861 8.91054C15.6488 8.71254 15.9341 8.54623 16.2357 8.41502C16.4541 8.3213 16.6099 8.12262 16.6487 7.88815L17.0829 5.28411H18.6925L19.1267 7.88883C19.1655 8.1233 19.3212 8.32199 19.5397 8.4157C19.8413 8.54725 20.1262 8.71356 20.3893 8.91122C20.5795 9.05334 20.8286 9.08878 21.0508 9.00563L23.5301 8.07593L24.334 9.47184L22.2923 11.152C22.109 11.3029 22.0149 11.5374 22.0432 11.7736C22.0861 12.0994 22.0861 12.4293 22.0432 12.7551C22.0149 12.9913 22.109 13.2257 22.2923 13.377L24.334 15.0555L23.5301 16.4514L21.0508 15.5224C20.8286 15.4392 20.5795 15.4746 20.3893 15.6168C20.1262 15.8144 19.8413 15.9807 19.5397 16.1123C19.3212 16.206 19.1655 16.4047 19.1267 16.6392L18.6925 19.2432H17.0822L16.6494 16.6385C16.6105 16.404 16.4548 16.2053 16.2363 16.1116C15.9347 15.9804 15.6495 15.8141 15.3871 15.6161C15.1966 15.474 14.9471 15.4382 14.7246 15.5217L12.2453 16.4514L11.4406 15.0555L13.4824 13.3753C13.4946 13.3634 13.5066 13.3505 13.5178 13.3372C13.5314 13.3242 13.544 13.3109 13.5563 13.2966C13.6088 13.24 13.6511 13.1749 13.6817 13.1041L13.6862 13.0962C13.7151 13.0195 13.7305 12.9378 13.7308 12.8556C13.7332 12.8457 13.7352 12.8355 13.7363 12.8256C13.7363 12.8171 13.7322 12.8103 13.7315 12.8018C13.7308 12.7933 13.7315 12.7697 13.7315 12.7537C13.6885 12.4279 13.6885 12.098 13.7315 11.7722C13.7594 11.536 13.6654 11.3016 13.4817 11.1503L11.4406 9.47184ZM2.97727 12.6426C3.06042 12.476 3.20765 12.3502 3.38486 12.2936C3.74202 12.2027 4.10838 12.4051 4.22152 12.7561C4.33467 13.1068 4.15507 13.4851 3.81222 13.6197C3.44518 13.7376 3.0519 13.5359 2.93399 13.1688C2.87844 12.9947 2.89377 12.8055 2.97727 12.6426Z" fill="black"/>
<path d="M16.8584 28.3167H18.2543V29.7126H16.8584V28.3167Z" fill="black"/>
<path d="M16.8584 31.1084H18.2543V32.5043H16.8584V31.1084Z" fill="black"/>
<path d="M21.0459 19.9412H22.4418V21.3371H21.0459V19.9412Z" fill="black"/>
<path d="M23.8379 19.9412H25.2338V21.3371H23.8379V19.9412Z" fill="black"/>
<path d="M30.1191 7.37793H31.515V10.1697H30.1191V7.37793Z" fill="black"/>
<path d="M30.1191 11.5657H31.515V12.9616H30.1191V11.5657Z" fill="black"/>
<path d="M30.1191 14.3577H31.515V15.7536H30.1191V14.3577Z" fill="black"/>
</g>
<defs>
<clipPath id="clip0_2137_1150">
<rect width="41.8772" height="41.8772" fill="white" transform="translate(0.625 0.398438)"/>
</clipPath>
</defs>
</svg>
