<svg width="43" height="30" viewBox="0 0 43 30" fill="none" xmlns="http://www.w3.org/2000/svg">
<path d="M12.5862 14.5664C12.3681 14.533 12.1481 14.5142 11.9276 14.5102C11.4321 14.504 11.2214 14.6859 11.2228 14.6857C11.0767 14.7888 11.0059 14.9427 11.0059 15.155C11.0059 15.2903 11.0305 15.3961 11.0787 15.4704C11.1102 15.5198 11.1235 15.5384 11.2187 15.6144L11.2201 15.6152C11.2185 15.6147 11.437 15.7866 11.931 15.7569C12.2787 15.7359 12.5865 15.6697 12.5865 15.6697H12.5862V14.5664Z" fill="black"/>
<path d="M27.1093 13.1233C26.7892 13.1233 26.5627 13.2325 26.4137 13.4603C26.2638 13.6895 26.1875 14.0158 26.1875 14.4312C26.1875 14.8467 26.2634 15.1759 26.4137 15.4067C26.563 15.6354 26.7907 15.7468 27.1093 15.7468C27.4278 15.7468 27.6564 15.6345 27.8078 15.4052C27.9594 15.173 28.037 14.8455 28.0371 14.4304C28.037 14.0154 27.9603 13.6893 27.8078 13.4603C27.657 13.2336 27.4293 13.1233 27.1093 13.1233Z" fill="black"/>
<path d="M17.3567 13.1047C17.0382 13.1047 16.8116 13.2293 16.6627 13.4571C16.5635 13.6063 16.5001 13.7985 16.4658 14.0292L18.1969 14.0295C18.1804 13.8063 18.1367 13.6072 18.0368 13.4571C17.886 13.23 17.6751 13.1047 17.3567 13.1047Z" fill="black"/>
<path d="M33.6245 4.64718C32.3677 4.64652 31.125 4.91136 29.9776 5.42425C28.6851 3.13156 26.2846 1.59279 23.5149 1.59279C21.4375 1.59279 19.5572 2.46367 18.2061 3.87011L18.2077 3.87812C16.7305 1.93164 14.3762 0.67749 11.7449 0.67749C7.25179 0.67749 3.60492 4.30898 3.60492 8.8022C3.60377 9.91387 3.83164 11.0138 4.27428 12.0336C2.18769 13.2645 0.78125 15.5419 0.78125 18.1577C0.78125 22.0509 3.90492 25.2206 7.76722 25.2206C8.25018 25.2209 8.73183 25.1708 9.20441 25.0711C10.2661 27.9486 13.0205 29.9951 16.2673 29.9951C19.3756 29.9951 22.0453 28.1023 23.1916 25.4096C24.0926 25.849 25.0821 26.0763 26.0845 26.0744C28.5465 26.0744 30.7085 24.7049 31.8395 22.6891C32.4212 22.8048 33.0151 22.866 33.6244 22.866C38.6101 22.866 42.657 18.7883 42.657 13.7566C42.657 8.72491 38.6101 4.64718 33.6245 4.64718ZM9.78233 15.2119C9.78233 15.9473 9.24841 16.4044 8.38979 16.4044C7.96817 16.4044 7.56504 16.3382 7.13728 16.1121C7.0573 16.0658 6.97739 16.0245 6.89879 15.9675C6.89028 15.9554 6.85462 15.941 6.88096 15.8724L6.8803 15.8712L7.04961 15.4003C7.07635 15.3197 7.13794 15.3466 7.16256 15.3615C7.20918 15.3899 7.24369 15.4153 7.30413 15.4506C7.80427 15.7667 8.26572 15.7692 8.41049 15.7692C8.78287 15.7692 9.01523 15.5706 9.01523 15.3044V15.2899C9.01523 15.0006 8.65822 14.8905 8.24585 14.7637L8.15473 14.7353C7.58851 14.5737 6.98221 14.3399 6.98221 13.6227V13.6081C6.98221 12.928 7.53159 12.4525 8.31782 12.4525L8.40353 12.4522C8.86515 12.4522 9.31139 12.5861 9.63453 12.783C9.6639 12.8006 9.69252 12.8345 9.67625 12.8797C9.66087 12.9227 9.51733 13.307 9.50081 13.3505C9.47047 13.431 9.38712 13.3771 9.38712 13.3771C9.10553 13.2216 8.66542 13.0986 8.29615 13.0986C7.96376 13.0986 7.74833 13.2756 7.74833 13.5157V13.53C7.74833 13.8101 8.11605 13.9304 8.54233 14.0686L8.61602 14.0924C9.17922 14.2694 9.78241 14.5171 9.78241 15.1972L9.78233 15.2119ZM13.3047 16.1582C13.3047 16.1582 13.2148 16.1826 13.1339 16.2012C12.9312 16.2451 12.7275 16.2847 12.5231 16.32C12.283 16.3604 12.0353 16.3814 11.786 16.3814C11.549 16.3814 11.3336 16.3594 11.1428 16.3158C10.9504 16.2728 10.7838 16.2001 10.6489 16.102C10.5132 16.0037 10.4042 15.873 10.3319 15.7219C10.258 15.5696 10.2206 15.3834 10.2206 15.168C10.2206 14.9556 10.2645 14.7679 10.3505 14.6079C10.4357 14.4493 10.5563 14.3124 10.7029 14.2078C10.849 14.1025 11.0199 14.0234 11.2091 13.9723C11.3968 13.9216 11.5984 13.8957 11.8062 13.8957C11.9586 13.8957 12.0862 13.8992 12.1847 13.9065L12.187 13.9121C12.187 13.9121 12.3794 13.9295 12.5871 13.9596V13.857C12.5871 13.5339 12.5195 13.3802 12.387 13.2784C12.2516 13.1745 12.0485 13.1215 11.787 13.1215C11.787 13.1215 11.1961 13.1138 10.7298 13.3677C10.7083 13.3805 10.69 13.3877 10.69 13.3877C10.69 13.3877 10.6317 13.4082 10.6103 13.3483L10.4379 12.8867C10.4118 12.8198 10.4598 12.7902 10.4598 12.7902C10.6782 12.619 11.2076 12.5162 11.2076 12.5162C11.383 12.481 11.6769 12.4564 11.8584 12.4564C12.3431 12.4564 12.7171 12.5687 12.9725 12.7919C13.2288 13.015 13.3587 13.3766 13.3587 13.8629L13.3601 16.0788C13.3602 16.0788 13.3647 16.1429 13.3047 16.1582ZM14.9327 16.2363C14.9327 16.2769 14.9038 16.31 14.8632 16.31H14.2195C14.1787 16.31 14.1498 16.2769 14.1498 16.2363V11.0556C14.1498 11.0152 14.1788 10.9824 14.2195 10.9824H14.8632C14.9038 10.9824 14.9327 11.0151 14.9327 11.0556V16.2363ZM18.9557 14.5671C18.949 14.6296 18.885 14.6301 18.885 14.6301L16.4537 14.6283C16.4676 14.9977 16.5568 15.2577 16.7353 15.4362C16.9108 15.6105 17.1908 15.7218 17.5663 15.7224C18.1433 15.724 18.3895 15.6073 18.5634 15.5424C18.5634 15.5424 18.6305 15.5183 18.655 15.5848L18.8135 16.0294C18.8453 16.1044 18.8198 16.1304 18.7931 16.1455C18.6422 16.2301 18.273 16.3863 17.5713 16.3887C17.2297 16.3897 16.9342 16.3407 16.6896 16.246C16.4434 16.1506 16.2388 16.0152 16.0787 15.8413C15.9202 15.669 15.8015 15.4613 15.7279 15.2243C15.6545 14.9889 15.6177 14.7288 15.6177 14.4488C15.6177 14.1749 15.6533 13.9133 15.7239 13.6748C15.7946 13.4332 15.9059 13.2224 16.0531 13.0439C16.2008 12.8654 16.3886 12.7226 16.6118 12.6176C16.8349 12.5135 17.1103 12.4622 17.4134 12.4622C17.6524 12.4618 17.889 12.5098 18.109 12.6034C18.2613 12.668 18.4136 12.7865 18.5706 12.9542C18.6691 13.0604 18.8205 13.2928 18.8814 13.522L18.8831 13.5225C19.0389 14.0685 18.9583 14.5412 18.9557 14.5671ZM20.9611 16.4031C20.5395 16.4031 20.1364 16.3369 19.7085 16.1107C19.6285 16.0645 19.5484 16.0232 19.47 15.9662C19.4613 15.9541 19.4255 15.9398 19.4519 15.8712L19.45 15.8699L19.6193 15.399C19.6441 15.3221 19.7165 15.3504 19.7321 15.3603C19.778 15.3898 19.8133 15.4141 19.8738 15.4493C20.3724 15.7654 20.8351 15.7679 20.9802 15.7679C21.3525 15.7679 21.5849 15.5694 21.5849 15.3032V15.2887C21.5849 14.9994 21.2295 14.8892 20.8155 14.7624L20.7246 14.7341C20.1583 14.5725 19.5521 14.3386 19.5521 13.6215V13.6069C19.5521 12.9267 20.1013 12.4512 20.8877 12.4512L20.9735 12.451C21.4352 12.451 21.8814 12.5848 22.2045 12.7818C22.2337 12.7993 22.2625 12.8333 22.2461 12.8785C22.2323 12.9215 22.0885 13.3058 22.0722 13.3493C22.0417 13.4297 21.9584 13.3759 21.9584 13.3759C21.6752 13.2203 21.2367 13.0974 20.8674 13.0974C20.535 13.0974 20.3196 13.2743 20.3196 13.5144V13.5288C20.3196 13.8088 20.6873 13.9292 21.1136 14.0673L21.1873 14.0912C21.752 14.2681 22.3536 14.5159 22.3536 15.196V15.2105C22.3537 15.9461 21.8197 16.4031 20.9611 16.4031ZM25.2098 13.1213C25.1958 13.1944 25.1284 13.1919 25.1284 13.1919H24.3288L23.782 16.2862C23.7246 16.6061 23.6529 16.8806 23.5687 17.1017C23.4835 17.3249 23.3946 17.4885 23.2532 17.6446C23.1224 17.7895 22.9746 17.8964 22.8047 17.9578C22.6359 18.0187 22.4323 18.0501 22.2089 18.0501C22.1022 18.0501 21.9884 18.0482 21.8533 18.0163C21.756 17.9934 21.7029 17.977 21.6315 17.9515C21.6011 17.9405 21.5769 17.9026 21.5941 17.8546C21.6111 17.806 21.754 17.4129 21.7742 17.3613C21.7989 17.2982 21.8618 17.3222 21.8618 17.3222C21.9051 17.3404 21.9351 17.3533 21.9928 17.3647C22.0505 17.3763 22.1286 17.3862 22.1874 17.3862C22.293 17.3862 22.3893 17.3732 22.473 17.345C22.5745 17.311 22.6332 17.2527 22.6953 17.1734C22.7593 17.0916 22.8113 16.9788 22.8646 16.8283C22.9186 16.6758 22.9674 16.4745 23.01 16.2299L23.5543 13.1919H23.0178C22.9532 13.1922 22.9325 13.162 22.9388 13.1137L23.0292 12.609C23.0434 12.5356 23.1106 12.5384 23.1106 12.5384H23.6616L23.6913 12.3738C23.7737 11.8865 23.9378 11.5162 24.1791 11.273C24.4221 11.0281 24.7681 10.904 25.2072 10.904C25.3177 10.9028 25.4281 10.9114 25.5371 10.9295C25.6181 10.9437 25.6982 10.9626 25.777 10.9864C25.7942 10.9932 25.8407 11.0162 25.8216 11.071L25.6361 11.5806C25.6205 11.619 25.6099 11.6424 25.5308 11.6182C25.5111 11.6124 25.4819 11.6039 25.4066 11.5879C25.352 11.5765 25.2803 11.5677 25.2072 11.5677C25.119 11.5665 25.0311 11.5793 24.9467 11.6053C24.8698 11.6305 24.8001 11.6739 24.7435 11.7318C24.6829 11.7926 24.6113 11.8811 24.5733 11.9907C24.4842 12.2478 24.449 12.5206 24.4451 12.5382H25.2211C25.2861 12.5379 25.3067 12.5681 25.3004 12.6164L25.2098 13.1213ZM28.7519 15.2021C28.6811 15.4406 28.5717 15.6499 28.4256 15.8253C28.2795 16.0007 28.0932 16.141 27.8748 16.2407C27.6562 16.3405 27.3978 16.3912 27.1069 16.3912C26.8161 16.3912 26.5576 16.3405 26.3376 16.2407C26.119 16.1407 25.933 16.0007 25.7867 15.8253C25.6406 15.6498 25.5308 15.4406 25.4605 15.2021C25.3904 14.9651 25.3549 14.7066 25.3549 14.4311C25.3549 14.1558 25.3904 13.8972 25.4605 13.6602C25.5312 13.4217 25.6408 13.2124 25.7867 13.037C25.9329 12.8616 26.1191 12.7207 26.3376 12.6185C26.5576 12.5165 26.8145 12.4646 27.1069 12.4646C27.3993 12.4646 27.6578 12.5161 27.8763 12.6185C28.0963 12.72 28.2809 12.8617 28.4272 13.037C28.5733 13.2125 28.6828 13.4217 28.7534 13.6602H28.7519C28.8217 13.8971 28.8573 14.1572 28.8573 14.4311C28.8573 14.7067 28.8217 14.9651 28.7519 15.2021ZM31.7269 12.6555L31.7285 12.6455C31.7054 12.7117 31.5871 13.0439 31.5454 13.1549C31.5295 13.1971 31.5035 13.2257 31.4567 13.2204C31.4567 13.2204 31.3174 13.1879 31.1905 13.1879C31.0802 13.1879 30.9703 13.2032 30.8642 13.2338C30.7512 13.2688 30.6483 13.3306 30.5641 13.4138C30.476 13.5 30.4044 13.6201 30.3518 13.7708C30.2984 13.9231 30.2717 14.1647 30.2717 14.4078V16.2235C30.2717 16.2642 30.2388 16.2971 30.1981 16.2971H29.5611C29.5204 16.2971 29.4875 16.2642 29.4874 16.2235V12.6074C29.4874 12.5668 29.5166 12.534 29.5569 12.534H30.1786C30.2195 12.534 30.2483 12.5668 30.2483 12.6074L30.2486 12.9028C30.3409 12.7766 30.5074 12.6675 30.6579 12.5997C30.8102 12.5314 30.9795 12.48 31.2841 12.4991C31.4426 12.5089 31.649 12.5525 31.6904 12.5682C31.6911 12.5685 31.6918 12.5688 31.6924 12.5691C31.7259 12.5834 31.7413 12.6221 31.7269 12.6555ZM34.7936 16.2014C34.5228 16.3087 34.1457 16.3829 33.778 16.3829C33.1564 16.3829 32.6794 16.2045 32.3624 15.8506C32.0453 15.4981 31.8854 15.0166 31.8854 14.4225C31.8854 14.1472 31.9246 13.8871 32.0023 13.6501C32.0808 13.4116 32.1977 13.2023 32.3516 13.027C32.5055 12.8515 32.6994 12.7105 32.9287 12.6084C33.1579 12.5062 33.4257 12.4547 33.7272 12.4547C33.9303 12.4547 34.1104 12.467 34.2658 12.4907C34.432 12.5158 34.6514 12.5753 34.7444 12.6117C34.7615 12.6183 34.8082 12.6414 34.7892 12.696C34.7216 12.8868 34.6752 13.0114 34.6122 13.1853C34.5853 13.2593 34.5291 13.2347 34.5291 13.2347C34.2921 13.1606 34.0659 13.1263 33.7705 13.1263C33.4166 13.1263 33.1488 13.2463 32.9749 13.4772C32.7988 13.711 32.7006 14.0157 32.6995 14.422C32.6979 14.8682 32.8088 15.1974 33.0073 15.4021C33.2042 15.6066 33.4812 15.7099 33.8274 15.7099C33.9674 15.7099 34.1004 15.7005 34.2198 15.6817C34.3383 15.6632 34.4495 15.6263 34.5537 15.5865C34.5537 15.5865 34.6218 15.5601 34.6452 15.6298H34.6458L34.8228 16.1161C34.8454 16.1764 34.7936 16.2014 34.7936 16.2014ZM38.3916 14.5671C38.3849 14.6296 38.3209 14.6301 38.3209 14.6301L35.8896 14.6283C35.9035 14.9977 35.9927 15.2577 36.1712 15.4362C36.3467 15.6105 36.6252 15.7218 37.0021 15.7224C37.5792 15.724 37.8253 15.6073 37.9992 15.5424C37.9992 15.5424 38.0663 15.5183 38.0907 15.5848L38.2492 16.0294C38.2809 16.1044 38.2555 16.1304 38.2286 16.1455C38.0777 16.2301 37.7085 16.3863 37.0068 16.3887C36.6667 16.3897 36.3697 16.3407 36.1251 16.246C35.8789 16.1506 35.6742 16.0152 35.5142 15.8413C35.3542 15.669 35.2356 15.4613 35.1619 15.2243C35.0889 14.9889 35.0519 14.7288 35.0519 14.4488C35.0519 14.1749 35.0876 13.9133 35.1584 13.6748C35.2291 13.4332 35.3401 13.2224 35.4877 13.0439C35.6354 12.8654 35.8231 12.7226 36.0462 12.6176C36.2693 12.5135 36.5448 12.4622 36.8479 12.4622C37.0869 12.4618 37.3235 12.5098 37.5434 12.6034C37.6958 12.668 37.8481 12.7865 38.005 12.9542C38.1035 13.0604 38.2547 13.2928 38.3158 13.522L38.3191 13.5225C38.4748 14.0685 38.3942 14.5412 38.3916 14.5671Z" fill="black"/>
<path d="M36.7903 13.1047C36.4718 13.1047 36.2451 13.2293 36.0963 13.4571C35.9969 13.6063 35.9337 13.7985 35.8994 14.0292L37.6305 14.0295C37.6142 13.8063 37.5704 13.6072 37.4704 13.4571C37.3196 13.23 37.1087 13.1047 36.7903 13.1047Z" fill="black"/>
</svg>
