<svg width="43" height="43" viewBox="0 0 43 43" fill="none" xmlns="http://www.w3.org/2000/svg">
<path d="M21.2946 27.4379L19.6576 24.6026C19.4491 24.2414 19.0022 24.0948 18.6203 24.2621L17.2822 24.8484C16.8829 24.5522 16.454 24.3041 15.9993 24.1065L15.838 22.6559C15.792 22.2414 15.4417 21.9277 15.0246 21.9277H11.7508C11.3337 21.9277 10.9834 22.2413 10.9374 22.6559L10.7761 24.1065C10.3214 24.3041 9.89255 24.5521 9.4933 24.8484L8.15507 24.2621C7.77292 24.0948 7.32627 24.2415 7.1178 24.6026L5.48083 27.4379C5.27228 27.7991 5.3687 28.2593 5.7046 28.5064L6.88151 29.3722C6.82593 29.8638 6.82585 30.3613 6.88159 30.8532L5.7046 31.719C5.3687 31.9662 5.27228 32.4265 5.48083 32.7876L7.1178 35.6228C7.32627 35.984 7.77308 36.1307 8.15507 35.9633L9.49313 35.377C9.89231 35.6732 10.3213 35.9213 10.7761 36.119L10.9374 37.5696C10.9834 37.9841 11.3337 38.2977 11.7508 38.2977H15.0246C15.4417 38.2977 15.792 37.9842 15.838 37.5696L15.9993 36.1189C16.454 35.9213 16.8828 35.6732 17.2821 35.377L18.6203 35.9633C19.0026 36.1309 19.4491 35.984 19.6576 35.6228L21.2946 32.7876C21.5031 32.4264 21.4067 31.9661 21.0708 31.719L19.8939 30.8533C19.9495 30.3618 19.9495 29.8637 19.8939 29.3722L21.0708 28.5064C21.4067 28.2593 21.5031 27.7991 21.2946 27.4379ZM18.2068 29.1635C18.329 29.7859 18.329 30.4395 18.2068 31.0619C18.1459 31.3727 18.2699 31.6908 18.5251 31.8785L19.5106 32.6035L18.6062 34.1699L17.4845 33.6785C17.1942 33.5513 16.8563 33.6032 16.6175 33.8118C16.133 34.2352 15.5808 34.5546 14.9759 34.7612C14.676 34.8637 14.4622 35.1303 14.4271 35.4453L14.2921 36.6607H12.4833L12.3483 35.4454C12.3132 35.1303 12.0994 34.8638 11.7995 34.7613C11.1943 34.5545 10.642 34.2352 10.1579 33.812C9.91916 33.6033 9.58128 33.5513 9.2908 33.6785L8.16915 34.1699L7.2648 32.6035L8.25042 31.8784C8.50547 31.6907 8.62947 31.3727 8.56873 31.062C8.44637 30.4384 8.44629 29.7864 8.56857 29.1635C8.62947 28.8527 8.50547 28.5346 8.25034 28.3469L7.2648 27.6219L8.16915 26.0554L9.29089 26.5469C9.58137 26.6742 9.91916 26.6222 10.1579 26.4135C10.6424 25.9902 11.1946 25.6708 11.7994 25.4642C12.0994 25.3617 12.3132 25.0952 12.3483 24.7801L12.4833 23.5647H14.2921L14.4271 24.7801C14.4622 25.0952 14.676 25.3617 14.976 25.4642C15.581 25.6708 16.1332 25.9902 16.6174 26.4135C16.8562 26.6222 17.1941 26.6741 17.4845 26.5469L18.6062 26.0554L19.5106 27.6219L18.5251 28.3469C18.2699 28.5346 18.1459 28.8526 18.2068 29.1635Z" fill="black"/>
<path d="M13.3901 27.2478C11.8105 27.2478 10.5254 28.5329 10.5254 30.1125C10.6694 33.9077 16.1113 33.9067 16.2547 30.1125C16.2547 28.5329 14.9697 27.2478 13.3901 27.2478ZM13.3901 31.3402C12.7131 31.3402 12.1624 30.7895 12.1624 30.1125C12.2241 28.486 14.5563 28.4864 14.6177 30.1125C14.6177 30.7895 14.0671 31.3402 13.3901 31.3402Z" fill="black"/>
<path d="M38.9875 4.51359C34.2925 -0.379653 25.8446 -0.379407 21.1497 4.51359C20.0914 5.57189 19.225 6.82459 18.6005 8.18614L18.5966 8.1773C18.4138 7.76397 17.9304 7.57694 17.517 7.75987C17.1035 7.94272 16.9167 8.42612 17.0995 8.83954L17.9273 10.7108C18.0151 10.9093 18.1781 11.0648 18.3806 11.1432C18.583 11.2214 18.8082 11.2162 19.0069 11.1283L20.8781 10.3005C21.2916 10.1176 21.4784 9.63421 21.2956 9.22087C21.1126 8.80754 20.6296 8.62051 20.2159 8.80344L20.0931 8.85779C20.6363 7.67647 21.3887 6.58968 22.3072 5.67118C26.3929 1.413 33.7443 1.41316 37.8298 5.67118C42.088 9.75682 42.0878 17.1083 37.8298 21.1938C33.7437 25.4519 26.3931 25.4519 22.3072 21.1937C20.3848 19.2713 17.9514 18.0426 15.2702 17.6402C12.6432 17.2461 10.0095 17.6732 7.6545 18.8755C7.25189 19.081 7.09212 19.5741 7.29772 19.9767C7.50325 20.3793 7.9963 20.539 8.39884 20.3336C12.6487 18.1639 17.7731 18.9746 21.1496 22.3514C25.845 27.2443 34.2923 27.2445 38.9873 22.3512C43.8804 17.6565 43.8807 9.2081 38.9875 4.51359Z" fill="black"/>
<path d="M22.1615 16.1072L23.7985 18.9425C24.0069 19.3037 24.4537 19.4503 24.8358 19.283L26.1738 18.6967C26.573 18.9929 27.002 19.2411 27.4568 19.4387L27.618 20.8893C27.664 21.3037 28.0144 21.6174 28.4314 21.6174H31.7053C32.1224 21.6174 32.4727 21.3038 32.5187 20.8893L32.68 19.4386C33.1346 19.241 33.5635 18.9929 33.9628 18.6967L35.301 19.283C35.683 19.4504 36.1299 19.3036 36.3383 18.9425L37.9752 16.1072C38.1838 15.746 38.0874 15.2857 37.7515 15.0386L36.5746 14.1728C36.6301 13.6814 36.6301 13.1833 36.5746 12.6918L37.7515 11.826C38.0874 11.5788 38.1838 11.1186 37.9752 10.7575L36.3383 7.92221C36.1298 7.56101 35.6829 7.41442 35.301 7.58172L33.9628 8.168C33.5636 7.87179 33.1347 7.62371 32.68 7.42613L32.5187 5.97544C32.4727 5.56096 32.1223 5.24731 31.7053 5.24731H28.4314C28.0143 5.24731 27.664 5.56088 27.618 5.97544L27.4568 7.42613C27.0022 7.62371 26.5732 7.87179 26.174 8.168L24.8357 7.58172C24.4536 7.41434 24.007 7.5611 23.7985 7.92221L22.1615 10.7575C21.9529 11.1186 22.0494 11.5789 22.3853 11.826L23.5622 12.6918C23.5066 13.1834 23.5065 13.6809 23.5623 14.1728L22.3853 15.0386C22.0494 15.2858 21.9529 15.746 22.1615 16.1072ZM25.2493 14.3816C25.127 13.758 25.1269 13.1061 25.2492 12.4831C25.31 12.1723 25.186 11.8542 24.9309 11.6665L23.9454 10.9415L24.8497 9.37511L25.9715 9.86653C26.2619 9.99388 26.5997 9.94183 26.8385 9.7332C27.323 9.30979 27.8753 8.99042 28.48 8.78391C28.78 8.68144 28.9938 8.41486 29.0288 8.09974L29.1639 6.88437H30.9727L31.1077 8.09974C31.1428 8.41486 31.3565 8.68136 31.6566 8.78383C32.2615 8.9905 32.8138 9.30987 33.298 9.73311C33.5368 9.94183 33.8746 9.9938 34.1651 9.86653L35.2868 9.37511L36.1912 10.9415L35.2056 11.6665C34.9505 11.8542 34.8265 12.1723 34.8874 12.4831C35.0096 13.1055 35.0096 13.7592 34.8874 14.3815C34.8265 14.6923 34.9505 15.0105 35.2056 15.1982L36.1912 15.9232L35.2868 17.4896L34.1651 16.9982C33.8748 16.8711 33.5368 16.9229 33.2981 17.1315C32.8136 17.5548 32.2614 17.8743 31.6565 18.0809C31.3565 18.1833 31.1428 18.4499 31.1077 18.765L30.9727 19.9803H29.1639L29.0288 18.765C28.9938 18.4499 28.78 18.1834 28.48 18.0809C27.8749 17.8743 27.3226 17.5548 26.8385 17.1317C26.5997 16.9229 26.262 16.871 25.9713 16.9982L24.8497 17.4896L23.9454 15.9232L24.931 15.1981C25.1861 15.0105 25.31 14.6925 25.2493 14.3816Z" fill="black"/>
<path d="M30.0677 16.2971C31.6473 16.2971 32.9325 15.012 32.9325 13.4324C32.7884 9.63727 27.3465 9.63825 27.2031 13.4324C27.2031 15.012 28.4882 16.2971 30.0677 16.2971ZM30.0677 12.2047C30.7447 12.2047 31.2955 12.7555 31.2955 13.4324C31.2338 15.0589 28.9016 15.0585 28.8401 13.4324C28.8401 12.7555 29.3909 12.2047 30.0677 12.2047Z" fill="black"/>
<path d="M25.5309 32.8341C25.4431 32.6356 25.28 32.4801 25.0775 32.4017C24.875 32.3234 24.6497 32.3288 24.4512 32.4166L22.58 33.2444C21.6041 33.7172 22.2367 35.1456 23.2423 34.7415L23.3656 34.6869C22.8225 35.8684 22.0702 36.9546 21.151 37.8738C17.0655 42.132 9.71397 42.1318 5.62849 37.8738C2.25158 34.4971 1.44078 29.3728 3.61076 25.1225C3.81636 24.7199 3.65659 24.2269 3.25398 24.0213C2.85153 23.8158 2.35839 23.9755 2.15287 24.3781C-0.333367 29.1094 0.631383 35.2926 4.47091 39.0313C10.5714 45.2438 21.3044 43.3045 24.8579 35.3591L24.8616 35.3676C24.9968 35.6734 25.2964 35.8553 25.6106 35.8552C25.7212 35.8552 25.8337 35.8327 25.9412 35.785C26.3546 35.6022 26.5416 35.1188 26.3587 34.7054L25.5309 32.8341Z" fill="black"/>
<path d="M5.04854 22.5906C5.23335 22.5906 5.41931 22.5283 5.57229 22.4008C5.91957 22.1114 5.96647 21.5954 5.67714 21.2481C5.38755 20.9008 4.87142 20.8541 4.52438 21.1433L4.52389 21.1437C4.1766 21.4331 4.12995 21.949 4.41928 22.2963C4.58118 22.4905 4.81396 22.5906 5.04854 22.5906Z" fill="black"/>
</svg>
